<?xml version="1.0" encoding="utf-8"?>
<!-- Generator: Adobe Illustrator 20.0.0, SVG Export Plug-In . SVG Version: 6.00 Build 0)  -->
<svg version="1.1" id="Layer_1" xmlns="http://www.w3.org/2000/svg" xmlns:xlink="http://www.w3.org/1999/xlink" x="0px" y="0px"
	 viewBox="0 0 213.8 60.1" style="enable-background:new 0 0 213.8 60.1;" xml:space="preserve">
<style type="text/css">
	.st0{fill:#F2FF2B;}
</style>
<rect class="st0" width="213.8" height="60.1"/>
<g>
	<path d="M75.1,43.1v-13c0-0.5,0-1.4,0.1-2c-0.3,0.7-0.5,1.4-0.8,2l-6.1,13.4l-6.2-13.4c-0.3-0.6-0.5-1.3-0.8-2c0,0.6,0.1,1.4,0.1,2
		v13h-4.9V17.9h4.9l6.2,13.9c0.3,0.6,0.5,1.2,0.6,1.7c0.2-0.5,0.4-1.2,0.6-1.7l6.3-13.9h4.6v25.2H75.1z"/>
	<path d="M84.8,30.5c0-6.2,3-13,11.1-13c8.1,0,11.1,6.8,11.1,13c0,6.2-3,13-11.1,13C87.8,43.5,84.8,36.7,84.8,30.5z M102,30.5
		c0-3.9-1.5-8.4-6-8.4c-4.6,0-6.1,4.7-6.1,8.4c0,3.8,1.5,8.4,6.1,8.4C100.4,38.8,102,34.1,102,30.5z"/>
	<path d="M111.9,17.9h11.7c6.3,0,8.4,3.7,8.4,7.9c0,2.8-1.6,6.1-4.9,7.3l4.9,10h-5.5l-4.7-9.4h-5.1v9.4h-4.9V17.9z M123.6,29.1
		c2.5,0,3.3-1.6,3.3-3.3c0-1.6-0.7-3.3-3.3-3.3h-6.9v6.6H123.6z"/>
	<path d="M136.9,17.9h17.2v4.6h-12.3v5.3h7.3v4.6h-7.3v6.1h13.1v4.6h-18V17.9z"/>
</g>
</svg>
