<?xml version="1.0" encoding="utf-8"?>
<!-- Generator: Adobe Illustrator 20.0.0, SVG Export Plug-In . SVG Version: 6.00 Build 0)  -->
<svg version="1.1" id="Layer_1" xmlns="http://www.w3.org/2000/svg" xmlns:xlink="http://www.w3.org/1999/xlink" x="0px" y="0px"
	 viewBox="0 0 220.2 66.6" style="enable-background:new 0 0 220.2 66.6;" xml:space="preserve">
<style type="text/css">
	.st0{fill:#F2FF2B;}
</style>
<rect x="6.4" y="6.5" width="213.8" height="60.1"/>
<rect class="st0" width="213.8" height="60.1"/>
<g>
	<path d="M58,30.5c0-6.2,3-13,11.1-13c8.1,0,11.1,6.8,11.1,13c0,6.2-3,13-11.1,13C61,43.5,58,36.7,58,30.5z M75.2,30.5
		c0-3.9-1.5-8.4-6-8.4c-4.6,0-6.1,4.7-6.1,8.4c0,3.8,1.5,8.4,6.1,8.4C73.6,38.8,75.2,34.1,75.2,30.5z"/>
	<path d="M94.6,31L90,36.8v6.3h-4.9V17.9H90v12l9.5-12h5.8l-7.3,9l8.9,16.2h-5.7L94.6,31z"/>
	<path d="M125.9,37.9h-9.7l-1.9,5.2H109l9.6-25.2h4.8l9.6,25.2h-5.2L125.9,37.9z M121.8,26.9c-0.3-0.6-0.6-1.6-0.8-2.3
		c-0.2,0.6-0.5,1.6-0.8,2.3l-2.5,6.6h6.6L121.8,26.9z"/>
	<path d="M140.7,33.3l-9.3-15.4h5.5l6.2,10.3l6.2-10.3h5.5l-9.3,15.4v9.8h-4.8V33.3z"/>
</g>
</svg>
