<?xml version="1.0" encoding="utf-8"?>
<!-- Generator: Adobe Illustrator 20.0.0, SVG Export Plug-In . SVG Version: 6.00 Build 0)  -->
<svg version="1.1" id="Layer_1" xmlns="http://www.w3.org/2000/svg" xmlns:xlink="http://www.w3.org/1999/xlink" x="0px" y="0px"
	 viewBox="0 0 220.2 66.6" style="enable-background:new 0 0 220.2 66.6;" xml:space="preserve">
<style type="text/css">
	.st0{fill:#F2FF2B;}
</style>
<g>
	<rect x="6.4" y="6.5" width="213.8" height="60.1"/>
	<rect class="st0" width="213.8" height="60.1"/>
	<g>
		<path d="M62.9,17.9h10.8c6.4,0,8.6,4,8.6,8c0,3.7-2.4,8-8.6,8h-5.9v9.3h-4.9V17.9z M77.3,25.8c0-1.4-0.8-3.3-3.3-3.3h-6.2v6.7H74
			C76.4,29.2,77.3,27.4,77.3,25.8z"/>
		<path d="M85.9,17.9h4.9v20.5H103v4.7h-17V17.9z"/>
		<path d="M121.9,37.9h-9.7l-1.9,5.2H105l9.6-25.2h4.8l9.6,25.2h-5.2L121.9,37.9z M117.8,26.9c-0.3-0.6-0.6-1.6-0.8-2.3
			c-0.2,0.6-0.5,1.6-0.8,2.3l-2.5,6.6h6.6L117.8,26.9z"/>
		<path d="M136.7,33.3l-9.3-15.4h5.5l6.2,10.3l6.2-10.3h5.5l-9.3,15.4v9.8h-4.8V33.3z"/>
	</g>
</g>
</svg>
