<?xml version="1.0" encoding="utf-8"?>
<!-- Generator: Adobe Illustrator 20.0.0, SVG Export Plug-In . SVG Version: 6.00 Build 0)  -->
<svg version="1.1" id="Layer_1" xmlns="http://www.w3.org/2000/svg" xmlns:xlink="http://www.w3.org/1999/xlink" x="0px" y="0px"
	 viewBox="0 0 574.3 552.8" style="enable-background:new 0 0 574.3 552.8;" xml:space="preserve">
<style type="text/css">
	.st0{fill:#FF4C29;}
</style>
<path class="st0" d="M406.9,553.5H167.9l-80.1-80.1V324.7l47.6-47.6l-47.6-47.6V80.8l80.1-80.1h239.1l80.1,80.1v148.7l-47.6,47.6
	l47.6,47.6v148.7L406.9,553.5z M170.3,547.5h234.1l76.6-76.6V327.2L431,277.1l50.1-50.1V83.3L404.4,6.7H170.3L93.7,83.3V227
	l50.1,50.1l-50.1,50.1v143.7L170.3,547.5z M359.5,459.5H215.2L181.8,426v-71.4l33.5-33.5h144.3l33.5,33.5V426L359.5,459.5z
	 M217.7,453.5h139.3l30-30v-66.4l-30-30H217.7l-30,30v66.4L217.7,453.5z M359.5,233.1H215.2l-33.5-33.5v-71.4l33.5-33.5h144.3
	l33.5,33.5v71.4L359.5,233.1z M217.7,227.1h139.3l30-30v-66.4l-30-30H217.7l-30,30v66.4L217.7,227.1z"/>
</svg>
