<?xml version="1.0" encoding="utf-8"?>
<!-- Generator: Adobe Illustrator 20.0.0, SVG Export Plug-In . SVG Version: 6.00 Build 0)  -->
<svg version="1.1" id="Layer_1" xmlns="http://www.w3.org/2000/svg" xmlns:xlink="http://www.w3.org/1999/xlink" x="0px" y="0px"
	 viewBox="0 0 574.3 552.8" style="enable-background:new 0 0 574.3 552.8;" xml:space="preserve">
<style type="text/css">
	.st0{fill:#FF4C29;}
</style>
<path class="st0" d="M486.6,553.5H87.3V318.2l80.1-80.1h189.2l29.6-29.9v-77.4l-30-30.3H217.3l-30,30.3v45.5H87.3V80.8l80.1-80.1
	h239.1l80.1,80.1v177.1l-80.1,80.1H216.9l-29.6,30.3v85.1h299.3V553.5z M93.3,547.5h387.3v-88.1H181.3v-93.5l33.1-33.9H404
	l76.6-76.6V83.3L404,6.7H169.9L93.3,83.3v86.9h88.1v-42l33.5-33.8h143.9l33.5,33.8v82.3L359.1,244H169.9l-76.6,76.6V547.5z"/>
</svg>
