<?xml version="1.0" encoding="utf-8"?>
<!-- Generator: Adobe Illustrator 20.0.0, SVG Export Plug-In . SVG Version: 6.00 Build 0)  -->
<svg version="1.1" id="Layer_1" xmlns="http://www.w3.org/2000/svg" xmlns:xlink="http://www.w3.org/1999/xlink" x="0px" y="0px"
	 viewBox="0 0 574.3 552.8" style="enable-background:new 0 0 574.3 552.8;" xml:space="preserve">
<style type="text/css">
	.st0{fill:#FF4C29;}
</style>
<path class="st0" d="M407.1,553.5H168l-80.1-80.1V378h100.1v45.9l30,30h139l30.3-30v-96.7H168L87.9,247V80.8L168,0.7h239.1
	l80.1,80.1v392.5L407.1,553.5z M170.5,547.5h234.1l76.6-76.6V83.3L404.6,6.7H170.5L93.9,83.3v161.2l76.6,76.6h222.7v105.2
	l-33.8,33.5H215.4l-33.5-33.5V384H93.9v86.9L170.5,547.5z M393.1,233.1H215.4l-33.5-33.5v-71.4l33.5-33.5h144.3l33.5,33.5V233.1z
	 M217.9,227.1h169.3v-96.4l-30-30H217.9l-30,30v66.4L217.9,227.1z"/>
</svg>
