<?xml version="1.0" encoding="utf-8"?>
<!-- Generator: Adobe Illustrator 20.0.0, SVG Export Plug-In . SVG Version: 6.00 Build 0)  -->
<svg version="1.1" id="Layer_1" xmlns="http://www.w3.org/2000/svg" xmlns:xlink="http://www.w3.org/1999/xlink" x="0px" y="0px"
	 viewBox="0 0 574.3 552.8" style="enable-background:new 0 0 574.3 552.8;" xml:space="preserve">
<style type="text/css">
	.st0{fill:#FF4C29;}
</style>
<path class="st0" d="M406.6,553.5H167.6l-80.1-80.1V80.8l80.1-80.1h239.1l80.1,80.1v95.4H386.7v-45.9l-30-30h-139l-30.3,30v96.7
	h219.2l80.1,80.1v166.2L406.6,553.5z M170.1,547.5h234.1l76.6-76.6V309.7l-76.6-76.6H181.5V127.9l33.8-33.5h143.9l33.5,33.5v42.4
	h88.1V83.3L404.2,6.7H170.1L93.4,83.3v387.6L170.1,547.5z M359.3,459.5H215L181.5,426V321.1h177.8l33.5,33.5V426L359.3,459.5z
	 M217.5,453.5h139.3l30-30v-66.4l-30-30H187.5v96.4L217.5,453.5z"/>
</svg>
