<?xml version="1.0" encoding="utf-8"?>
<!-- Generator: Adobe Illustrator 20.0.0, SVG Export Plug-In . SVG Version: 6.00 Build 0)  -->
<svg version="1.1" id="Layer_1" xmlns="http://www.w3.org/2000/svg" xmlns:xlink="http://www.w3.org/1999/xlink" x="0px" y="0px"
	 viewBox="0 0 960 600" style="enable-background:new 0 0 960 600;" xml:space="preserve">
<style type="text/css">
	.st0{fill:#696969;}
	.st1{fill:#FFF911;}
</style>
<rect x="0" y="0" class="st0" width="960.5" height="600.5"/>
<g>
	<polygon class="st1" points="240.2,14.6 254.4,14.6 260,9 245.8,9 	"/>
	<polygon class="st1" points="268.9,14.6 283.1,14.6 288.7,9 274.5,9 	"/>
	<polygon class="st1" points="297.6,14.6 311.9,14.6 317.5,9 303.3,9 	"/>
	<polygon class="st1" points="326.6,14.6 340.8,14.6 346.4,9 332.2,9 	"/>
	<polygon class="st1" points="355.3,14.6 369.5,14.6 375.2,9 360.9,9 	"/>
	<polygon class="st1" points="384.2,14.6 398.5,14.6 404.1,9 389.8,9 	"/>
	<polygon class="st1" points="413,14.6 427.2,14.6 432.8,9 418.6,9 	"/>
	<polygon class="st1" points="441.9,14.6 456.1,14.6 461.7,9 447.5,9 	"/>
	<polygon class="st1" points="10,14.6 24.2,14.6 29.8,9 15.6,9 	"/>
	<polygon class="st1" points="38.7,14.6 53,14.6 58.6,9 44.3,9 	"/>
	<polygon class="st1" points="67.5,14.6 81.7,14.6 87.3,9 73.1,9 	"/>
	<polygon class="st1" points="96.4,14.6 110.6,14.6 116.2,9 102,9 	"/>
	<polygon class="st1" points="125.1,14.6 139.4,14.6 145,9 130.7,9 	"/>
	<polygon class="st1" points="154.1,14.6 168.3,14.6 173.9,9 159.7,9 	"/>
	<polygon class="st1" points="182.8,14.6 197,14.6 202.6,9 188.4,9 	"/>
	<polygon class="st1" points="211.7,14.6 226,14.6 231.6,9 217.3,9 	"/>
	<polygon class="st1" points="701.1,14.6 715.3,14.6 720.9,9 706.7,9 	"/>
	<polygon class="st1" points="729.8,14.6 744.1,14.6 749.7,9 735.4,9 	"/>
	<polygon class="st1" points="758.6,14.6 772.8,14.6 778.4,9 764.2,9 	"/>
	<polygon class="st1" points="787.5,14.6 801.7,14.6 807.3,9 793.1,9 	"/>
	<polygon class="st1" points="816.2,14.6 830.5,14.6 836.1,9 821.8,9 	"/>
	<polygon class="st1" points="845.1,14.6 859.4,14.6 865,9 850.8,9 	"/>
	<polygon class="st1" points="873.9,14.6 888.1,14.6 893.7,9 879.5,9 	"/>
	<polygon class="st1" points="902.8,14.6 917,14.6 922.7,9 908.4,9 	"/>
	<polygon class="st1" points="937.2,9 931.6,14.6 945.8,14.6 951.4,9 	"/>
	<polygon class="st1" points="476.5,9 476.2,9 470.6,14.6 470.9,14.6 484.9,14.6 485.2,14.6 490.8,9 490.5,9 	"/>
	<polygon class="st1" points="499.7,14.6 513.9,14.6 519.5,9 505.3,9 	"/>
	<polygon class="st1" points="528.4,14.6 542.7,14.6 548.3,9 534,9 	"/>
	<polygon class="st1" points="557.3,14.6 571.6,14.6 577.2,9 562.9,9 	"/>
	<polygon class="st1" points="586.1,14.6 600.3,14.6 605.9,9 591.7,9 	"/>
	<polygon class="st1" points="615,14.6 629.2,14.6 634.8,9 620.6,9 	"/>
	<polygon class="st1" points="643.7,14.6 658,14.6 663.6,9 649.3,9 	"/>
	<polygon class="st1" points="672.6,14.6 686.9,14.6 692.5,9 678.3,9 	"/>
</g>
<g>
	<polygon class="st1" points="240,589.3 254.3,589.3 259.9,583.6 245.6,583.6 	"/>
	<polygon class="st1" points="268.8,589.3 283,589.3 288.6,583.6 274.4,583.6 	"/>
	<polygon class="st1" points="297.5,589.3 311.7,589.3 317.3,583.6 303.1,583.6 	"/>
	<polygon class="st1" points="326.4,589.3 340.6,589.3 346.2,583.6 332,583.6 	"/>
	<polygon class="st1" points="355.1,589.3 369.4,589.3 375,583.6 360.7,583.6 	"/>
	<polygon class="st1" points="384,589.3 398.3,589.3 403.9,583.6 389.6,583.6 	"/>
	<polygon class="st1" points="412.8,589.3 427,589.3 432.6,583.6 418.4,583.6 	"/>
	<polygon class="st1" points="441.7,589.3 455.9,589.3 461.5,583.6 447.3,583.6 	"/>
	<polygon class="st1" points="10,589.3 24.2,589.3 29.8,583.6 15.6,583.6 	"/>
	<polygon class="st1" points="38.7,589.3 53,589.3 58.6,583.6 44.3,583.6 	"/>
	<polygon class="st1" points="67.5,589.3 81.7,589.3 87.3,583.6 73.1,583.6 	"/>
	<polygon class="st1" points="96.4,589.3 110.6,589.3 116.2,583.6 102,583.6 	"/>
	<polygon class="st1" points="125.1,589.3 139.3,589.3 144.9,583.6 130.7,583.6 	"/>
	<polygon class="st1" points="154,589.3 168.2,589.3 173.8,583.6 159.6,583.6 	"/>
	<polygon class="st1" points="182.7,589.3 197,589.3 202.6,583.6 188.3,583.6 	"/>
	<polygon class="st1" points="211.6,589.3 225.8,589.3 231.4,583.6 217.2,583.6 	"/>
	<polygon class="st1" points="700.7,589.3 715,589.3 720.6,583.6 706.3,583.6 	"/>
	<polygon class="st1" points="729.5,589.3 743.7,589.3 749.3,583.6 735.1,583.6 	"/>
	<polygon class="st1" points="758.2,589.3 772.4,589.3 778,583.6 763.8,583.6 	"/>
	<polygon class="st1" points="787.1,589.3 801.3,589.3 806.9,583.6 792.7,583.6 	"/>
	<polygon class="st1" points="815.8,589.3 830.1,589.3 835.7,583.6 821.4,583.6 	"/>
	<polygon class="st1" points="844.7,589.3 859,589.3 864.6,583.6 850.3,583.6 	"/>
	<polygon class="st1" points="873.5,589.3 887.7,589.3 893.3,583.6 879.1,583.6 	"/>
	<polygon class="st1" points="902.4,589.3 916.6,589.3 922.2,583.6 908,583.6 	"/>
	<polygon class="st1" points="936.7,583.6 931.1,589.3 945.3,589.3 950.9,583.6 	"/>
	<polygon class="st1" points="476.3,583.6 476,583.6 470.4,589.3 470.7,589.3 484.6,589.3 484.9,589.3 490.5,583.6 490.2,583.6 	"/>
	<polygon class="st1" points="499.4,589.3 513.7,589.3 519.3,583.6 505,583.6 	"/>
	<polygon class="st1" points="528.2,589.3 542.4,589.3 548,583.6 533.8,583.6 	"/>
	<polygon class="st1" points="557.1,589.3 571.3,589.3 576.9,583.6 562.7,583.6 	"/>
	<polygon class="st1" points="585.8,589.3 600,589.3 605.6,583.6 591.4,583.6 	"/>
	<polygon class="st1" points="614.7,589.3 628.9,589.3 634.5,583.6 620.3,583.6 	"/>
	<polygon class="st1" points="643.4,589.3 657.6,589.3 663.2,583.6 649,583.6 	"/>
	<polygon class="st1" points="672.3,589.3 686.5,589.3 692.1,583.6 677.9,583.6 	"/>
</g>
<g>
	<polygon class="st1" points="945.4,589.3 945.4,574.8 951,569 951,583.6 	"/>
	<polygon class="st1" points="945.4,559.9 945.4,545.4 951,539.6 951,554.2 	"/>
	<polygon class="st1" points="945.4,530.5 945.4,515.9 951,510.2 951,524.8 	"/>
	<polygon class="st1" points="945.4,500.9 945.4,486.4 951,480.6 951,495.2 	"/>
	<polygon class="st1" points="945.4,471.5 945.4,456.9 951,451.2 951,465.8 	"/>
	<polygon class="st1" points="945.4,441.9 945.4,427.4 951,421.6 951,436.2 	"/>
	<polygon class="st1" points="945.4,412.5 945.4,398 951,392.2 951,406.8 	"/>
	<polygon class="st1" points="945.4,382.9 945.4,368.4 951,362.6 951,377.2 	"/>
	<polygon class="st1" points="945.4,117.7 945.4,103.1 951,97.4 951,112 	"/>
	<polygon class="st1" points="945.4,88.3 945.4,73.7 951,68 951,82.6 	"/>
	<polygon class="st1" points="945.4,58.9 945.4,44.3 951,38.6 951,53.2 	"/>
	<polygon class="st1" points="945.4,29.3 945.4,14.7 951,9 951,23.6 	"/>
	<polygon class="st1" points="951,347.5 951,347.8 945.4,353.5 945.4,353.2 945.4,339 945.4,338.6 951,332.9 951,333.2 	"/>
	<polygon class="st1" points="945.4,323.8 945.4,309.2 951,303.5 951,318.1 	"/>
	<polygon class="st1" points="945.4,294.4 945.4,279.8 951,274.1 951,288.7 	"/>
	<polygon class="st1" points="945.4,264.8 945.4,250.2 951,244.5 951,259.1 	"/>
	<polygon class="st1" points="945.4,235.4 945.4,220.8 951,215.1 951,229.7 	"/>
	<polygon class="st1" points="945.4,205.8 945.4,191.2 951,185.5 951,200.1 	"/>
	<polygon class="st1" points="945.4,176.4 945.4,161.8 951,156.1 951,170.7 	"/>
	<polygon class="st1" points="945.4,146.8 945.4,132.2 951,126.5 951,141.1 	"/>
</g>
<g>
	<polygon class="st1" points="9.9,589.3 9.9,574.8 15.5,569 15.5,583.6 	"/>
	<polygon class="st1" points="9.9,559.9 9.9,545.4 15.5,539.6 15.5,554.2 	"/>
	<polygon class="st1" points="9.9,530.5 9.9,515.9 15.5,510.2 15.5,524.8 	"/>
	<polygon class="st1" points="9.9,500.9 9.9,486.4 15.5,480.6 15.5,495.2 	"/>
	<polygon class="st1" points="9.9,471.5 9.9,456.9 15.5,451.2 15.5,465.8 	"/>
	<polygon class="st1" points="9.9,441.9 9.9,427.4 15.5,421.6 15.5,436.2 	"/>
	<polygon class="st1" points="9.9,412.5 9.9,398 15.5,392.2 15.5,406.8 	"/>
	<polygon class="st1" points="9.9,382.9 9.9,368.4 15.5,362.6 15.5,377.2 	"/>
	<polygon class="st1" points="9.9,117.7 9.9,103.1 15.5,97.4 15.5,112 	"/>
	<polygon class="st1" points="9.9,88.3 9.9,73.7 15.5,68 15.5,82.6 	"/>
	<polygon class="st1" points="9.9,58.9 9.9,44.3 15.5,38.6 15.5,53.2 	"/>
	<polygon class="st1" points="9.9,29.3 9.9,14.7 15.5,9 15.5,23.6 	"/>
	<polygon class="st1" points="15.5,347.5 15.5,347.8 9.9,353.5 9.9,353.2 9.9,339 9.9,338.6 15.5,332.9 15.5,333.2 	"/>
	<polygon class="st1" points="9.9,323.8 9.9,309.2 15.5,303.5 15.5,318.1 	"/>
	<polygon class="st1" points="9.9,294.4 9.9,279.8 15.5,274.1 15.5,288.7 	"/>
	<polygon class="st1" points="9.9,264.8 9.9,250.2 15.5,244.5 15.5,259.1 	"/>
	<polygon class="st1" points="9.9,235.4 9.9,220.8 15.5,215.1 15.5,229.7 	"/>
	<polygon class="st1" points="9.9,205.8 9.9,191.2 15.5,185.5 15.5,200.1 	"/>
	<polygon class="st1" points="9.9,176.4 9.9,161.8 15.5,156.1 15.5,170.7 	"/>
	<polygon class="st1" points="9.9,146.8 9.9,132.2 15.5,126.5 15.5,141.1 	"/>
</g>
</svg>
