<?xml version="1.0" encoding="utf-8"?>
<!-- Generator: Adobe Illustrator 20.0.0, SVG Export Plug-In . SVG Version: 6.00 Build 0)  -->
<svg version="1.1" id="Layer_1" xmlns="http://www.w3.org/2000/svg" xmlns:xlink="http://www.w3.org/1999/xlink" x="0px" y="0px"
	 viewBox="0 0 134.7 124" style="enable-background:new 0 0 134.7 124;" xml:space="preserve">
<style type="text/css">
	.st0{opacity:0.2;}
	.st1{fill:#A5C2CF;}
	.st2{fill:#2F414A;}
	.st3{fill:#6A93A6;}
	.st4{fill:#D4F2FF;}
	.st5{fill:#BEFFED;}
	.st6{fill:#EA2D00;}
	.st7{fill:#EA866E;}
</style>
<g>
	<path class="st0" d="M134.7,56.5c0-17.8-7.9-32.2-17.6-32.2c-3.1,0-6,1.5-8.5,4C98.3,17.6,83.9,11,68,11
		c-31.2,0-56.5,25.3-56.5,56.5S36.8,124,68,124c23.9,0,44.4-14.9,52.6-35.9C128.6,85.1,134.7,72.1,134.7,56.5z"/>
	<circle class="st1" cx="56.6" cy="56.4" r="56.4"/>
	<circle cx="57" cy="56" r="33.3"/>
	<circle class="st2" cx="59.5" cy="59.7" r="25.5"/>
	<path class="st3" d="M93.9,19.8c20.4,20.4,20.4,53.7,0,74.2s-53.7,20.4-74.2,0l-3.1,3.1c22.2,22.2,58.2,22.2,80.4,0
		s22.2-58.2,0-80.4L93.9,19.8z"/>
	<path class="st4" d="M19.7,94c-20.4-20.4-20.4-53.7,0-74.2s53.7-20.4,74.2,0l0,0l3.1-3.1l0,0c-22.2-22.2-58.2-22.2-80.4,0
		s-22.2,58.2,0,80.4l0,0L19.7,94L19.7,94z"/>
	<path class="st3" d="M34,79.7c-12.6-12.6-12.6-33,0-45.6s33-12.6,45.6,0l1.9-1.9c-13.6-13.6-35.8-13.6-49.4,0s-13.6,35.8,0,49.4
		L34,79.7z"/>
	<path class="st4" d="M79.6,34.1c12.6,12.6,12.6,33,0,45.6s-33,12.6-45.6,0l0,0l-1.9,1.9l0,0c13.6,13.6,35.8,13.6,49.4,0
		s13.6-35.8,0-49.4l0,0L79.6,34.1L79.6,34.1z"/>
	<ellipse class="st3" cx="111.3" cy="56" rx="16.1" ry="33.3"/>
	<rect x="105.3" y="22.6" class="st3" width="6.2" height="2"/>
	<rect x="105.3" y="87.4" class="st3" width="6.2" height="2"/>
	<ellipse class="st4" cx="106" cy="56" rx="16.1" ry="33.3"/>
	<ellipse class="st2" cx="105" cy="56" rx="15" ry="31.1"/>
	<path class="st3" d="M89.9,64.1L89.9,64.1c-0.9,0-1.7-0.8-1.7-1.7V49.9c0-0.9,0.8-1.7,1.7-1.7h0c0.9,0,1.7,0.8,1.7,1.7v12.4
		C91.6,63.3,90.9,64.1,89.9,64.1z"/>
	<path class="st4" d="M89.4,62.9L89.4,62.9c-0.3,0-0.6-0.3-0.6-0.6V50.2c0-0.3,0.3-0.6,0.6-0.6l0,0c0.3,0,0.6,0.3,0.6,0.6v12.1
		C90,62.7,89.7,62.9,89.4,62.9z"/>
	<g>
		<path class="st5" d="M105.1,76.9c-5,0-9-9.1-9-20.6s3.9-20.6,9-20.6s9,9.1,9,20.6S110.1,76.9,105.1,76.9z M105.1,36.7
			c-4.3,0-8,9-8,19.6s3.7,19.6,8,19.6s8-9,8-19.6S109.4,36.7,105.1,36.7z"/>
	</g>
	<g>
		<path class="st5" d="M105.1,70.5c-3.5,0-6.3-6.3-6.3-14.2s2.8-14.2,6.3-14.2s6.3,6.3,6.3,14.2S108.6,70.5,105.1,70.5z M105.1,43
			c-2.9,0-5.3,6.1-5.3,13.2s2.4,13.2,5.3,13.2s5.3-6.1,5.3-13.2S108,43,105.1,43z"/>
	</g>
	<g>
		<path class="st5" d="M56.9,75.3c-9.8,0-17.9-8-17.9-17.9c0-9.8,8-17.9,17.9-17.9c9.8,0,17.9,8,17.9,17.9
			C74.7,67.2,66.7,75.3,56.9,75.3z M56.9,40.4c-9.4,0-17,7.6-17,17c0,9.4,7.6,17,17,17c9.4,0,17-7.6,17-17
			C73.8,48,66.2,40.4,56.9,40.4z"/>
	</g>
	<circle class="st6" cx="56.9" cy="57.4" r="12.8"/>
	<circle class="st7" cx="53.7" cy="54.1" r="5.7"/>
</g>
</svg>
