<?xml version="1.0" encoding="utf-8"?>
<!-- Generator: Adobe Illustrator 20.0.0, SVG Export Plug-In . SVG Version: 6.00 Build 0)  -->
<svg version="1.1" id="Layer_1" xmlns="http://www.w3.org/2000/svg" xmlns:xlink="http://www.w3.org/1999/xlink" x="0px" y="0px"
	 viewBox="0 0 960 600" style="enable-background:new 0 0 960 600;" xml:space="preserve">
<style type="text/css">
	.st0{fill:#FF2B2B;}
	.st1{fill:#190EFF;}
	.st2{fill:#FFF12B;}
	.st3{fill:#2BFFCE;}
	.st4{fill:#FFFFFF;}
	.st5{opacity:0.2;}
	.st6{fill:#A5C2CF;}
	.st7{fill:#2F414A;}
	.st8{fill:#6A93A6;}
	.st9{fill:#D4F2FF;}
	.st10{fill:#BEFFED;}
	.st11{fill:#EA2D00;}
	.st12{fill:#EA866E;}
</style>
<polygon points="4,4.7 4,212.9 4,239 4,301 4,335 4,596.2 956.7,596.2 956.7,335 956.7,301 956.7,239 956.7,212.9 956.7,4.7 "/>
<path class="st0" d="M0.1,0.8v212.1V239v62v34v265h960.4V335v-34v-62v-26.1V0.8H0.1z M952.8,212.9V239v62v34v257.3H7.8V335v-34v-62
	v-26.1V8.5h945V212.9z"/>
<polygon class="st1" points="41.4,39.9 41.4,212.9 41.4,239 41.4,301 41.4,335 41.4,561.4 921.2,561.4 921.2,335 921.2,301 
	921.2,239 921.2,212.9 921.2,39.9 "/>
<path class="st2" d="M15.4,17v195.9V239v62v34v249.4h929.9V335v-34v-62v-26.1V17H15.4z M939.2,212.9V239v62v34v243.3H21.5V335v-34
	v-62v-26.1V23.1h917.7V212.9z"/>
<g>
	<g>
		<g>
			<g>
				<path d="M298.1,203.4h-23v-36.2l-3.7-3.7h-26.1v40h-23V100.5h60.1l15.7,15.7v28.5l-7.3,7.3l7.3,7.3V203.4z M281.5,197.1h10.2
					v-35.2l-9.9-9.9l9.9-9.9v-23.2l-12-12h-51.1v90.2h10.2v-40H274l7.5,7.5V197.1z M274,146.9h-35.1v-29.7H274l7.5,7.5v14.8
					L274,146.9z M245.3,140.5h26.1l3.7-3.7v-9.5l-3.7-3.7h-26.1V140.5z"/>
			</g>
			<g>
				<path d="M366.1,203.4h-44.4L306,187.7v-71.5l15.7-15.7h44.4l15.7,15.7v71.5L366.1,203.4z M324.3,197.1h39.1l12-12v-66.3l-12-12
					h-39.1l-12,12v66.3L324.3,197.1z M357.7,186.8h-27.7l-7.5-7.5v-54.8l7.5-7.5h27.7l7.5,7.5v54.8L357.7,186.8z M332.7,180.5h22.4
					l3.7-3.7v-49.5l-3.7-3.7h-22.4l-3.7,3.7v49.5L332.7,180.5z"/>
			</g>
			<g>
				<path d="M449.8,203.4h-60.1V100.5h60.1l15.7,15.7v28.5l-7.3,7.3l7.3,7.3v28.5L449.8,203.4z M396,197.1h51.1l12-12v-23.2
					l-9.9-9.9l9.9-9.9v-23.2l-12-12H396V197.1z M441.4,186.8h-35.1v-29.7h35.1l7.5,7.5v14.8L441.4,186.8z M412.7,180.5h26.1l3.7-3.7
					v-9.5l-3.7-3.7h-26.1V180.5z M441.4,146.9h-35.1v-29.7h35.1l7.5,7.5v14.8L441.4,146.9z M412.7,140.5h26.1l3.7-3.7v-9.5l-3.7-3.7
					h-26.1V140.5z"/>
			</g>
			<g>
				<path d="M533.5,203.4h-44.4l-15.7-15.7v-71.5l15.7-15.7h44.4l15.7,15.7v71.5L533.5,203.4z M491.7,197.1h39.1l12-12v-66.3l-12-12
					h-39.1l-12,12v66.3L491.7,197.1z M525.1,186.8h-27.7l-7.5-7.5v-54.8l7.5-7.5h27.7l7.5,7.5v54.8L525.1,186.8z M500.1,180.5h22.4
					l3.7-3.7v-49.5l-3.7-3.7h-22.4l-3.7,3.7v49.5L500.1,180.5z"/>
			</g>
			<g>
				<path d="M656,203.4h-23v-52l-17,52h-19l-17-52v52h-23V100.5h29.2l20.3,57.8l20.3-57.8h29.3L656,203.4z M639.4,197.1h10.2
					l0.1-90.2h-18.4l-24.8,70.7l-24.8-70.7h-18.3v90.2h10.2v-85.5l28,85.5h9.7l28-85.6V197.1z"/>
			</g>
			<g>
				<path d="M724.1,203.4H664V100.5h60.1l15.7,15.7v28.5l-7.3,7.3l7.3,7.3v28.5L724.1,203.4z M670.3,197.1h51.1l12-12v-23.2
					l-9.9-9.9l9.9-9.9v-23.2l-12-12h-51.1V197.1z M715.7,186.8h-35.1v-29.7h35.1l7.5,7.5v14.8L715.7,186.8z M686.9,180.5h26.1
					l3.7-3.7v-9.5l-3.7-3.7h-26.1V180.5z M715.7,146.9h-35.1v-29.7h35.1l7.5,7.5v14.8L715.7,146.9z M686.9,140.5h26.1l3.7-3.7v-9.5
					l-3.7-3.7h-26.1V140.5z"/>
			</g>
		</g>
		<g>
			<g>
				<path class="st2" d="M293.6,198.9h-23v-36.2l-3.7-3.7h-26.1v40h-23V95.9h60.1l15.7,15.7v28.5l-7.3,7.3l7.3,7.3V198.9z
					 M276.9,192.5h10.2v-35.2l-9.9-9.9l9.9-9.9v-23.2l-12-12h-51.1v90.2h10.2v-40h35.1l7.5,7.5V192.5z M269.5,142.3h-35.1v-29.7
					h35.1l7.5,7.5v14.8L269.5,142.3z M240.7,135.9h26.1l3.7-3.7v-9.5l-3.7-3.7h-26.1V135.9z"/>
			</g>
			<g>
				<path class="st2" d="M361.6,198.9h-44.4l-15.7-15.7v-71.5l15.7-15.7h44.4l15.7,15.7v71.5L361.6,198.9z M319.8,192.5h39.1l12-12
					v-66.3l-12-12h-39.1l-12,12v66.3L319.8,192.5z M353.2,182.3h-27.7l-7.5-7.5V120l7.5-7.5h27.7l7.5,7.5v54.8L353.2,182.3z
					 M328.1,175.9h22.4l3.7-3.7v-49.5l-3.7-3.7h-22.4l-3.7,3.7v49.5L328.1,175.9z"/>
			</g>
			<g>
				<path class="st2" d="M445.3,198.9h-60.1V95.9h60.1l15.7,15.7v28.5l-7.3,7.3l7.3,7.3v28.5L445.3,198.9z M391.5,192.5h51.1l12-12
					v-23.2l-9.9-9.9l9.9-9.9v-23.2l-12-12h-51.1V192.5z M436.9,182.3h-35.1v-29.7h35.1l7.5,7.5v14.8L436.9,182.3z M408.1,175.9h26.1
					l3.7-3.7v-9.5l-3.7-3.7h-26.1V175.9z M436.9,142.3h-35.1v-29.7h35.1l7.5,7.5v14.8L436.9,142.3z M408.1,135.9h26.1l3.7-3.7v-9.5
					l-3.7-3.7h-26.1V135.9z"/>
			</g>
			<g>
				<path class="st2" d="M529,198.9h-44.4l-15.7-15.7v-71.5l15.7-15.7H529l15.7,15.7v71.5L529,198.9z M487.2,192.5h39.1l12-12v-66.3
					l-12-12h-39.1l-12,12v66.3L487.2,192.5z M520.6,182.3h-27.7l-7.5-7.5V120l7.5-7.5h27.7l7.5,7.5v54.8L520.6,182.3z M495.5,175.9
					h22.4l3.7-3.7v-49.5l-3.7-3.7h-22.4l-3.7,3.7v49.5L495.5,175.9z"/>
			</g>
			<g>
				<path class="st2" d="M651.5,198.9h-23v-52l-17,52h-19l-17-52v52h-23V95.9h29.2l20.3,57.8l20.3-57.8h29.3L651.5,198.9z
					 M634.9,192.5h10.2l0.1-90.2h-18.4L602,173l-24.8-70.7h-18.3v90.2h10.2V107l28,85.5h9.7l28-85.6V192.5z"/>
			</g>
			<g>
				<path class="st2" d="M719.5,198.9h-60.1V95.9h60.1l15.7,15.7v28.5l-7.3,7.3l7.3,7.3v28.5L719.5,198.9z M665.8,192.5h51.1l12-12
					v-23.2l-9.9-9.9l9.9-9.9v-23.2l-12-12h-51.1V192.5z M711.2,182.3H676v-29.7h35.1l7.5,7.5v14.8L711.2,182.3z M682.4,175.9h26.1
					l3.7-3.7v-9.5l-3.7-3.7h-26.1V175.9z M711.2,142.3H676v-29.7h35.1l7.5,7.5v14.8L711.2,142.3z M682.4,135.9h26.1l3.7-3.7v-9.5
					l-3.7-3.7h-26.1V135.9z"/>
			</g>
		</g>
	</g>
	<rect x="217.5" y="234" class="st3" width="513.7" height="3.8"/>
</g>
<g>
	<path class="st4" d="M301.3,276.8l2.5-0.9c0.7,1.5,1.9,2.5,3.6,2.5c1.7,0,2.8-0.8,2.8-2.2c0-1.5-1.6-2.1-3.4-2.7
		c-2.3-0.8-4.9-1.7-4.9-4.7c0-2.3,1.9-4.3,5.3-4.3c2.8,0,4.6,1.5,5.1,3.4l-2.5,0.8c-0.4-0.9-1.3-1.7-2.8-1.7c-1.4,0-2.3,0.6-2.3,1.7
		c0,1.2,1.4,1.7,3.1,2.2c2.3,0.8,5.2,1.8,5.2,5.2c0,3.1-2.5,4.8-5.6,4.8C304.4,280.9,302.2,279.3,301.3,276.8z"/>
	<path class="st4" d="M322.7,279.7c-0.6,0.6-1.6,1.2-3.1,1.2c-2.4,0-4.2-1.3-4.2-3.9c0-2.7,2.3-3.9,4.6-3.9c1.1,0,2,0.2,2.8,0.6
		v-0.6c0-1.5-0.8-2.1-2.3-2.1c-1.4,0-2.5,0.4-3.5,1.1l-0.8-2.2c1.1-0.7,2.6-1.3,4.6-1.3c2.1,0,4.6,0.5,4.6,4.4v7.5h-2.6V279.7z
		 M322.7,277.4v-1.5c-0.6-0.3-1.5-0.5-2.3-0.5c-1.3,0-2.4,0.5-2.4,1.6c0,0.9,0.7,1.5,2.1,1.5C321.2,278.6,322.1,278.1,322.7,277.4z"
		/>
	<path class="st4" d="M331.2,279.7v0.9h-2.7v-15.3l2.7-1.2v5.7c0.6-0.7,1.4-1.1,2.6-1.1c2.8,0,4.9,2.3,4.9,6.1c0,4-1.9,6.1-4.9,6.1
		C332.5,280.9,331.8,280.5,331.2,279.7z M336,274.8c0-2.3-0.9-3.6-2.5-3.6c-1.1,0-1.9,0.6-2.3,1.1v4.9c0.5,0.7,1.2,1.1,2.3,1.1
		C335.1,278.4,336,277,336,274.8z"/>
	<path class="st4" d="M341,274.8c0-3.8,2.1-6.1,5.4-6.1c3.3,0,5.4,2.3,5.4,6.1c0,3.9-2.1,6.1-5.4,6.1
		C343.1,280.9,341,278.6,341,274.8z M349.1,274.8c0-2.2-1-3.6-2.7-3.6c-1.6,0-2.7,1.4-2.7,3.6c0,2.2,1.1,3.6,2.7,3.6
		C348,278.4,349.1,277,349.1,274.8z"/>
	<path class="st4" d="M355.2,277.9v-6.7h-1.7v-2.3h1.7v-3.6l2.7-1.3v4.8h2.7v2.3h-2.7v6.1c0,0.7,0.3,1.1,1,1.1
		c0.6,0,1.2-0.2,1.8-0.5l-0.3,2.4c-0.7,0.3-1.5,0.5-2.5,0.5C356,280.9,355.2,279.8,355.2,277.9z"/>
	<path class="st4" d="M362.6,274.8c0-3.8,2.1-6.1,5.4-6.1c2.8,0,5.1,1.7,5.1,5.5c0,0.5,0,1.1-0.1,1.7h-7.8c0.1,1.7,1.4,2.8,2.8,2.8
		c1,0,1.9-0.4,2.5-1.2l1.7,1.7c-0.9,1.1-2.3,1.8-4.2,1.8C364.7,280.9,362.6,278.6,362.6,274.8z M370.5,273.6
		c-0.1-1.8-1.2-2.6-2.5-2.6c-1.4,0-2.6,0.7-2.7,2.6H370.5z"/>
	<path class="st4" d="M383,279.5c-0.7,0.9-1.8,1.4-3.1,1.4c-2.2,0-4.2-1.2-4.2-4.8v-7.2h2.7v6.7c0,1.9,0.8,2.7,2.2,2.7
		c1.4,0,2.4-0.7,2.4-2.7v-6.7h2.7v11.7H383V279.5z"/>
	<path class="st4" d="M389.2,268.9h2.7v1.2c0.5-1,1.2-1.5,2.4-1.5c0.9,0,1.6,0.3,2.2,0.8l-0.4,2.5c-0.5-0.3-1.1-0.6-2-0.6
		c-1,0-2.2,0.6-2.2,2.8v6.6h-2.7V268.9z"/>
	<path class="st4" d="M397.7,278.9l1.8-1.6c0.5,0.5,1.4,1.2,2.7,1.2c1.1,0,1.9-0.3,1.9-1.1c0-0.8-0.9-1.2-2.3-1.7
		c-2.5-0.8-3.9-1.8-3.9-3.8c0-2.1,1.9-3.3,4.2-3.3c2,0,3.4,0.9,4.2,1.8l-1.9,1.5c-0.6-0.6-1.3-1-2.3-1c-1,0-1.6,0.3-1.6,1
		c0,0.7,1.1,1.1,2.3,1.5c2.3,0.8,3.9,1.7,3.9,3.9c0,2.3-1.8,3.5-4.5,3.5C400.3,280.9,398.5,280.1,397.7,278.9z"/>
	<path class="st4" d="M415.2,265.3l2.7-1.2v5.9c0.8-0.9,1.8-1.4,3.1-1.4c2.2,0,4.2,1.2,4.2,4.8v7.2h-2.7v-6.8c0-1.9-0.8-2.7-2.2-2.7
		c-1.4,0-2.4,0.7-2.4,2.6v6.8h-2.7V265.3z"/>
	<path class="st4" d="M435.1,279.7c-0.6,0.6-1.6,1.2-3.1,1.2c-2.4,0-4.2-1.3-4.2-3.9c0-2.7,2.3-3.9,4.6-3.9c1.1,0,2,0.2,2.8,0.6
		v-0.6c0-1.5-0.8-2.1-2.3-2.1c-1.4,0-2.5,0.4-3.5,1.1l-0.8-2.2c1.1-0.7,2.6-1.3,4.6-1.3c2.1,0,4.6,0.5,4.6,4.4v7.5h-2.6V279.7z
		 M435.1,277.4v-1.5c-0.6-0.3-1.5-0.5-2.3-0.5c-1.3,0-2.4,0.5-2.4,1.6c0,0.9,0.7,1.5,2.1,1.5C433.7,278.6,434.5,278.1,435.1,277.4z"
		/>
	<path class="st4" d="M439.6,268.9h2.7l2.6,7.3c0.1,0.4,0.2,0.7,0.3,1.1c0.1-0.4,0.2-0.7,0.3-1.1l2.5-7.3h2.7l-4.3,11.7h-2.7
		L439.6,268.9z"/>
	<path class="st4" d="M452.4,274.8c0-3.8,2.1-6.1,5.4-6.1c2.8,0,5.1,1.7,5.1,5.5c0,0.5,0,1.1-0.1,1.7h-7.8c0.1,1.7,1.4,2.8,2.8,2.8
		c1,0,1.9-0.4,2.5-1.2l1.7,1.7c-0.9,1.1-2.3,1.8-4.2,1.8C454.5,280.9,452.4,278.6,452.4,274.8z M460.3,273.6
		c-0.1-1.8-1.2-2.6-2.5-2.6c-1.4,0-2.6,0.7-2.7,2.6H460.3z"/>
	<path class="st4" d="M474,279.7v4.3l-2.7,1.2v-16.3h2.7v0.9c0.6-0.7,1.4-1.2,2.7-1.2c2.9,0,4.8,2.2,4.8,6.1c0,3.9-2,6.1-4.8,6.1
		C475.4,280.9,474.6,280.4,474,279.7z M478.8,274.8c0-2.1-0.9-3.6-2.5-3.6c-1.1,0-1.8,0.4-2.3,1.1v4.9c0.4,0.6,1.2,1.1,2.3,1.1
		C477.9,278.4,478.8,277.1,478.8,274.8z"/>
	<path class="st4" d="M484.5,265.3l2.7-1.3v16.6h-2.7V265.3z"/>
	<path class="st4" d="M497.4,279.7c-0.6,0.6-1.6,1.2-3.1,1.2c-2.4,0-4.2-1.3-4.2-3.9c0-2.7,2.3-3.9,4.6-3.9c1.1,0,2,0.2,2.8,0.6
		v-0.6c0-1.5-0.8-2.1-2.3-2.1c-1.4,0-2.5,0.4-3.5,1.1l-0.8-2.2c1.1-0.7,2.6-1.3,4.6-1.3c2.1,0,4.6,0.5,4.6,4.4v7.5h-2.6V279.7z
		 M497.4,277.4v-1.5c-0.6-0.3-1.5-0.5-2.3-0.5c-1.3,0-2.4,0.5-2.4,1.6c0,0.9,0.7,1.5,2.1,1.5C495.9,278.6,496.8,278.1,497.4,277.4z"
		/>
	<path class="st4" d="M510.5,273.9c0-1.9-0.8-2.7-2.2-2.7c-1.4,0-2.4,0.8-2.4,2.7v6.8h-2.7v-11.7h2.7v1.1c0.8-0.9,1.8-1.4,3.1-1.4
		c2.2,0,4.2,1.2,4.2,4.8v7.2h-2.7V273.9z"/>
	<path class="st4" d="M517.2,277.9v-6.7h-1.7v-2.3h1.7v-3.6l2.7-1.3v4.8h2.7v2.3h-2.7v6.1c0,0.7,0.3,1.1,1,1.1
		c0.6,0,1.2-0.2,1.8-0.5l-0.3,2.4c-0.7,0.3-1.5,0.5-2.5,0.5C518,280.9,517.2,279.8,517.2,277.9z"/>
	<path class="st4" d="M524.6,274.8c0-3.8,2.1-6.1,5.4-6.1c2.8,0,5.1,1.7,5.1,5.5c0,0.5,0,1.1-0.1,1.7h-7.8c0.1,1.7,1.4,2.8,2.8,2.8
		c1,0,1.9-0.4,2.5-1.2l1.7,1.7c-0.9,1.1-2.3,1.8-4.2,1.8C526.7,280.9,524.6,278.6,524.6,274.8z M532.5,273.6
		c-0.1-1.8-1.2-2.6-2.5-2.6c-1.4,0-2.6,0.7-2.7,2.6H532.5z"/>
	<path class="st4" d="M537.3,274.8c0-3.8,2-6.1,4.9-6.1c1.2,0,2.1,0.5,2.6,1.1v-4.4l2.7-1.2v16.6h-2.7v-0.8
		c-0.6,0.7-1.4,1.1-2.6,1.1C539.2,280.9,537.3,278.7,537.3,274.8z M544.8,277.2v-4.9c-0.3-0.5-1.1-1.1-2.2-1.1
		c-1.7,0-2.6,1.3-2.6,3.6c0,2.1,0.9,3.6,2.6,3.6C543.6,278.4,544.3,278,544.8,277.2z"/>
	<path class="st4" d="M559.2,279.7v0.9h-2.7v-15.3l2.7-1.2v5.7c0.6-0.7,1.4-1.1,2.6-1.1c2.8,0,4.9,2.3,4.9,6.1c0,4-1.9,6.1-4.9,6.1
		C560.6,280.9,559.8,280.5,559.2,279.7z M564,274.8c0-2.3-0.9-3.6-2.5-3.6c-1.1,0-1.9,0.6-2.3,1.1v4.9c0.5,0.7,1.2,1.1,2.3,1.1
		C563.2,278.4,564,277,564,274.8z"/>
	<path class="st4" d="M569,274.8c0-3.8,2.1-6.1,5.4-6.1c3.3,0,5.4,2.3,5.4,6.1c0,3.9-2.1,6.1-5.4,6.1
		C571.1,280.9,569,278.6,569,274.8z M577.1,274.8c0-2.2-1-3.6-2.7-3.6c-1.6,0-2.7,1.4-2.7,3.6c0,2.2,1.1,3.6,2.7,3.6
		C576.1,278.4,577.1,277,577.1,274.8z"/>
	<path class="st4" d="M596.4,273.9c0-1.8-0.6-2.7-2-2.7c-1.4,0-2.2,0.9-2.2,2.8v6.7h-2.7v-6.7c0-1.8-0.6-2.7-2-2.7
		c-1.3,0-2.2,0.9-2.2,2.8v6.7h-2.7v-11.7h2.7v1.1c0.7-0.9,1.7-1.4,2.9-1.4c1.4,0,2.5,0.5,3.1,1.7c0.8-1.1,2-1.7,3.5-1.7
		c2.4,0,4.3,1.2,4.3,4.5v7.5h-2.7V273.9z"/>
	<path class="st4" d="M605.1,279.7v0.9h-2.7v-15.3l2.7-1.2v5.7c0.6-0.7,1.4-1.1,2.6-1.1c2.8,0,4.9,2.3,4.9,6.1c0,4-1.9,6.1-4.9,6.1
		C606.4,280.9,605.7,280.5,605.1,279.7z M609.9,274.8c0-2.3-0.9-3.6-2.5-3.6c-1.1,0-1.9,0.6-2.3,1.1v4.9c0.5,0.7,1.2,1.1,2.3,1.1
		C609,278.4,609.9,277,609.9,274.8z"/>
	<path class="st4" d="M614.6,278.9l1.8-1.6c0.5,0.5,1.4,1.2,2.7,1.2c1.1,0,1.9-0.3,1.9-1.1c0-0.8-0.9-1.2-2.3-1.7
		c-2.5-0.8-3.9-1.8-3.9-3.8c0-2.1,1.9-3.3,4.2-3.3c2,0,3.4,0.9,4.2,1.8l-1.9,1.5c-0.6-0.6-1.3-1-2.3-1c-1,0-1.6,0.3-1.6,1
		c0,0.7,1.1,1.1,2.3,1.5c2.3,0.8,3.9,1.7,3.9,3.9c0,2.3-1.8,3.5-4.5,3.5C617.3,280.9,615.5,280.1,614.6,278.9z"/>
	<path class="st4" d="M631.9,265.7c0-0.9,0.7-1.6,1.6-1.6c0.9,0,1.6,0.7,1.6,1.6c0,0.9-0.7,1.6-1.6,1.6
		C632.6,267.3,631.9,266.6,631.9,265.7z M632.2,268.9h2.7v11.7h-2.7V268.9z"/>
	<path class="st4" d="M645.6,273.9c0-1.9-0.8-2.7-2.2-2.7c-1.4,0-2.4,0.8-2.4,2.7v6.8h-2.7v-11.7h2.7v1.1c0.8-0.9,1.8-1.4,3.1-1.4
		c2.2,0,4.2,1.2,4.2,4.8v7.2h-2.7V273.9z"/>
	<path class="st4" d="M650.8,278.9l1.8-1.6c0.5,0.5,1.4,1.2,2.7,1.2c1.1,0,1.9-0.3,1.9-1.1c0-0.8-0.9-1.2-2.3-1.7
		c-2.5-0.8-3.9-1.8-3.9-3.8c0-2.1,1.9-3.3,4.2-3.3c2,0,3.4,0.9,4.2,1.8l-1.9,1.5c-0.6-0.6-1.3-1-2.3-1c-1,0-1.6,0.3-1.6,1
		c0,0.7,1.1,1.1,2.3,1.5c2.3,0.8,3.9,1.7,3.9,3.9c0,2.3-1.8,3.5-4.5,3.5C653.4,280.9,651.6,280.1,650.8,278.9z"/>
	<path class="st4" d="M662.5,265.7c0-0.9,0.7-1.6,1.6-1.6c0.9,0,1.6,0.7,1.6,1.6c0,0.9-0.7,1.6-1.6,1.6
		C663.2,267.3,662.5,266.6,662.5,265.7z M662.7,268.9h2.7v11.7h-2.7V268.9z"/>
	<path class="st4" d="M668.3,274.8c0-3.8,2-6.1,4.9-6.1c1.2,0,2.1,0.5,2.6,1.1v-4.4l2.7-1.2v16.6h-2.7v-0.8
		c-0.5,0.7-1.4,1.1-2.6,1.1C670.2,280.9,668.3,278.7,668.3,274.8z M675.8,277.2v-4.9c-0.3-0.5-1.1-1.1-2.2-1.1
		c-1.7,0-2.6,1.3-2.6,3.6c0,2.1,0.9,3.6,2.6,3.6C674.6,278.4,675.3,278,675.8,277.2z"/>
	<path class="st4" d="M681.3,274.8c0-3.8,2.1-6.1,5.4-6.1c2.8,0,5.1,1.7,5.1,5.5c0,0.5,0,1.1-0.1,1.7H684c0.1,1.7,1.4,2.8,2.8,2.8
		c1,0,1.9-0.4,2.5-1.2l1.7,1.7c-0.9,1.1-2.3,1.8-4.2,1.8C683.4,280.9,681.3,278.6,681.3,274.8z M689.2,273.6
		c-0.1-1.8-1.2-2.6-2.5-2.6c-1.4,0-2.6,0.7-2.7,2.6H689.2z"/>
	<path class="st4" d="M301.2,306.4l1.8-1.6c0.5,0.5,1.4,1.2,2.7,1.2c1.1,0,1.9-0.3,1.9-1.1c0-0.8-0.9-1.2-2.3-1.7
		c-2.5-0.8-3.9-1.8-3.9-3.8c0-2.1,1.9-3.3,4.2-3.3c2,0,3.4,0.9,4.2,1.8l-1.9,1.5c-0.6-0.6-1.3-1-2.3-1c-1,0-1.6,0.3-1.6,1
		c0,0.7,1.1,1.1,2.3,1.5c2.3,0.8,3.9,1.7,3.9,3.9c0,2.3-1.8,3.5-4.5,3.5C303.9,308.4,302.1,307.7,301.2,306.4z"/>
	<path class="st4" d="M312.5,302.3c0-3.8,2.1-6.1,5.4-6.1c3.3,0,5.4,2.3,5.4,6.1c0,3.9-2.1,6.1-5.4,6.1
		C314.6,308.4,312.5,306.2,312.5,302.3z M320.6,302.3c0-2.2-1-3.6-2.7-3.6c-1.6,0-2.7,1.4-2.7,3.6c0,2.2,1.1,3.6,2.7,3.6
		C319.5,305.9,320.6,304.5,320.6,302.3z"/>
	<path class="st4" d="M339.9,301.4c0-1.8-0.6-2.7-2-2.7c-1.4,0-2.2,0.9-2.2,2.8v6.7H333v-6.7c0-1.8-0.6-2.7-2-2.7
		c-1.3,0-2.2,0.9-2.2,2.8v6.7h-2.7v-11.7h2.7v1.1c0.7-0.9,1.7-1.4,2.9-1.4c1.4,0,2.5,0.5,3.1,1.7c0.8-1.1,2-1.7,3.5-1.7
		c2.4,0,4.3,1.2,4.3,4.5v7.5h-2.7V301.4z"/>
	<path class="st4" d="M345.3,302.3c0-3.8,2.1-6.1,5.4-6.1c2.8,0,5.1,1.7,5.1,5.5c0,0.5,0,1.1-0.1,1.7H348c0.1,1.7,1.4,2.8,2.8,2.8
		c1,0,1.9-0.4,2.5-1.2l1.7,1.7c-0.9,1.1-2.3,1.8-4.2,1.8C347.4,308.4,345.3,306.1,345.3,302.3z M353.2,301.1
		c-0.1-1.8-1.2-2.6-2.5-2.6c-1.4,0-2.6,0.7-2.7,2.6H353.2z"/>
	<path class="st4" d="M363.6,302.3c0-3.8,2.1-6.1,5.4-6.1c3.3,0,5.4,2.3,5.4,6.1c0,3.9-2.1,6.1-5.4,6.1
		C365.7,308.4,363.6,306.2,363.6,302.3z M371.7,302.3c0-2.2-1-3.6-2.7-3.6c-1.6,0-2.7,1.4-2.7,3.6c0,2.2,1.1,3.6,2.7,3.6
		C370.7,305.9,371.7,304.5,371.7,302.3z"/>
	<path class="st4" d="M380.7,308.2H378v-9.4h-1.7v-2.3h1.7v-1.8c0-2.2,1.4-2.8,2.8-2.8c0.9,0,1.7,0.2,2.5,0.6v2.2
		c-0.8-0.3-1.3-0.4-1.7-0.4c-0.6,0-0.9,0.3-0.9,0.9v1.3h2.6v2.3h-2.6V308.2z"/>
	<path class="st4" d="M394.1,308l-4.4-11.5h2.7l2.7,7.2c0.2,0.4,0.3,0.7,0.3,1.1c0.1-0.4,0.2-0.7,0.3-1.1l2.8-7.2h2.7l-6.2,16.2
		h-2.8L394.1,308z"/>
	<path class="st4" d="M402.8,302.3c0-3.8,2.1-6.1,5.4-6.1c3.3,0,5.4,2.3,5.4,6.1c0,3.9-2.1,6.1-5.4,6.1
		C404.9,308.4,402.8,306.2,402.8,302.3z M410.9,302.3c0-2.2-1-3.6-2.7-3.6c-1.6,0-2.7,1.4-2.7,3.6c0,2.2,1.1,3.6,2.7,3.6
		C409.9,305.9,410.9,304.5,410.9,302.3z"/>
	<path class="st4" d="M423.6,307c-0.7,0.9-1.8,1.4-3.1,1.4c-2.2,0-4.2-1.2-4.2-4.8v-7.2h2.7v6.7c0,1.9,0.8,2.7,2.2,2.7
		c1.4,0,2.4-0.7,2.4-2.7v-6.7h2.7v11.7h-2.7V307z"/>
	<path class="st4" d="M429.7,296.4h2.7v1.2c0.5-1,1.2-1.5,2.4-1.5c0.9,0,1.6,0.3,2.2,0.8l-0.4,2.5c-0.5-0.3-1.1-0.6-2-0.6
		c-1,0-2.2,0.6-2.2,2.8v6.6h-2.7V296.4z"/>
	<path class="st4" d="M444.7,296.4h2.7v1.2c0.5-1,1.2-1.5,2.4-1.5c0.9,0,1.6,0.3,2.2,0.8l-0.4,2.5c-0.5-0.3-1.1-0.6-2-0.6
		c-1,0-2.2,0.6-2.2,2.8v6.6h-2.7V296.4z"/>
	<path class="st4" d="M453.3,302.3c0-3.8,2.1-6.1,5.4-6.1c3.3,0,5.4,2.3,5.4,6.1c0,3.9-2.1,6.1-5.4,6.1
		C455.4,308.4,453.3,306.2,453.3,302.3z M461.3,302.3c0-2.2-1-3.6-2.7-3.6c-1.6,0-2.7,1.4-2.7,3.6c0,2.2,1.1,3.6,2.7,3.6
		C460.3,305.9,461.3,304.5,461.3,302.3z"/>
	<path class="st4" d="M469.6,307.3v0.9h-2.7v-15.3l2.7-1.2v5.7c0.6-0.7,1.4-1.1,2.6-1.1c2.8,0,4.9,2.3,4.9,6.1c0,4-1.9,6.1-4.9,6.1
		C470.9,308.4,470.2,308,469.6,307.3z M474.4,302.3c0-2.3-0.9-3.6-2.5-3.6c-1.1,0-1.9,0.6-2.3,1.1v4.9c0.5,0.7,1.2,1.1,2.3,1.1
		C473.5,305.9,474.4,304.5,474.4,302.3z"/>
	<path class="st4" d="M479.4,302.3c0-3.8,2.1-6.1,5.4-6.1c3.3,0,5.4,2.3,5.4,6.1c0,3.9-2.1,6.1-5.4,6.1
		C481.5,308.4,479.4,306.2,479.4,302.3z M487.5,302.3c0-2.2-1-3.6-2.7-3.6c-1.6,0-2.7,1.4-2.7,3.6c0,2.2,1.1,3.6,2.7,3.6
		C486.4,305.9,487.5,304.5,487.5,302.3z"/>
	<path class="st4" d="M493.6,305.4v-6.7h-1.7v-2.3h1.7v-3.6l2.7-1.3v4.8h2.7v2.3h-2.7v6.1c0,0.7,0.3,1.1,1,1.1
		c0.6,0,1.2-0.2,1.8-0.5l-0.3,2.4c-0.7,0.3-1.5,0.5-2.5,0.5C494.4,308.4,493.6,307.3,493.6,305.4z"/>
	<path class="st4" d="M500.9,306.4l1.8-1.6c0.5,0.5,1.4,1.2,2.7,1.2c1.1,0,1.9-0.3,1.9-1.1c0-0.8-0.9-1.2-2.3-1.7
		c-2.5-0.8-3.9-1.8-3.9-3.8c0-2.1,1.9-3.3,4.2-3.3c2,0,3.4,0.9,4.2,1.8l-1.9,1.5c-0.6-0.6-1.3-1-2.3-1c-1,0-1.6,0.3-1.6,1
		c0,0.7,1.1,1.1,2.3,1.5c2.3,0.8,3.9,1.7,3.9,3.9c0,2.3-1.8,3.5-4.5,3.5C503.6,308.4,501.8,307.7,500.9,306.4z"/>
	<path class="st4" d="M512.6,306.6c0-1,0.8-1.8,1.9-1.8c1,0,1.9,0.8,1.9,1.8c0,1-0.8,1.8-1.9,1.8
		C513.3,308.4,512.6,307.6,512.6,306.6z M513.1,297v-5.1h2.7v5.1l-0.6,6.8h-1.4L513.1,297z"/>
	<path class="st4" d="M531.9,292.1c3.9,0,5.1,2.1,5.1,4.3c0,1.4-0.6,2.6-2.1,3.3c1.9,0.7,2.6,2.3,2.6,3.7c0,2.2-1.4,4.7-5.4,4.7
		h-6.9v-16.1H531.9z M534.2,296.6c0-0.9-0.4-1.9-2.3-1.9H528v3.9h3.4C533.3,298.6,534.2,297.8,534.2,296.6z M534.8,303.5
		c0-1.2-0.6-2.4-3.1-2.4H528v4.5h4.3C534.2,305.6,534.8,304.5,534.8,303.5z"/>
	<path class="st4" d="M540.1,302.3c0-3.8,2.1-6.1,5.4-6.1c2.8,0,5.1,1.7,5.1,5.5c0,0.5,0,1.1-0.1,1.7h-7.8c0.1,1.7,1.4,2.8,2.8,2.8
		c1,0,1.9-0.4,2.5-1.2l1.7,1.7c-0.9,1.1-2.3,1.8-4.2,1.8C542.2,308.4,540.1,306.1,540.1,302.3z M548,301.1c-0.1-1.8-1.2-2.6-2.5-2.6
		c-1.4,0-2.6,0.7-2.7,2.6H548z"/>
	<path class="st4" d="M556.8,308.2h-2.7v-9.4h-1.7v-2.3h1.7v-1.8c0-2.2,1.4-2.8,2.8-2.8c0.9,0,1.7,0.2,2.5,0.6v2.2
		c-0.8-0.3-1.3-0.4-1.7-0.4c-0.6,0-0.9,0.3-0.9,0.9v1.3h2.6v2.3h-2.6V308.2z"/>
	<path class="st4" d="M560.6,302.3c0-3.8,2.1-6.1,5.4-6.1c3.3,0,5.4,2.3,5.4,6.1c0,3.9-2.1,6.1-5.4,6.1
		C562.7,308.4,560.6,306.2,560.6,302.3z M568.7,302.3c0-2.2-1-3.6-2.7-3.6c-1.6,0-2.7,1.4-2.7,3.6c0,2.2,1.1,3.6,2.7,3.6
		C567.6,305.9,568.7,304.5,568.7,302.3z"/>
	<path class="st4" d="M574.2,296.4h2.7v1.2c0.5-1,1.2-1.5,2.4-1.5c0.9,0,1.6,0.3,2.2,0.8l-0.4,2.5c-0.5-0.3-1.1-0.6-2-0.6
		c-1,0-2.2,0.6-2.2,2.8v6.6h-2.7V296.4z"/>
	<path class="st4" d="M582.8,302.3c0-3.8,2.1-6.1,5.4-6.1c2.8,0,5.1,1.7,5.1,5.5c0,0.5,0,1.1-0.1,1.7h-7.8c0.1,1.7,1.4,2.8,2.8,2.8
		c1,0,1.9-0.4,2.5-1.2l1.7,1.7c-0.9,1.1-2.3,1.8-4.2,1.8C584.9,308.4,582.8,306.1,582.8,302.3z M590.7,301.1
		c-0.1-1.8-1.2-2.6-2.5-2.6c-1.4,0-2.6,0.7-2.7,2.6H590.7z"/>
	<path class="st4" d="M605,308l-4.4-11.5h2.7l2.7,7.2c0.2,0.4,0.3,0.7,0.3,1.1c0.1-0.4,0.2-0.7,0.3-1.1l2.8-7.2h2.7l-6.2,16.2h-2.8
		L605,308z"/>
	<path class="st4" d="M613.7,302.3c0-3.8,2.1-6.1,5.4-6.1c3.3,0,5.4,2.3,5.4,6.1c0,3.9-2.1,6.1-5.4,6.1
		C615.8,308.4,613.7,306.2,613.7,302.3z M621.8,302.3c0-2.2-1-3.6-2.7-3.6c-1.6,0-2.7,1.4-2.7,3.6c0,2.2,1.1,3.6,2.7,3.6
		C620.8,305.9,621.8,304.5,621.8,302.3z"/>
	<path class="st4" d="M634.5,307c-0.7,0.9-1.8,1.4-3.1,1.4c-2.2,0-4.2-1.2-4.2-4.8v-7.2h2.7v6.7c0,1.9,0.8,2.7,2.2,2.7
		c1.4,0,2.4-0.7,2.4-2.7v-6.7h2.7v11.7h-2.7V307z"/>
	<path class="st4" d="M645.7,302.3c0-3.8,2-6.1,5.2-6.1c2.3,0,3.9,1,4.7,3.2l-2.5,0.8c-0.3-0.9-1.1-1.5-2-1.5
		c-1.6,0-2.6,1.4-2.6,3.6c0,2.2,1,3.5,2.5,3.5c1.1,0,1.8-0.6,2.1-1.7l2.6,0.8c-0.7,2.3-2.3,3.5-4.7,3.5
		C647.7,308.4,645.7,306.2,645.7,302.3z"/>
	<path class="st4" d="M665,307.2c-0.6,0.6-1.6,1.2-3.1,1.2c-2.4,0-4.2-1.3-4.2-3.9c0-2.7,2.3-3.9,4.6-3.9c1.1,0,2,0.2,2.8,0.6v-0.6
		c0-1.5-0.8-2.1-2.3-2.1c-1.4,0-2.5,0.4-3.5,1.1l-0.8-2.2c1.1-0.7,2.6-1.3,4.6-1.3c2.1,0,4.6,0.5,4.6,4.4v7.5H665V307.2z M665,305
		v-1.5c-0.6-0.3-1.5-0.5-2.3-0.5c-1.3,0-2.4,0.5-2.4,1.6c0,0.9,0.7,1.5,2.1,1.5C663.5,306.1,664.4,305.6,665,305z"/>
	<path class="st4" d="M678,301.4c0-1.9-0.8-2.7-2.2-2.7c-1.4,0-2.4,0.8-2.4,2.7v6.8h-2.7v-11.7h2.7v1.1c0.8-0.9,1.8-1.4,3.1-1.4
		c2.2,0,4.2,1.2,4.2,4.8v7.2H678V301.4z"/>
	<path class="st4" d="M688.9,306.4l1.8-1.6c0.5,0.5,1.4,1.2,2.7,1.2c1.1,0,1.9-0.3,1.9-1.1c0-0.8-0.9-1.2-2.3-1.7
		c-2.5-0.8-3.9-1.8-3.9-3.8c0-2.1,1.9-3.3,4.2-3.3c2,0,3.4,0.9,4.2,1.8l-1.9,1.5c-0.6-0.6-1.3-1-2.3-1c-1,0-1.6,0.3-1.6,1
		c0,0.7,1.1,1.1,2.3,1.5c2.3,0.8,3.9,1.7,3.9,3.9c0,2.3-1.8,3.5-4.5,3.5C691.5,308.4,689.7,307.7,688.9,306.4z"/>
	<path class="st4" d="M701.4,305.4v-6.7h-1.7v-2.3h1.7v-3.6l2.7-1.3v4.8h2.7v2.3h-2.7v6.1c0,0.7,0.3,1.1,1,1.1
		c0.6,0,1.2-0.2,1.8-0.5l-0.3,2.4c-0.7,0.3-1.5,0.5-2.5,0.5C702.2,308.4,701.4,307.3,701.4,305.4z"/>
	<path class="st4" d="M708.8,302.3c0-3.8,2.1-6.1,5.4-6.1c3.3,0,5.4,2.3,5.4,6.1c0,3.9-2.1,6.1-5.4,6.1
		C710.9,308.4,708.8,306.2,708.8,302.3z M716.8,302.3c0-2.2-1-3.6-2.7-3.6c-1.6,0-2.7,1.4-2.7,3.6c0,2.2,1.1,3.6,2.7,3.6
		C715.8,305.9,716.8,304.5,716.8,302.3z"/>
	<path class="st4" d="M725.1,307.2v4.3l-2.7,1.2v-16.3h2.7v0.9c0.6-0.7,1.4-1.2,2.7-1.2c2.9,0,4.8,2.2,4.8,6.1c0,3.9-2,6.1-4.8,6.1
		C726.5,308.4,725.6,307.9,725.1,307.2z M729.9,302.3c0-2.1-0.9-3.6-2.5-3.6c-1.1,0-1.8,0.4-2.3,1.1v4.9c0.4,0.6,1.2,1.1,2.3,1.1
		C729,305.9,729.9,304.6,729.9,302.3z"/>
	<path class="st4" d="M302.7,333v-6.7H301V324h1.7v-3.6l2.7-1.3v4.8h2.7v2.3h-2.7v6.1c0,0.7,0.3,1.1,1,1.1c0.6,0,1.2-0.2,1.8-0.5
		l-0.3,2.4c-0.7,0.3-1.5,0.5-2.5,0.5C303.5,336,302.7,334.8,302.7,333z"/>
	<path class="st4" d="M310.9,320.4l2.7-1.2v5.9c0.8-0.9,1.8-1.4,3.1-1.4c2.2,0,4.2,1.2,4.2,4.8v7.2h-2.7v-6.8c0-1.9-0.8-2.7-2.2-2.7
		c-1.4,0-2.4,0.7-2.4,2.6v6.8h-2.7V320.4z"/>
	<path class="st4" d="M323.5,329.8c0-3.8,2.1-6.1,5.4-6.1c2.8,0,5.1,1.7,5.1,5.5c0,0.5,0,1.1-0.1,1.7h-7.8c0.1,1.7,1.4,2.8,2.8,2.8
		c1,0,1.9-0.4,2.5-1.2l1.7,1.7c-0.9,1.1-2.3,1.8-4.2,1.8C325.6,336,323.5,333.7,323.5,329.8z M331.4,328.6c-0.1-1.8-1.2-2.6-2.5-2.6
		c-1.4,0-2.6,0.7-2.7,2.6H331.4z"/>
	<path class="st4" d="M350.6,329c0-1.8-0.6-2.7-2-2.7c-1.4,0-2.2,0.9-2.2,2.8v6.7h-2.7V329c0-1.8-0.6-2.7-2-2.7
		c-1.3,0-2.2,0.9-2.2,2.8v6.7h-2.7V324h2.7v1.1c0.7-0.9,1.7-1.4,2.9-1.4c1.4,0,2.5,0.5,3.1,1.7c0.8-1.1,2-1.7,3.5-1.7
		c2.4,0,4.3,1.2,4.3,4.5v7.5h-2.7V329z"/>
	<path class="st4" d="M357.2,335.9c-0.8-0.2-1.4-0.8-1.4-1.7c0-1.1,0.9-1.8,1.8-1.8c1,0,1.9,0.7,1.9,2.2c0,1.8-1.2,3.5-2.6,4.4
		l-1.1-0.8C356.2,337.8,357,336.8,357.2,335.9z"/>
	<path class="st4" d="M368.3,333v-6.7h-1.7V324h1.7v-3.6l2.7-1.3v4.8h2.7v2.3H371v6.1c0,0.7,0.3,1.1,1,1.1c0.6,0,1.2-0.2,1.8-0.5
		l-0.3,2.4c-0.7,0.3-1.5,0.5-2.5,0.5C369.1,336,368.3,334.8,368.3,333z"/>
	<path class="st4" d="M376.5,320.4l2.7-1.2v5.9c0.8-0.9,1.8-1.4,3.1-1.4c2.2,0,4.2,1.2,4.2,4.8v7.2h-2.7v-6.8c0-1.9-0.8-2.7-2.2-2.7
		c-1.4,0-2.4,0.7-2.4,2.6v6.8h-2.7V320.4z"/>
	<path class="st4" d="M389.1,329.8c0-3.8,2.1-6.1,5.4-6.1c2.8,0,5.1,1.7,5.1,5.5c0,0.5,0,1.1-0.1,1.7h-7.8c0.1,1.7,1.4,2.8,2.8,2.8
		c1,0,1.9-0.4,2.5-1.2l1.7,1.7c-0.9,1.1-2.3,1.8-4.2,1.8C391.2,336,389.1,333.7,389.1,329.8z M397,328.6c-0.1-1.8-1.2-2.6-2.5-2.6
		c-1.4,0-2.6,0.7-2.7,2.6H397z"/>
	<path class="st4" d="M408,324h2.7v1.2c0.5-1,1.2-1.5,2.4-1.5c0.9,0,1.6,0.3,2.2,0.8l-0.4,2.5c-0.5-0.3-1.1-0.6-2-0.6
		c-1,0-2.2,0.6-2.2,2.8v6.6H408V324z"/>
	<path class="st4" d="M416.6,329.8c0-3.8,2.1-6.1,5.4-6.1c3.3,0,5.4,2.3,5.4,6.1c0,3.9-2.1,6.1-5.4,6.1
		C418.7,336,416.6,333.7,416.6,329.8z M424.7,329.8c0-2.2-1-3.6-2.7-3.6c-1.6,0-2.7,1.4-2.7,3.6c0,2.2,1.1,3.6,2.7,3.6
		C423.7,333.4,424.7,332.1,424.7,329.8z"/>
	<path class="st4" d="M433,334.8v0.9h-2.7v-15.3l2.7-1.2v5.7c0.6-0.7,1.4-1.1,2.6-1.1c2.8,0,4.9,2.3,4.9,6.1c0,4-1.9,6.1-4.9,6.1
		C434.3,336,433.5,335.5,433,334.8z M437.8,329.8c0-2.3-0.9-3.6-2.5-3.6c-1.1,0-1.9,0.6-2.3,1.1v4.9c0.5,0.7,1.2,1.1,2.3,1.1
		C436.9,333.4,437.8,332,437.8,329.8z"/>
	<path class="st4" d="M442.7,329.8c0-3.8,2.1-6.1,5.4-6.1c3.3,0,5.4,2.3,5.4,6.1c0,3.9-2.1,6.1-5.4,6.1
		C444.8,336,442.7,333.7,442.7,329.8z M450.8,329.8c0-2.2-1-3.6-2.7-3.6c-1.6,0-2.7,1.4-2.7,3.6c0,2.2,1.1,3.6,2.7,3.6
		C449.8,333.4,450.8,332.1,450.8,329.8z"/>
	<path class="st4" d="M457,333v-6.7h-1.7V324h1.7v-3.6l2.7-1.3v4.8h2.7v2.3h-2.7v6.1c0,0.7,0.3,1.1,1,1.1c0.6,0,1.2-0.2,1.8-0.5
		l-0.3,2.4c-0.7,0.3-1.5,0.5-2.5,0.5C457.8,336,457,334.8,457,333z"/>
	<path class="st4" d="M464.3,333.9l1.8-1.6c0.5,0.5,1.4,1.2,2.7,1.2c1.1,0,1.9-0.3,1.9-1.1c0-0.8-0.9-1.2-2.3-1.7
		c-2.5-0.8-3.9-1.8-3.9-3.8c0-2.1,1.9-3.3,4.2-3.3c2,0,3.4,0.9,4.2,1.8l-1.9,1.5c-0.6-0.6-1.3-1-2.3-1c-1,0-1.6,0.3-1.6,1
		c0,0.7,1.1,1.1,2.3,1.5c2.3,0.8,3.9,1.7,3.9,3.9c0,2.3-1.8,3.5-4.5,3.5C467,336,465.2,335.2,464.3,333.9z"/>
	<path class="st4" d="M481.3,329.8c0-3.8,2-6.1,5.2-6.1c2.3,0,3.9,1,4.7,3.2l-2.5,0.8c-0.3-0.9-1.1-1.5-2-1.5
		c-1.6,0-2.6,1.4-2.6,3.6s1,3.5,2.5,3.5c1.1,0,1.8-0.6,2.1-1.7l2.6,0.8c-0.7,2.3-2.3,3.5-4.7,3.5C483.3,336,481.3,333.7,481.3,329.8
		z"/>
	<path class="st4" d="M494.2,320.4l2.7-1.3v16.6h-2.7V320.4z"/>
	<path class="st4" d="M499.8,329.8c0-3.8,2.1-6.1,5.4-6.1c3.3,0,5.4,2.3,5.4,6.1c0,3.9-2.1,6.1-5.4,6.1
		C501.9,336,499.8,333.7,499.8,329.8z M507.9,329.8c0-2.2-1-3.6-2.7-3.6c-1.6,0-2.7,1.4-2.7,3.6c0,2.2,1.1,3.6,2.7,3.6
		C506.9,333.4,507.9,332.1,507.9,329.8z"/>
	<path class="st4" d="M512.6,333.9l1.8-1.6c0.5,0.5,1.4,1.2,2.7,1.2c1.1,0,1.9-0.3,1.9-1.1c0-0.8-0.9-1.2-2.3-1.7
		c-2.5-0.8-3.9-1.8-3.9-3.8c0-2.1,1.9-3.3,4.2-3.3c2,0,3.4,0.9,4.2,1.8l-1.9,1.5c-0.6-0.6-1.3-1-2.3-1c-1,0-1.6,0.3-1.6,1
		c0,0.7,1.1,1.1,2.3,1.5c2.3,0.8,3.9,1.7,3.9,3.9c0,2.3-1.8,3.5-4.5,3.5C515.3,336,513.5,335.2,512.6,333.9z"/>
	<path class="st4" d="M523.9,329.8c0-3.8,2.1-6.1,5.4-6.1c2.8,0,5.1,1.7,5.1,5.5c0,0.5,0,1.1-0.1,1.7h-7.8c0.1,1.7,1.4,2.8,2.8,2.8
		c1,0,1.9-0.4,2.5-1.2l1.7,1.7c-0.9,1.1-2.3,1.8-4.2,1.8C526,336,523.9,333.7,523.9,329.8z M531.7,328.6c-0.1-1.8-1.2-2.6-2.5-2.6
		c-1.4,0-2.6,0.7-2.7,2.6H531.7z"/>
	<path class="st4" d="M543.5,333v-6.7h-1.7V324h1.7v-3.6l2.7-1.3v4.8h2.7v2.3h-2.7v6.1c0,0.7,0.3,1.1,1,1.1c0.6,0,1.2-0.2,1.8-0.5
		l-0.3,2.4c-0.7,0.3-1.5,0.5-2.5,0.5C544.3,336,543.5,334.8,543.5,333z"/>
	<path class="st4" d="M551.6,320.4l2.7-1.2v5.9c0.8-0.9,1.8-1.4,3.1-1.4c2.2,0,4.2,1.2,4.2,4.8v7.2h-2.7v-6.8c0-1.9-0.8-2.7-2.2-2.7
		c-1.4,0-2.4,0.7-2.4,2.6v6.8h-2.7V320.4z"/>
	<path class="st4" d="M564.3,329.8c0-3.8,2.1-6.1,5.4-6.1c2.8,0,5.1,1.7,5.1,5.5c0,0.5,0,1.1-0.1,1.7H567c0.1,1.7,1.4,2.8,2.8,2.8
		c1,0,1.9-0.4,2.5-1.2l1.7,1.7c-0.9,1.1-2.3,1.8-4.2,1.8C566.4,336,564.3,333.7,564.3,329.8z M572.2,328.6c-0.1-1.8-1.2-2.6-2.5-2.6
		c-1.4,0-2.6,0.7-2.7,2.6H572.2z"/>
	<path class="st4" d="M577.4,320.8c0-0.9,0.7-1.6,1.6-1.6c0.9,0,1.6,0.7,1.6,1.6c0,0.9-0.7,1.6-1.6,1.6
		C578.1,322.4,577.4,321.7,577.4,320.8z M577.6,324h2.7v11.7h-2.7V324z"/>
	<path class="st4" d="M583.8,324h2.7v1.2c0.5-1,1.2-1.5,2.4-1.5c0.9,0,1.6,0.3,2.2,0.8l-0.4,2.5c-0.5-0.3-1.1-0.6-2-0.6
		c-1,0-2.2,0.6-2.2,2.8v6.6h-2.7V324z"/>
	<path class="st4" d="M598.7,320.4l2.7-1.2v5.9c0.8-0.9,1.8-1.4,3.1-1.4c2.2,0,4.2,1.2,4.2,4.8v7.2H606v-6.8c0-1.9-0.8-2.7-2.2-2.7
		c-1.4,0-2.4,0.7-2.4,2.6v6.8h-2.7V320.4z"/>
	<path class="st4" d="M618.7,334.8c-0.6,0.6-1.6,1.2-3.1,1.2c-2.4,0-4.2-1.3-4.2-3.9c0-2.7,2.3-3.9,4.6-3.9c1.1,0,2,0.2,2.8,0.6
		v-0.6c0-1.5-0.8-2.1-2.3-2.1c-1.4,0-2.5,0.4-3.5,1.1l-0.8-2.2c1.1-0.7,2.6-1.3,4.6-1.3c2.1,0,4.6,0.5,4.6,4.4v7.5h-2.6V334.8z
		 M618.7,332.5V331c-0.6-0.3-1.5-0.5-2.3-0.5c-1.3,0-2.4,0.5-2.4,1.6c0,0.9,0.7,1.5,2.1,1.5C617.2,333.6,618.1,333.1,618.7,332.5z"
		/>
	<path class="st4" d="M625.2,333v-6.7h-1.7V324h1.7v-3.6l2.7-1.3v4.8h2.7v2.3h-2.7v6.1c0,0.7,0.3,1.1,1,1.1c0.6,0,1.2-0.2,1.8-0.5
		l-0.3,2.4c-0.7,0.3-1.5,0.5-2.5,0.5C626,336,625.2,334.8,625.2,333z"/>
	<path class="st4" d="M632.6,329.8c0-3.8,2-6.1,5.2-6.1c2.3,0,3.9,1,4.7,3.2l-2.5,0.8c-0.3-0.9-1.1-1.5-2-1.5
		c-1.6,0-2.6,1.4-2.6,3.6s1,3.5,2.5,3.5c1.1,0,1.8-0.6,2.1-1.7l2.6,0.8c-0.7,2.3-2.3,3.5-4.7,3.5C634.6,336,632.6,333.7,632.6,329.8
		z"/>
	<path class="st4" d="M645.4,320.4l2.7-1.2v5.9c0.8-0.9,1.8-1.4,3.1-1.4c2.2,0,4.2,1.2,4.2,4.8v7.2h-2.7v-6.8c0-1.9-0.8-2.7-2.2-2.7
		c-1.4,0-2.4,0.7-2.4,2.6v6.8h-2.7V320.4z"/>
	<path class="st4" d="M658.1,329.8c0-3.8,2.1-6.1,5.4-6.1c2.8,0,5.1,1.7,5.1,5.5c0,0.5,0,1.1-0.1,1.7h-7.8c0.1,1.7,1.4,2.8,2.8,2.8
		c1,0,1.9-0.4,2.5-1.2l1.7,1.7c-0.9,1.1-2.3,1.8-4.2,1.8C660.2,336,658.1,333.7,658.1,329.8z M665.9,328.6c-0.1-1.8-1.2-2.6-2.5-2.6
		c-1.4,0-2.6,0.7-2.7,2.6H665.9z"/>
	<path class="st4" d="M670.5,333.9l1.8-1.6c0.5,0.5,1.4,1.2,2.7,1.2c1.1,0,1.9-0.3,1.9-1.1c0-0.8-0.9-1.2-2.3-1.7
		c-2.5-0.8-3.9-1.8-3.9-3.8c0-2.1,1.9-3.3,4.2-3.3c2,0,3.4,0.9,4.2,1.8l-1.9,1.5c-0.6-0.6-1.3-1-2.3-1c-1,0-1.6,0.3-1.6,1
		c0,0.7,1.1,1.1,2.3,1.5c2.3,0.8,3.9,1.7,3.9,3.9c0,2.3-1.8,3.5-4.5,3.5C673.2,336,671.4,335.2,670.5,333.9z"/>
	<path class="st4" d="M694.7,334.8c-0.6,0.6-1.6,1.2-3.1,1.2c-2.4,0-4.2-1.3-4.2-3.9c0-2.7,2.3-3.9,4.6-3.9c1.1,0,2,0.2,2.8,0.6
		v-0.6c0-1.5-0.8-2.1-2.3-2.1c-1.4,0-2.5,0.4-3.5,1.1l-0.8-2.2c1.1-0.7,2.6-1.3,4.6-1.3c2.1,0,4.6,0.5,4.6,4.4v7.5h-2.6V334.8z
		 M694.7,332.5V331c-0.6-0.3-1.5-0.5-2.3-0.5c-1.3,0-2.4,0.5-2.4,1.6c0,0.9,0.7,1.5,2.1,1.5C693.2,333.6,694.1,333.1,694.7,332.5z"
		/>
	<path class="st4" d="M707.8,329c0-1.9-0.8-2.7-2.2-2.7c-1.4,0-2.4,0.8-2.4,2.7v6.8h-2.7V324h2.7v1.1c0.8-0.9,1.8-1.4,3.1-1.4
		c2.2,0,4.2,1.2,4.2,4.8v7.2h-2.7V329z"/>
	<path class="st4" d="M713.2,329.8c0-3.8,2-6.1,4.9-6.1c1.2,0,2.1,0.5,2.6,1.1v-4.4l2.7-1.2v16.6h-2.7v-0.8
		c-0.6,0.7-1.4,1.1-2.6,1.1C715.1,336,713.2,333.7,713.2,329.8z M720.7,332.3v-4.9c-0.3-0.5-1.1-1.1-2.2-1.1c-1.7,0-2.6,1.3-2.6,3.6
		c0,2.1,0.9,3.6,2.6,3.6C719.5,333.4,720.2,333,720.7,332.3z"/>
	<path class="st4" d="M304.7,362.3v0.9H302v-15.3l2.7-1.2v5.7c0.6-0.7,1.4-1.1,2.6-1.1c2.8,0,4.9,2.3,4.9,6.1c0,4-1.9,6.1-4.9,6.1
		C306,363.5,305.3,363,304.7,362.3z M309.5,357.3c0-2.3-0.9-3.6-2.5-3.6c-1.1,0-1.9,0.6-2.3,1.1v4.9c0.5,0.7,1.2,1.1,2.3,1.1
		C308.6,360.9,309.5,359.5,309.5,357.3z"/>
	<path class="st4" d="M314.5,357.3c0-3.8,2.1-6.1,5.4-6.1c2.8,0,5.1,1.7,5.1,5.5c0,0.5,0,1.1-0.1,1.7h-7.8c0.1,1.7,1.4,2.8,2.8,2.8
		c1,0,1.9-0.4,2.5-1.2l1.7,1.7c-0.9,1.1-2.3,1.8-4.2,1.8C316.6,363.5,314.5,361.2,314.5,357.3z M322.4,356.2
		c-0.1-1.8-1.2-2.6-2.5-2.6c-1.4,0-2.6,0.7-2.7,2.6H322.4z"/>
	<path class="st4" d="M330.4,365.6c3.3-0.2,4.3-1,4.3-2.5v-0.7c-0.7,0.8-1.6,1.1-2.7,1.1c-2.8,0-4.8-2.1-4.8-6.1
		c0-3.8,2-6.1,4.9-6.1c1.2,0,2.1,0.4,2.6,1v-0.7h2.7V362c0,3.9-1.5,5.5-5.5,5.8L330.4,365.6z M334.7,359.8v-4.9
		c-0.4-0.6-1.2-1.1-2.2-1.1c-1.7,0-2.6,1.3-2.6,3.6c0,2.2,0.9,3.6,2.6,3.6C333.5,360.9,334.2,360.5,334.7,359.8z"/>
	<path class="st4" d="M340.6,348.3c0-0.9,0.7-1.6,1.6-1.6s1.6,0.7,1.6,1.6c0,0.9-0.7,1.6-1.6,1.6S340.6,349.2,340.6,348.3z
		 M340.8,351.5h2.7v11.7h-2.7V351.5z"/>
	<path class="st4" d="M354.2,356.5c0-1.9-0.8-2.7-2.2-2.7c-1.4,0-2.4,0.8-2.4,2.7v6.8H347v-11.7h2.7v1.1c0.8-0.9,1.8-1.4,3.1-1.4
		c2.2,0,4.2,1.2,4.2,4.8v7.2h-2.7V356.5z"/>
	<path class="st4" d="M379.6,356.5c0-1.8-0.6-2.7-2-2.7c-1.4,0-2.2,0.9-2.2,2.8v6.7h-2.7v-6.7c0-1.8-0.6-2.7-2-2.7
		c-1.3,0-2.2,0.9-2.2,2.8v6.7h-2.7v-11.7h2.7v1.1c0.7-0.9,1.7-1.4,2.9-1.4c1.4,0,2.5,0.5,3.1,1.7c0.8-1.1,2-1.7,3.5-1.7
		c2.4,0,4.3,1.2,4.3,4.5v7.5h-2.7V356.5z"/>
	<path class="st4" d="M385.1,357.4c0-3.8,2.1-6.1,5.4-6.1c3.3,0,5.4,2.3,5.4,6.1c0,3.9-2.1,6.1-5.4,6.1
		C387.2,363.5,385.1,361.2,385.1,357.4z M393.1,357.4c0-2.2-1-3.6-2.7-3.6c-1.6,0-2.7,1.4-2.7,3.6s1.1,3.6,2.7,3.6
		C392.1,360.9,393.1,359.6,393.1,357.4z"/>
	<path class="st4" d="M397.4,351.5h2.7l2.6,7.3c0.1,0.4,0.2,0.7,0.3,1.1c0.1-0.4,0.2-0.7,0.3-1.1l2.5-7.3h2.7l-4.3,11.7h-2.7
		L397.4,351.5z"/>
	<path class="st4" d="M410.7,348.3c0-0.9,0.7-1.6,1.6-1.6s1.6,0.7,1.6,1.6c0,0.9-0.7,1.6-1.6,1.6S410.7,349.2,410.7,348.3z
		 M411,351.5h2.7v11.7H411V351.5z"/>
	<path class="st4" d="M424.4,356.5c0-1.9-0.8-2.7-2.2-2.7c-1.4,0-2.4,0.8-2.4,2.7v6.8h-2.7v-11.7h2.7v1.1c0.8-0.9,1.8-1.4,3.1-1.4
		c2.2,0,4.2,1.2,4.2,4.8v7.2h-2.7V356.5z"/>
	<path class="st4" d="M433,365.6c3.3-0.2,4.3-1,4.3-2.5v-0.7c-0.7,0.8-1.6,1.1-2.7,1.1c-2.8,0-4.8-2.1-4.8-6.1c0-3.8,2-6.1,4.9-6.1
		c1.2,0,2.1,0.4,2.6,1v-0.7h2.7V362c0,3.9-1.5,5.5-5.5,5.8L433,365.6z M437.3,359.8v-4.9c-0.4-0.6-1.2-1.1-2.2-1.1
		c-1.7,0-2.6,1.3-2.6,3.6c0,2.2,0.9,3.6,2.6,3.6C436.1,360.9,436.8,360.5,437.3,359.8z"/>
	<path class="st4" d="M455.7,362.3c-0.6,0.6-1.6,1.2-3.1,1.2c-2.4,0-4.2-1.3-4.2-3.9c0-2.7,2.3-3.9,4.6-3.9c1.1,0,2,0.2,2.8,0.6
		v-0.6c0-1.5-0.8-2.1-2.3-2.1c-1.4,0-2.5,0.4-3.5,1.1l-0.8-2.2c1.1-0.7,2.6-1.3,4.6-1.3c2.1,0,4.6,0.5,4.6,4.4v7.5h-2.6V362.3z
		 M455.7,360v-1.5c-0.6-0.3-1.5-0.5-2.3-0.5c-1.3,0-2.4,0.5-2.4,1.6c0,0.9,0.7,1.5,2.1,1.5C454.3,361.1,455.1,360.6,455.7,360z"/>
	<path class="st4" d="M461.6,351.5h2.7v1.2c0.5-1,1.2-1.5,2.4-1.5c0.9,0,1.6,0.3,2.2,0.8l-0.4,2.5c-0.5-0.3-1.1-0.6-2-0.6
		c-1,0-2.2,0.6-2.2,2.8v6.6h-2.7V351.5z"/>
	<path class="st4" d="M470.2,357.4c0-3.8,2.1-6.1,5.4-6.1c3.3,0,5.4,2.3,5.4,6.1c0,3.9-2.1,6.1-5.4,6.1
		C472.2,363.5,470.2,361.2,470.2,357.4z M478.2,357.4c0-2.2-1-3.6-2.7-3.6c-1.6,0-2.7,1.4-2.7,3.6s1.1,3.6,2.7,3.6
		C477.2,360.9,478.2,359.6,478.2,357.4z"/>
	<path class="st4" d="M490.9,362.1c-0.7,0.9-1.8,1.4-3.1,1.4c-2.2,0-4.2-1.2-4.2-4.8v-7.2h2.7v6.7c0,1.9,0.8,2.7,2.2,2.7
		c1.4,0,2.4-0.7,2.4-2.7v-6.7h2.7v11.7h-2.7V362.1z"/>
	<path class="st4" d="M504.3,356.5c0-1.9-0.8-2.7-2.2-2.7c-1.4,0-2.4,0.8-2.4,2.7v6.8H497v-11.7h2.7v1.1c0.8-0.9,1.8-1.4,3.1-1.4
		c2.2,0,4.2,1.2,4.2,4.8v7.2h-2.7V356.5z"/>
	<path class="st4" d="M509.7,357.3c0-3.8,2-6.1,4.9-6.1c1.2,0,2.1,0.5,2.6,1.1v-4.4l2.7-1.2v16.6h-2.7v-0.8
		c-0.6,0.7-1.4,1.1-2.6,1.1C511.6,363.5,509.7,361.2,509.7,357.3z M517.2,359.8v-4.9c-0.3-0.5-1.1-1.1-2.2-1.1
		c-1.7,0-2.6,1.3-2.6,3.6c0,2.1,0.9,3.6,2.6,3.6C516,360.9,516.7,360.5,517.2,359.8z"/>
	<path class="st4" d="M529.7,360.5v-6.7h-1.7v-2.3h1.7v-3.6l2.7-1.3v4.8h2.7v2.3h-2.7v6.1c0,0.7,0.3,1.1,1,1.1
		c0.6,0,1.2-0.2,1.8-0.5l-0.3,2.4c-0.7,0.3-1.5,0.5-2.5,0.5C530.5,363.5,529.7,362.3,529.7,360.5z"/>
	<path class="st4" d="M537.8,347.9l2.7-1.2v5.9c0.8-0.9,1.8-1.4,3.1-1.4c2.2,0,4.2,1.2,4.2,4.8v7.2h-2.7v-6.8c0-1.9-0.8-2.7-2.2-2.7
		c-1.4,0-2.4,0.7-2.4,2.6v6.8h-2.7V347.9z"/>
	<path class="st4" d="M550.5,357.3c0-3.8,2.1-6.1,5.4-6.1c2.8,0,5.1,1.7,5.1,5.5c0,0.5,0,1.1-0.1,1.7h-7.8c0.1,1.7,1.4,2.8,2.8,2.8
		c1,0,1.9-0.4,2.5-1.2l1.7,1.7c-0.9,1.1-2.3,1.8-4.2,1.8C552.6,363.5,550.5,361.2,550.5,357.3z M558.4,356.2
		c-0.1-1.8-1.2-2.6-2.5-2.6c-1.4,0-2.6,0.7-2.7,2.6H558.4z"/>
	<path class="st4" d="M572.9,363.2h-2.7v-9.4h-1.7v-2.3h1.7v-1.8c0-2.2,1.4-2.8,2.8-2.8c0.9,0,1.7,0.2,2.5,0.6v2.2
		c-0.8-0.3-1.3-0.4-1.7-0.4c-0.6,0-0.9,0.3-0.9,0.9v1.3h2.6v2.3h-2.6V363.2z"/>
	<path class="st4" d="M584.1,362.3c-0.6,0.6-1.6,1.2-3.1,1.2c-2.4,0-4.2-1.3-4.2-3.9c0-2.7,2.3-3.9,4.6-3.9c1.1,0,2,0.2,2.8,0.6
		v-0.6c0-1.5-0.8-2.1-2.3-2.1c-1.4,0-2.5,0.4-3.5,1.1l-0.8-2.2c1.1-0.7,2.6-1.3,4.6-1.3c2.1,0,4.6,0.5,4.6,4.4v7.5h-2.6V362.3z
		 M584.1,360v-1.5c-0.6-0.3-1.5-0.5-2.3-0.5c-1.3,0-2.4,0.5-2.4,1.6c0,0.9,0.7,1.5,2.1,1.5C582.6,361.1,583.5,360.6,584.1,360z"/>
	<path class="st4" d="M589.3,357.4c0-3.8,2-6.1,5.2-6.1c2.3,0,3.9,1,4.7,3.2l-2.5,0.8c-0.3-0.9-1.1-1.5-2-1.5
		c-1.6,0-2.6,1.4-2.6,3.6c0,2.2,1,3.5,2.5,3.5c1.1,0,1.8-0.6,2.1-1.7l2.6,0.8c-0.7,2.3-2.3,3.5-4.7,3.5
		C591.4,363.5,589.3,361.2,589.3,357.4z"/>
	<path class="st4" d="M602.6,360.5v-6.7h-1.7v-2.3h1.7v-3.6l2.7-1.3v4.8h2.7v2.3h-2.7v6.1c0,0.7,0.3,1.1,1,1.1
		c0.6,0,1.2-0.2,1.8-0.5l-0.3,2.4c-0.7,0.3-1.5,0.5-2.5,0.5C603.4,363.5,602.6,362.3,602.6,360.5z"/>
	<path class="st4" d="M610,357.4c0-3.8,2.1-6.1,5.4-6.1c3.3,0,5.4,2.3,5.4,6.1c0,3.9-2.1,6.1-5.4,6.1
		C612.1,363.5,610,361.2,610,357.4z M618.1,357.4c0-2.2-1-3.6-2.7-3.6c-1.6,0-2.7,1.4-2.7,3.6s1.1,3.6,2.7,3.6
		C617.1,360.9,618.1,359.6,618.1,357.4z"/>
	<path class="st4" d="M623.6,351.5h2.7v1.2c0.5-1,1.2-1.5,2.4-1.5c0.9,0,1.6,0.3,2.2,0.8l-0.4,2.5c-0.5-0.3-1.1-0.6-2-0.6
		c-1,0-2.2,0.6-2.2,2.8v6.6h-2.7V351.5z"/>
	<path class="st4" d="M636.3,363l-4.4-11.5h2.7l2.7,7.2c0.2,0.4,0.3,0.7,0.3,1.1c0.1-0.4,0.2-0.7,0.3-1.1l2.8-7.2h2.7l-6.2,16.2
		h-2.8L636.3,363z"/>
	<path class="st4" d="M654.9,363.2h-2.7v-9.4h-1.7v-2.3h1.7v-1.8c0-2.2,1.4-2.8,2.8-2.8c0.9,0,1.7,0.2,2.5,0.6v2.2
		c-0.8-0.3-1.3-0.4-1.7-0.4c-0.6,0-0.9,0.3-0.9,0.9v1.3h2.6v2.3h-2.6V363.2z M659.5,347.9l2.7-1.3v16.6h-2.7V347.9z"/>
	<path class="st4" d="M665.2,357.4c0-3.8,2.1-6.1,5.4-6.1c3.3,0,5.4,2.3,5.4,6.1c0,3.9-2.1,6.1-5.4,6.1
		C667.2,363.5,665.2,361.2,665.2,357.4z M673.2,357.4c0-2.2-1-3.6-2.7-3.6c-1.6,0-2.7,1.4-2.7,3.6s1.1,3.6,2.7,3.6
		C672.2,360.9,673.2,359.6,673.2,357.4z"/>
	<path class="st4" d="M678.2,357.4c0-3.8,2.1-6.1,5.4-6.1c3.3,0,5.4,2.3,5.4,6.1c0,3.9-2.1,6.1-5.4,6.1
		C680.3,363.5,678.2,361.2,678.2,357.4z M686.3,357.4c0-2.2-1-3.6-2.7-3.6c-1.6,0-2.7,1.4-2.7,3.6s1.1,3.6,2.7,3.6
		C685.3,360.9,686.3,359.6,686.3,357.4z"/>
	<path class="st4" d="M691.8,351.5h2.7v1.2c0.5-1,1.2-1.5,2.4-1.5c0.9,0,1.6,0.3,2.2,0.8l-0.4,2.5c-0.5-0.3-1.1-0.6-2-0.6
		c-1,0-2.2,0.6-2.2,2.8v6.6h-2.7V351.5z"/>
	<path class="st4" d="M700.3,361.7c0-1,0.8-1.8,1.8-1.8c1,0,1.8,0.8,1.8,1.8c0,1-0.8,1.8-1.8,1.8
		C701.1,363.5,700.3,362.7,700.3,361.7z"/>
	<path class="st4" d="M302.2,374.7h10.5v2.6H305v3.9h4.7v2.6H305v4.4h8.2v2.6h-11V374.7z"/>
	<path class="st4" d="M314.6,379h2.7l2.6,7.3c0.1,0.4,0.2,0.7,0.3,1.1c0.1-0.4,0.2-0.7,0.3-1.1l2.5-7.3h2.7l-4.3,11.7h-2.7
		L314.6,379z"/>
	<path class="st4" d="M327.4,384.9c0-3.8,2.1-6.1,5.4-6.1c2.8,0,5.1,1.7,5.1,5.5c0,0.5,0,1.1-0.1,1.7h-7.8c0.1,1.7,1.4,2.8,2.8,2.8
		c1,0,1.9-0.4,2.5-1.2l1.7,1.7c-0.9,1.1-2.3,1.8-4.2,1.8C329.5,391,327.4,388.7,327.4,384.9z M335.3,383.7c-0.1-1.8-1.2-2.6-2.5-2.6
		c-1.4,0-2.6,0.7-2.7,2.6H335.3z"/>
	<path class="st4" d="M340.7,379h2.7v1.2c0.5-1,1.2-1.5,2.4-1.5c0.9,0,1.6,0.3,2.2,0.8l-0.4,2.5c-0.5-0.3-1.1-0.6-2-0.6
		c-1,0-2.2,0.6-2.2,2.8v6.6h-2.7V379z"/>
	<path class="st4" d="M353.4,390.6L349,379h2.7l2.7,7.2c0.2,0.4,0.3,0.7,0.3,1.1c0.1-0.4,0.2-0.7,0.3-1.1l2.8-7.2h2.7l-6.2,16.2
		h-2.8L353.4,390.6z"/>
	<path class="st4" d="M368.5,379h2.7v1.2c0.5-1,1.2-1.5,2.4-1.5c0.9,0,1.6,0.3,2.2,0.8l-0.4,2.5c-0.5-0.3-1.1-0.6-2-0.6
		c-1,0-2.2,0.6-2.2,2.8v6.6h-2.7V379z"/>
	<path class="st4" d="M377.1,384.9c0-3.8,2.1-6.1,5.4-6.1c3.3,0,5.4,2.3,5.4,6.1c0,3.9-2.1,6.1-5.4,6.1
		C379.1,391,377.1,388.7,377.1,384.9z M385.1,384.9c0-2.2-1-3.6-2.7-3.6c-1.6,0-2.7,1.4-2.7,3.6c0,2.2,1.1,3.6,2.7,3.6
		C384.1,388.4,385.1,387.1,385.1,384.9z"/>
	<path class="st4" d="M393.4,389.8v0.9h-2.7v-15.3l2.7-1.2v5.7c0.6-0.7,1.4-1.1,2.6-1.1c2.8,0,4.9,2.3,4.9,6.1c0,4-1.9,6.1-4.9,6.1
		C394.7,391,393.9,390.6,393.4,389.8z M398.2,384.9c0-2.3-0.9-3.6-2.5-3.6c-1.1,0-1.9,0.6-2.3,1.1v4.9c0.5,0.7,1.2,1.1,2.3,1.1
		C397.3,388.4,398.2,387.1,398.2,384.9z"/>
	<path class="st4" d="M403.2,384.9c0-3.8,2.1-6.1,5.4-6.1c3.3,0,5.4,2.3,5.4,6.1c0,3.9-2.1,6.1-5.4,6.1
		C405.2,391,403.2,388.7,403.2,384.9z M411.2,384.9c0-2.2-1-3.6-2.7-3.6c-1.6,0-2.7,1.4-2.7,3.6c0,2.2,1.1,3.6,2.7,3.6
		C410.2,388.4,411.2,387.1,411.2,384.9z"/>
	<path class="st4" d="M417.4,388v-6.7h-1.7V379h1.7v-3.6l2.7-1.3v4.8h2.7v2.3h-2.7v6.1c0,0.7,0.3,1.1,1,1.1c0.6,0,1.2-0.2,1.8-0.5
		l-0.3,2.4c-0.7,0.3-1.5,0.5-2.5,0.5C418.2,391,417.4,389.9,417.4,388z"/>
	<path class="st4" d="M431.3,375.4l2.7-1.3v16.6h-2.7V375.4z"/>
	<path class="st4" d="M437,384.9c0-3.8,2.1-6.1,5.4-6.1c3.3,0,5.4,2.3,5.4,6.1c0,3.9-2.1,6.1-5.4,6.1C439.1,391,437,388.7,437,384.9
		z M445,384.9c0-2.2-1-3.6-2.7-3.6c-1.6,0-2.7,1.4-2.7,3.6c0,2.2,1.1,3.6,2.7,3.6C444,388.4,445,387.1,445,384.9z"/>
	<path class="st4" d="M450,384.9c0-3.8,2.1-6.1,5.4-6.1c3.3,0,5.4,2.3,5.4,6.1c0,3.9-2.1,6.1-5.4,6.1C452.1,391,450,388.7,450,384.9
		z M458.1,384.9c0-2.2-1-3.6-2.7-3.6c-1.6,0-2.7,1.4-2.7,3.6c0,2.2,1.1,3.6,2.7,3.6C457.1,388.4,458.1,387.1,458.1,384.9z"/>
	<path class="st4" d="M471,390.7l-3.3-6.5l-1.3,1.3v5.2h-2.7v-15.3l2.7-1.3v8.2l3.3-3.4h3.3l-3.3,3.3l4.4,8.4H471z"/>
	<path class="st4" d="M475.5,389l1.8-1.6c0.5,0.5,1.4,1.2,2.7,1.2c1.1,0,1.9-0.3,1.9-1.1c0-0.8-0.9-1.2-2.3-1.7
		c-2.5-0.8-3.9-1.8-3.9-3.8c0-2.1,1.9-3.3,4.2-3.3c2,0,3.4,0.9,4.2,1.8l-1.9,1.5c-0.6-0.6-1.3-1-2.3-1c-1,0-1.6,0.3-1.6,1
		c0,0.7,1.1,1.1,2.3,1.5c2.3,0.8,3.9,1.7,3.9,3.9c0,2.3-1.8,3.5-4.5,3.5C478.1,391,476.3,390.2,475.5,389z"/>
	<path class="st4" d="M493.7,388v-6.7H492V379h1.7v-3.6l2.7-1.3v4.8h2.7v2.3h-2.7v6.1c0,0.7,0.3,1.1,1,1.1c0.6,0,1.2-0.2,1.8-0.5
		l-0.3,2.4c-0.7,0.3-1.5,0.5-2.5,0.5C494.5,391,493.7,389.9,493.7,388z"/>
	<path class="st4" d="M501.9,375.4l2.7-1.2v5.9c0.8-0.9,1.8-1.4,3.1-1.4c2.2,0,4.2,1.2,4.2,4.8v7.2h-2.7V384c0-1.9-0.8-2.7-2.2-2.7
		c-1.4,0-2.4,0.7-2.4,2.6v6.8h-2.7V375.4z"/>
	<path class="st4" d="M514.5,384.9c0-3.8,2.1-6.1,5.4-6.1c2.8,0,5.1,1.7,5.1,5.5c0,0.5,0,1.1-0.1,1.7h-7.8c0.1,1.7,1.4,2.8,2.8,2.8
		c1,0,1.9-0.4,2.5-1.2l1.7,1.7c-0.9,1.1-2.3,1.8-4.2,1.8C516.6,391,514.5,388.7,514.5,384.9z M522.4,383.7c-0.1-1.8-1.2-2.6-2.5-2.6
		c-1.4,0-2.6,0.7-2.7,2.6H522.4z"/>
	<path class="st4" d="M532.6,389l1.8-1.6c0.5,0.5,1.4,1.2,2.7,1.2c1.1,0,1.9-0.3,1.9-1.1c0-0.8-0.9-1.2-2.3-1.7
		c-2.5-0.8-3.9-1.8-3.9-3.8c0-2.1,1.9-3.3,4.2-3.3c2,0,3.4,0.9,4.2,1.8l-1.9,1.5c-0.6-0.6-1.3-1-2.3-1c-1,0-1.6,0.3-1.6,1
		c0,0.7,1.1,1.1,2.3,1.5c2.3,0.8,3.9,1.7,3.9,3.9c0,2.3-1.8,3.5-4.5,3.5C535.3,391,533.5,390.2,532.6,389z"/>
	<path class="st4" d="M551.2,389.8c-0.6,0.6-1.6,1.2-3.1,1.2c-2.4,0-4.2-1.3-4.2-3.9c0-2.7,2.3-3.9,4.6-3.9c1.1,0,2,0.2,2.8,0.6
		v-0.6c0-1.5-0.8-2.1-2.3-2.1c-1.4,0-2.5,0.4-3.5,1.1l-0.8-2.2c1.1-0.7,2.6-1.3,4.6-1.3c2.1,0,4.6,0.5,4.6,4.4v7.5h-2.6V389.8z
		 M551.2,387.5V386c-0.6-0.3-1.5-0.5-2.3-0.5c-1.3,0-2.4,0.5-2.4,1.6c0,0.9,0.7,1.5,2.1,1.5C549.7,388.7,550.6,388.1,551.2,387.5z"
		/>
	<path class="st4" d="M570.8,384c0-1.8-0.6-2.7-2-2.7c-1.4,0-2.2,0.9-2.2,2.8v6.7h-2.7V384c0-1.8-0.6-2.7-2-2.7
		c-1.3,0-2.2,0.9-2.2,2.8v6.7H557V379h2.7v1.1c0.7-0.9,1.7-1.4,2.9-1.4c1.4,0,2.5,0.5,3.1,1.7c0.8-1.1,2-1.7,3.5-1.7
		c2.4,0,4.3,1.2,4.3,4.5v7.5h-2.7V384z"/>
	<path class="st4" d="M576.2,384.9c0-3.8,2.1-6.1,5.4-6.1c2.8,0,5.1,1.7,5.1,5.5c0,0.5,0,1.1-0.1,1.7h-7.8c0.1,1.7,1.4,2.8,2.8,2.8
		c1,0,1.9-0.4,2.5-1.2l1.7,1.7c-0.9,1.1-2.3,1.8-4.2,1.8C578.3,391,576.2,388.7,576.2,384.9z M584.1,383.7c-0.1-1.8-1.2-2.6-2.5-2.6
		c-1.4,0-2.6,0.7-2.7,2.6H584.1z"/>
	<path class="st4" d="M590,391c-0.8-0.2-1.4-0.8-1.4-1.7c0-1.1,0.8-1.8,1.8-1.8c1,0,1.9,0.7,1.9,2.2c0,1.9-1.2,3.5-2.6,4.4l-1.1-0.8
		C589,392.9,589.8,391.9,590,391z M588.6,381.4c0-1,0.8-1.8,1.8-1.8c1,0,1.9,0.8,1.9,1.8c0,1-0.8,1.8-1.9,1.8
		C589.4,383.2,588.6,382.4,588.6,381.4z"/>
	<path class="st4" d="M599.8,384.9c0-3.8,2-6.1,5.2-6.1c2.3,0,3.9,1,4.7,3.2l-2.5,0.8c-0.3-0.9-1.1-1.5-2-1.5
		c-1.6,0-2.6,1.4-2.6,3.6c0,2.2,1,3.5,2.5,3.5c1.1,0,1.8-0.6,2.1-1.7l2.6,0.8c-0.7,2.3-2.3,3.5-4.7,3.5
		C601.9,391,599.8,388.7,599.8,384.9z"/>
	<path class="st4" d="M619.1,389.8c-0.6,0.6-1.6,1.2-3.1,1.2c-2.4,0-4.2-1.3-4.2-3.9c0-2.7,2.3-3.9,4.6-3.9c1.1,0,2,0.2,2.8,0.6
		v-0.6c0-1.5-0.8-2.1-2.3-2.1c-1.4,0-2.5,0.4-3.5,1.1l-0.8-2.2c1.1-0.7,2.6-1.3,4.6-1.3c2.1,0,4.6,0.5,4.6,4.4v7.5h-2.6V389.8z
		 M619.1,387.5V386c-0.6-0.3-1.5-0.5-2.3-0.5c-1.3,0-2.4,0.5-2.4,1.6c0,0.9,0.7,1.5,2.1,1.5C617.7,388.7,618.5,388.1,619.1,387.5z"
		/>
	<path class="st4" d="M632.2,384c0-1.9-0.8-2.7-2.2-2.7c-1.4,0-2.4,0.8-2.4,2.7v6.8H625V379h2.7v1.1c0.8-0.9,1.8-1.4,3.1-1.4
		c2.2,0,4.2,1.2,4.2,4.8v7.2h-2.7V384z"/>
	<path class="st4" d="M647.1,390.6l-4.4-11.5h2.7l2.7,7.2c0.2,0.4,0.3,0.7,0.3,1.1c0.1-0.4,0.2-0.7,0.3-1.1l2.8-7.2h2.7l-6.2,16.2
		h-2.8L647.1,390.6z"/>
	<path class="st4" d="M655.9,384.9c0-3.8,2.1-6.1,5.4-6.1c3.3,0,5.4,2.3,5.4,6.1c0,3.9-2.1,6.1-5.4,6.1
		C657.9,391,655.9,388.7,655.9,384.9z M663.9,384.9c0-2.2-1-3.6-2.7-3.6c-1.6,0-2.7,1.4-2.7,3.6c0,2.2,1.1,3.6,2.7,3.6
		C662.9,388.4,663.9,387.1,663.9,384.9z"/>
	<path class="st4" d="M676.6,389.6c-0.7,0.9-1.8,1.4-3.1,1.4c-2.2,0-4.2-1.2-4.2-4.8V379h2.7v6.7c0,1.9,0.8,2.7,2.2,2.7
		c1.4,0,2.4-0.7,2.4-2.7V379h2.7v11.7h-2.7V389.6z"/>
	<path class="st4" d="M302,406.5h2.7v1.2c0.5-1,1.2-1.5,2.4-1.5c0.9,0,1.6,0.3,2.2,0.8l-0.4,2.5c-0.5-0.3-1.1-0.6-2-0.6
		c-1,0-2.2,0.6-2.2,2.8v6.6H302V406.5z"/>
	<path class="st4" d="M310.6,412.4c0-3.8,2.1-6.1,5.4-6.1c2.8,0,5.1,1.7,5.1,5.5c0,0.5,0,1.1-0.1,1.7h-7.8c0.1,1.7,1.4,2.8,2.8,2.8
		c1,0,1.9-0.4,2.5-1.2l1.7,1.7c-0.9,1.1-2.3,1.8-4.2,1.8C312.7,418.5,310.6,416.2,310.6,412.4z M318.5,411.2
		c-0.1-1.8-1.2-2.6-2.5-2.6c-1.4,0-2.6,0.7-2.7,2.6H318.5z"/>
	<path class="st4" d="M337.7,411.5c0-1.8-0.6-2.7-2-2.7c-1.4,0-2.2,0.9-2.2,2.8v6.7h-2.7v-6.7c0-1.8-0.6-2.7-2-2.7
		c-1.3,0-2.2,0.9-2.2,2.8v6.7h-2.7v-11.7h2.7v1.1c0.7-0.9,1.7-1.4,2.9-1.4c1.4,0,2.5,0.5,3.1,1.7c0.8-1.1,2-1.7,3.5-1.7
		c2.4,0,4.3,1.2,4.3,4.5v7.5h-2.7V411.5z"/>
	<path class="st4" d="M343.1,412.4c0-3.8,2.1-6.1,5.4-6.1c2.8,0,5.1,1.7,5.1,5.5c0,0.5,0,1.1-0.1,1.7h-7.8c0.1,1.7,1.4,2.8,2.8,2.8
		c1,0,1.9-0.4,2.5-1.2l1.7,1.7c-0.9,1.1-2.3,1.8-4.2,1.8C345.2,418.5,343.1,416.2,343.1,412.4z M351,411.2c-0.1-1.8-1.2-2.6-2.5-2.6
		c-1.4,0-2.6,0.7-2.7,2.6H351z"/>
	<path class="st4" d="M370.1,411.5c0-1.8-0.6-2.7-2-2.7c-1.4,0-2.2,0.9-2.2,2.8v6.7h-2.7v-6.7c0-1.8-0.6-2.7-2-2.7
		c-1.3,0-2.2,0.9-2.2,2.8v6.7h-2.7v-11.7h2.7v1.1c0.7-0.9,1.7-1.4,2.9-1.4c1.4,0,2.5,0.5,3.1,1.7c0.8-1.1,2-1.7,3.5-1.7
		c2.4,0,4.3,1.2,4.3,4.5v7.5h-2.7V411.5z"/>
	<path class="st4" d="M378.8,417.4v0.9h-2.7v-15.3l2.7-1.2v5.7c0.6-0.7,1.4-1.1,2.6-1.1c2.8,0,4.9,2.3,4.9,6.1c0,4-1.9,6.1-4.9,6.1
		C380.2,418.5,379.4,418.1,378.8,417.4z M383.6,412.4c0-2.3-0.9-3.6-2.5-3.6c-1.1,0-1.9,0.6-2.3,1.1v4.9c0.5,0.7,1.2,1.1,2.3,1.1
		C382.8,416,383.6,414.6,383.6,412.4z"/>
	<path class="st4" d="M388.6,412.4c0-3.8,2.1-6.1,5.4-6.1c2.8,0,5.1,1.7,5.1,5.5c0,0.5,0,1.1-0.1,1.7h-7.8c0.1,1.7,1.4,2.8,2.8,2.8
		c1,0,1.9-0.4,2.5-1.2l1.7,1.7c-0.9,1.1-2.3,1.8-4.2,1.8C390.7,418.5,388.6,416.2,388.6,412.4z M396.5,411.2
		c-0.1-1.8-1.2-2.6-2.5-2.6c-1.4,0-2.6,0.7-2.7,2.6H396.5z"/>
	<path class="st4" d="M401.9,406.5h2.7v1.2c0.5-1,1.2-1.5,2.4-1.5c0.9,0,1.6,0.3,2.2,0.8l-0.4,2.5c-0.5-0.3-1.1-0.6-2-0.6
		c-1,0-2.2,0.6-2.2,2.8v6.6h-2.7V406.5z"/>
	<path class="st4" d="M416,406.5h2.6l1.5,6.5c0.1,0.5,0.2,1,0.3,1.4c0.1-0.4,0.2-0.9,0.3-1.4l1.7-6.5h2.5l1.7,6.5
		c0.1,0.5,0.2,1,0.3,1.4c0.1-0.4,0.2-0.9,0.3-1.4l1.5-6.5h2.6l-3.2,11.7h-2.4l-1.7-6.3c-0.1-0.5-0.3-1.2-0.4-1.6
		c-0.1,0.4-0.3,1.1-0.4,1.6l-1.7,6.3h-2.4L416,406.5z"/>
	<path class="st4" d="M433.8,402.9l2.7-1.2v5.9c0.8-0.9,1.8-1.4,3.1-1.4c2.2,0,4.2,1.2,4.2,4.8v7.2h-2.7v-6.8c0-1.9-0.8-2.7-2.2-2.7
		c-1.4,0-2.4,0.7-2.4,2.6v6.8h-2.7V402.9z"/>
	<path class="st4" d="M446.9,403.3c0-0.9,0.7-1.6,1.6-1.6s1.6,0.7,1.6,1.6c0,0.9-0.7,1.6-1.6,1.6S446.9,404.2,446.9,403.3z
		 M447.1,406.5h2.7v11.7h-2.7V406.5z"/>
	<path class="st4" d="M452.7,412.4c0-3.8,2-6.1,5.2-6.1c2.3,0,3.9,1,4.7,3.2l-2.5,0.8c-0.3-0.9-1.1-1.5-2-1.5
		c-1.6,0-2.6,1.4-2.6,3.6s1,3.5,2.5,3.5c1.1,0,1.8-0.6,2.1-1.7l2.6,0.8c-0.7,2.3-2.3,3.5-4.7,3.5
		C454.7,418.5,452.7,416.3,452.7,412.4z"/>
	<path class="st4" d="M465.5,402.9l2.7-1.2v5.9c0.8-0.9,1.8-1.4,3.1-1.4c2.2,0,4.2,1.2,4.2,4.8v7.2h-2.7v-6.8c0-1.9-0.8-2.7-2.2-2.7
		c-1.4,0-2.4,0.7-2.4,2.6v6.8h-2.7V402.9z"/>
	<path class="st4" d="M483.8,412.4c0-3.8,2.1-6.1,5.4-6.1c3.3,0,5.4,2.3,5.4,6.1c0,3.9-2.1,6.1-5.4,6.1
		C485.9,418.5,483.8,416.3,483.8,412.4z M491.9,412.4c0-2.2-1-3.6-2.7-3.6c-1.6,0-2.7,1.4-2.7,3.6c0,2.2,1.1,3.6,2.7,3.6
		C490.8,416,491.9,414.6,491.9,412.4z"/>
	<path class="st4" d="M504.7,411.5c0-1.9-0.8-2.7-2.2-2.7c-1.4,0-2.4,0.8-2.4,2.7v6.8h-2.7v-11.7h2.7v1.1c0.8-0.9,1.8-1.4,3.1-1.4
		c2.2,0,4.2,1.2,4.2,4.8v7.2h-2.7V411.5z"/>
	<path class="st4" d="M510.1,412.4c0-3.8,2.1-6.1,5.4-6.1c2.8,0,5.1,1.7,5.1,5.5c0,0.5,0,1.1-0.1,1.7h-7.8c0.1,1.7,1.4,2.8,2.8,2.8
		c1,0,1.9-0.4,2.5-1.2l1.7,1.7c-0.9,1.1-2.3,1.8-4.2,1.8C512.2,418.5,510.1,416.2,510.1,412.4z M518,411.2c-0.1-1.8-1.2-2.6-2.5-2.6
		c-1.4,0-2.6,0.7-2.7,2.6H518z"/>
	<path class="st4" d="M522.5,416.5l1.8-1.6c0.5,0.5,1.4,1.2,2.7,1.2c1.1,0,1.9-0.3,1.9-1.1c0-0.8-0.9-1.2-2.3-1.7
		c-2.5-0.8-3.9-1.8-3.9-3.8c0-2.1,1.9-3.3,4.2-3.3c2,0,3.4,0.9,4.2,1.8l-1.9,1.5c-0.6-0.6-1.3-1-2.3-1c-1,0-1.6,0.3-1.6,1
		c0,0.7,1.1,1.1,2.3,1.5c2.3,0.8,3.9,1.7,3.9,3.9c0,2.3-1.8,3.5-4.5,3.5C525.2,418.5,523.4,417.8,522.5,416.5z"/>
	<path class="st4" d="M539.5,412.4c0-3.8,2-6.1,5.2-6.1c2.3,0,3.9,1,4.7,3.2l-2.5,0.8c-0.3-0.9-1.1-1.5-2-1.5
		c-1.6,0-2.6,1.4-2.6,3.6s1,3.5,2.5,3.5c1.1,0,1.8-0.6,2.1-1.7l2.6,0.8c-0.7,2.3-2.3,3.5-4.7,3.5
		C541.5,418.5,539.5,416.3,539.5,412.4z"/>
	<path class="st4" d="M551.6,412.4c0-3.8,2.1-6.1,5.4-6.1c3.3,0,5.4,2.3,5.4,6.1c0,3.9-2.1,6.1-5.4,6.1
		C553.7,418.5,551.6,416.3,551.6,412.4z M559.7,412.4c0-2.2-1-3.6-2.7-3.6c-1.6,0-2.7,1.4-2.7,3.6c0,2.2,1.1,3.6,2.7,3.6
		C558.7,416,559.7,414.6,559.7,412.4z"/>
	<path class="st4" d="M572.5,411.5c0-1.9-0.8-2.7-2.2-2.7c-1.4,0-2.4,0.8-2.4,2.7v6.8h-2.7v-11.7h2.7v1.1c0.8-0.9,1.8-1.4,3.1-1.4
		c2.2,0,4.2,1.2,4.2,4.8v7.2h-2.7V411.5z"/>
	<path class="st4" d="M579.2,415.5v-6.7h-1.7v-2.3h1.7V403l2.7-1.3v4.8h2.7v2.3h-2.7v6.1c0,0.7,0.3,1.1,1,1.1c0.6,0,1.2-0.2,1.8-0.5
		l-0.3,2.4c-0.7,0.3-1.5,0.5-2.5,0.5C580,418.5,579.2,417.4,579.2,415.5z"/>
	<path class="st4" d="M593.9,417.3c-0.6,0.6-1.6,1.2-3.1,1.2c-2.4,0-4.2-1.3-4.2-3.9c0-2.7,2.3-3.9,4.6-3.9c1.1,0,2,0.2,2.8,0.6
		v-0.6c0-1.5-0.8-2.1-2.3-2.1c-1.4,0-2.5,0.4-3.5,1.1l-0.8-2.2c1.1-0.7,2.6-1.3,4.6-1.3c2.1,0,4.6,0.5,4.6,4.4v7.5h-2.6V417.3z
		 M593.9,415.1v-1.5c-0.6-0.3-1.5-0.5-2.3-0.5c-1.3,0-2.4,0.5-2.4,1.6c0,0.9,0.7,1.5,2.1,1.5C592.4,416.2,593.3,415.7,593.9,415.1z"
		/>
	<path class="st4" d="M599.5,403.3c0-0.9,0.7-1.6,1.6-1.6s1.6,0.7,1.6,1.6c0,0.9-0.7,1.6-1.6,1.6S599.5,404.2,599.5,403.3z
		 M599.7,406.5h2.7v11.7h-2.7V406.5z"/>
	<path class="st4" d="M613.1,411.5c0-1.9-0.8-2.7-2.2-2.7c-1.4,0-2.4,0.8-2.4,2.7v6.8h-2.7v-11.7h2.7v1.1c0.8-0.9,1.8-1.4,3.1-1.4
		c2.2,0,4.2,1.2,4.2,4.8v7.2h-2.7V411.5z"/>
	<path class="st4" d="M627.4,417.4v0.9h-2.7v-15.3l2.7-1.2v5.7c0.6-0.7,1.4-1.1,2.6-1.1c2.8,0,4.9,2.3,4.9,6.1c0,4-1.9,6.1-4.9,6.1
		C628.8,418.5,628,418.1,627.4,417.4z M632.2,412.4c0-2.3-0.9-3.6-2.5-3.6c-1.1,0-1.9,0.6-2.3,1.1v4.9c0.5,0.7,1.2,1.1,2.3,1.1
		C631.4,416,632.2,414.6,632.2,412.4z"/>
	<path class="st4" d="M637.2,412.4c0-3.8,2.1-6.1,5.4-6.1c3.3,0,5.4,2.3,5.4,6.1c0,3.9-2.1,6.1-5.4,6.1
		C639.3,418.5,637.2,416.3,637.2,412.4z M645.3,412.4c0-2.2-1-3.6-2.7-3.6c-1.6,0-2.7,1.4-2.7,3.6c0,2.2,1.1,3.6,2.7,3.6
		C644.2,416,645.3,414.6,645.3,412.4z"/>
	<path class="st4" d="M664.6,411.5c0-1.8-0.6-2.7-2-2.7c-1.4,0-2.2,0.9-2.2,2.8v6.7h-2.7v-6.7c0-1.8-0.6-2.7-2-2.7
		c-1.3,0-2.2,0.9-2.2,2.8v6.7h-2.7v-11.7h2.7v1.1c0.7-0.9,1.7-1.4,2.9-1.4c1.4,0,2.5,0.5,3.1,1.7c0.8-1.1,2-1.7,3.5-1.7
		c2.4,0,4.3,1.2,4.3,4.5v7.5h-2.7V411.5z"/>
	<path class="st4" d="M673.3,417.4v0.9h-2.7v-15.3l2.7-1.2v5.7c0.6-0.7,1.4-1.1,2.6-1.1c2.8,0,4.9,2.3,4.9,6.1c0,4-1.9,6.1-4.9,6.1
		C674.6,418.5,673.9,418.1,673.3,417.4z M678.1,412.4c0-2.3-0.9-3.6-2.5-3.6c-1.1,0-1.9,0.6-2.3,1.1v4.9c0.5,0.7,1.2,1.1,2.3,1.1
		C677.2,416,678.1,414.6,678.1,412.4z"/>
	<path class="st4" d="M682.8,416.5l1.8-1.6c0.5,0.5,1.4,1.2,2.7,1.2c1.1,0,1.9-0.3,1.9-1.1c0-0.8-0.9-1.2-2.3-1.7
		c-2.5-0.8-3.9-1.8-3.9-3.8c0-2.1,1.9-3.3,4.2-3.3c2,0,3.4,0.9,4.2,1.8l-1.9,1.5c-0.6-0.6-1.3-1-2.3-1c-1,0-1.6,0.3-1.6,1
		c0,0.7,1.1,1.1,2.3,1.5c2.3,0.8,3.9,1.7,3.9,3.9c0,2.3-1.8,3.5-4.5,3.5C685.5,418.5,683.7,417.8,682.8,416.5z"/>
	<path class="st4" d="M697.2,413.3c0-4.3,3.8-4.1,3.8-6.7c0-1.2-0.8-2-2.2-2c-1.7,0-2.7,1.1-2.7,2.9h-2.7c0-3.5,2.2-5.5,5.3-5.5
		c3.2,0,4.9,2,4.9,4.6c0,3.8-3.8,3.6-3.8,6.8v0.6h-2.7V413.3z M696.7,416.8c0-1,0.8-1.8,1.8-1.8c1,0,1.8,0.8,1.8,1.8
		c0,1-0.8,1.8-1.8,1.8C697.5,418.5,696.7,417.8,696.7,416.8z"/>
</g>
<g>
	<path class="st5" d="M278.4,314c0-14.5-6.4-26.3-14.4-26.3c-2.5,0-4.9,1.2-6.9,3.3c-8.4-8.7-20.1-14-33.1-14c-25.4,0-46,20.6-46,46
		c0,25.4,20.6,46,46,46c19.5,0,36.1-12.1,42.8-29.2C273.4,337.3,278.4,326.7,278.4,314z"/>
	<circle class="st6" cx="214.8" cy="313.9" r="45.9"/>
	<circle cx="215.1" cy="313.6" r="27.2"/>
	<circle class="st7" cx="217.1" cy="316.6" r="20.7"/>
	<path class="st8" d="M245.2,284.1c16.7,16.7,16.7,43.7,0,60.4s-43.7,16.7-60.4,0l-2.5,2.5c18,18,47.4,18,65.5,0
		c18-18,18-47.4,0-65.5L245.2,284.1z"/>
	<path class="st9" d="M184.8,344.5c-16.7-16.7-16.7-43.7,0-60.4s43.7-16.7,60.4,0c0,0,0,0,0,0l2.5-2.5l0,0c-18-18-47.4-18-65.5,0
		s-18,47.4,0,65.5l0,0L184.8,344.5L184.8,344.5z"/>
	<path class="st8" d="M196.4,332.9c-10.2-10.2-10.2-26.9,0-37.1c10.2-10.2,26.9-10.2,37.1,0l1.6-1.6c-11.1-11.1-29.1-11.1-40.2,0
		c-11.1,11.1-11.1,29.1,0,40.2L196.4,332.9z"/>
	<path class="st9" d="M233.5,295.8c10.2,10.2,10.2,26.9,0,37.1c-10.2,10.2-26.9,10.2-37.1,0l0,0l-1.6,1.6l0,0
		c11.1,11.1,29.1,11.1,40.2,0c11.1-11.1,11.1-29.1,0-40.2l0,0L233.5,295.8L233.5,295.8z"/>
	<ellipse class="st8" cx="259.4" cy="313.6" rx="13.1" ry="27.2"/>
	<rect x="254.5" y="286.4" class="st8" width="5" height="1.6"/>
	<rect x="254.5" y="339.1" class="st8" width="5" height="1.6"/>
	<ellipse class="st9" cx="255" cy="313.6" rx="13.1" ry="27.2"/>
	<ellipse class="st7" cx="254.2" cy="313.6" rx="12.2" ry="25.3"/>
	<path class="st8" d="M241.9,320.2L241.9,320.2c-0.8,0-1.4-0.6-1.4-1.4v-10.1c0-0.8,0.6-1.4,1.4-1.4l0,0c0.8,0,1.4,0.6,1.4,1.4v10.1
		C243.3,319.5,242.7,320.2,241.9,320.2z"/>
	<path class="st9" d="M241.5,319.3L241.5,319.3c-0.3,0-0.5-0.2-0.5-0.5v-9.8c0-0.3,0.2-0.5,0.5-0.5l0,0c0.3,0,0.5,0.2,0.5,0.5v9.8
		C242,319,241.8,319.3,241.5,319.3z"/>
	<g>
		<path class="st10" d="M254.3,330.6c-4.1,0-7.3-7.4-7.3-16.8s3.2-16.8,7.3-16.8c4.1,0,7.3,7.4,7.3,16.8S258.4,330.6,254.3,330.6z
			 M254.3,297.8c-3.5,0-6.5,7.3-6.5,16s3,16,6.5,16c3.5,0,6.5-7.3,6.5-16S257.8,297.8,254.3,297.8z"/>
	</g>
	<g>
		<path class="st10" d="M254.3,325.4c-2.9,0-5.1-5.1-5.1-11.6c0-6.5,2.2-11.6,5.1-11.6c2.9,0,5.1,5.1,5.1,11.6
			C259.4,320.3,257.2,325.4,254.3,325.4z M254.3,303c-2.3,0-4.3,4.9-4.3,10.8s2,10.8,4.3,10.8c2.3,0,4.3-4.9,4.3-10.8
			S256.6,303,254.3,303z"/>
	</g>
	<g>
		<path class="st10" d="M215,329.3c-8,0-14.5-6.5-14.5-14.5c0-8,6.5-14.5,14.5-14.5s14.5,6.5,14.5,14.5
			C229.6,322.8,223,329.3,215,329.3z M215,300.9c-7.6,0-13.8,6.2-13.8,13.8s6.2,13.8,13.8,13.8c7.6,0,13.8-6.2,13.8-13.8
			S222.6,300.9,215,300.9z"/>
	</g>
	<circle class="st11" cx="215" cy="314.7" r="10.5"/>
	<circle class="st12" cx="212.4" cy="312.1" r="4.7"/>
</g>
</svg>
