<?xml version="1.0" encoding="utf-8"?>
<!-- Generator: Adobe Illustrator 20.0.0, SVG Export Plug-In . SVG Version: 6.00 Build 0)  -->
<svg version="1.1" id="Layer_1" xmlns="http://www.w3.org/2000/svg" xmlns:xlink="http://www.w3.org/1999/xlink" x="0px" y="0px"
	 viewBox="0 0 162.4 174" style="enable-background:new 0 0 162.4 174;" xml:space="preserve">
<style type="text/css">
	.st0{fill:#BEFFED;}
</style>
<g>
	<path class="st0" d="M0.4,0v152.4h161.9V0H0.4z M161.5,151.5H1.4V0.9h160.1V151.5z"/>
	<path class="st0" d="M0,160.8V174h7.6l1.9-1.9v-3.5l-1.2-1.2l1.2-1.2v-3.5l-1.9-1.9H0z M7.2,171l-0.8,0.8H2.3v-3.2h4.2l0.8,0.8V171
		z M7.2,165.5l-0.8,0.8H2.3v-3.2h4.2l0.8,0.8V165.5z"/>
	<path class="st0" d="M13.3,160.8l-1.9,1.9v9.4l1.9,1.9H19l1.9-1.9v-9.4l-1.9-1.9H13.3z M18.6,171l-0.8,0.8h-3.4l-0.8-0.8v-7.1
		l0.8-0.8h3.4l0.8,0.8V171z"/>
	<polygon class="st0" points="29.2,169.6 26.1,160.8 22.9,160.8 22.9,174 25.1,174 25.1,164.6 28.2,174 30.2,174 33.2,164.6 
		33.2,174 35.5,174 35.5,160.8 32.2,160.8 	"/>
	<path class="st0" d="M37.4,160.8V174H45l1.9-1.9v-3.5l-1.2-1.2l1.2-1.2v-3.5l-1.9-1.9H37.4z M44.7,171l-0.8,0.8h-4.2v-3.2h4.2
		l0.8,0.8V171z M44.7,165.5l-0.8,0.8h-4.2v-3.2h4.2l0.8,0.8V165.5z"/>
	<path class="st0" d="M54.6,160.8V174h7.6l1.9-1.9v-9.4l-1.9-1.9H54.6z M61.8,171l-0.8,0.8h-4.2v-8.6H61l0.8,0.8V171z"/>
	<polygon class="st0" points="66,174 74.8,174 74.8,171.7 68.3,171.7 68.3,168.5 73.4,168.5 73.4,166.3 68.3,166.3 68.3,163.1 
		74.8,163.1 74.8,160.8 66,160.8 	"/>
	<polygon class="st0" points="76.7,163.1 80,163.1 80,174 82.3,174 82.3,163.1 85.5,163.1 85.5,160.8 76.7,160.8 	"/>
	<polygon class="st0" points="87.5,174 96.2,174 96.2,171.7 89.7,171.7 89.7,168.5 94.8,168.5 94.8,166.3 89.7,166.3 89.7,163.1 
		96.2,163.1 96.2,160.8 87.5,160.8 	"/>
	<polygon class="st0" points="100.1,160.8 98.2,162.7 98.2,172.1 100.1,174 105.8,174 107.7,172.1 107.7,169.7 105.4,169.7 
		105.4,170.9 104.7,171.7 101.2,171.7 100.5,171 100.5,163.8 101.2,163.1 104.7,163.1 105.4,163.8 105.4,165.1 107.7,165.1 
		107.7,162.7 105.8,160.8 	"/>
	<polygon class="st0" points="109.6,163.1 112.9,163.1 112.9,174 115.1,174 115.1,163.1 118.4,163.1 118.4,160.8 109.6,160.8 	"/>
	<polygon class="st0" points="120.4,174 129.1,174 129.1,171.7 122.6,171.7 122.6,168.5 127.7,168.5 127.7,166.3 122.6,166.3 
		122.6,163.1 129.1,163.1 129.1,160.8 120.4,160.8 	"/>
	<path class="st0" d="M131.1,160.8V174h7.6l1.9-1.9v-9.4l-1.9-1.9H131.1z M138.3,171l-0.8,0.8h-4.2v-8.6h4.2l0.8,0.8V171z"/>
</g>
</svg>
