<?xml version="1.0" encoding="utf-8"?>
<!-- Generator: Adobe Illustrator 20.0.0, SVG Export Plug-In . SVG Version: 6.00 Build 0)  -->
<svg version="1.1" id="Layer_1" xmlns="http://www.w3.org/2000/svg" xmlns:xlink="http://www.w3.org/1999/xlink" x="0px" y="0px"
	 viewBox="0 0 149.6 89.5" style="enable-background:new 0 0 149.6 89.5;" xml:space="preserve">
<style type="text/css">
	.st0{fill:#F2FF2B;}
</style>
<rect x="7" y="7" width="142.6" height="82.5"/>
<rect class="st0" width="142.6" height="82.5"/>
<g>
	<path d="M35.1,42.5c0-8.2,4.7-17.4,14.8-17.4c6.5,0,9.7,3.5,12,7.2l-5.7,3.3c-1.5-2.3-3.4-4.2-6.3-4.2c-6.2,0-8.1,6.2-8.1,11.1
		c0,5.7,2.3,11.1,8.1,11.1c3.3,0,5.9-2.4,5.9-5.4v-0.4H50v-6.1h12.3v4.9c0,8.6-5.4,13.2-12.5,13.2C39.5,59.9,35.1,51.3,35.1,42.5z"
		/>
	<path d="M67.2,47.1c0-8,4.4-12.9,11.3-12.9c6.9,0,11.3,4.9,11.3,12.9c0,8.1-4.4,12.8-11.3,12.8C71.5,59.9,67.2,55.1,67.2,47.1z
		 M83.5,47.1c0-4.3-1.9-6.9-5-6.9c-3.1,0-5,2.6-5,6.9c0,4.3,2,6.8,5,6.8C81.6,53.9,83.5,51.3,83.5,47.1z"/>
	<path d="M95.2,55.8c0-2.3,1.7-4.1,4.1-4.1c2.4,0,4.2,1.8,4.2,4.1c0,2.3-1.9,4.1-4.2,4.1C96.9,59.9,95.2,58,95.2,55.8z M96.2,36
		V25.1h6.2V36L101.1,50h-3.6L96.2,36z"/>
</g>
</svg>
