<?xml version="1.0" encoding="utf-8"?>
<!-- Generator: Adobe Illustrator 20.0.0, SVG Export Plug-In . SVG Version: 6.00 Build 0)  -->
<svg version="1.1" id="Layer_1" xmlns="http://www.w3.org/2000/svg" xmlns:xlink="http://www.w3.org/1999/xlink" x="0px" y="0px"
	 viewBox="0 0 574.3 552.8" style="enable-background:new 0 0 574.3 552.8;" xml:space="preserve">
<style type="text/css">
	.st0{fill:#FF4C29;}
</style>
<path class="st0" d="M406.5,553.5H167.4l-80.1-80.1v-95.8l100.1,0.4v45.1l30,30.3H357l30-30.3V333l-30-30.3H174.7l-80.1-80.1V0.7
	h377.5v100.1H194.6v71.6l30.3,30.3h181.5l80.1,80.1v190.6L406.5,553.5z M169.9,547.5H404l76.6-76.6V285.3L404,208.7H222.5
	l-33.8-33.8V94.8h277.4V6.7H100.6v213.4l76.6,76.6h182.3l33.5,33.8v95.1l-33.5,33.8H214.8l-33.5-33.8V384l-88.1-0.3v87.2
	L169.9,547.5z"/>
</svg>
