<?xml version="1.0" encoding="utf-8"?>
<!-- Generator: Adobe Illustrator 20.0.0, SVG Export Plug-In . SVG Version: 6.00 Build 0)  -->
<svg version="1.1" id="Layer_1" xmlns="http://www.w3.org/2000/svg" xmlns:xlink="http://www.w3.org/1999/xlink" x="0px" y="0px"
	 viewBox="0 0 574.3 552.8" style="enable-background:new 0 0 574.3 552.8;" xml:space="preserve">
<style type="text/css">
	.st0{fill:#FF4C29;}
</style>
<path class="st0" d="M100.1,552.8H0V0h100.1V552.8z M6,546.8h88.1V6H6V546.8z"/>
<path class="st0" d="M494.2,552.8H255.1L175,472.7V80.1L255.1,0h239.1l80.1,80.1v392.5L494.2,552.8z M257.6,546.8h234.1l76.6-76.6
	V82.6L491.7,6H257.6L181,82.6v387.6L257.6,546.8z M446.8,458.8H302.5L269,425.3V127.5l33.5-33.5h144.3l33.5,33.5v297.8L446.8,458.8z
	 M305,452.8h139.3l30-30V130l-30-30H305l-30,30v292.8L305,452.8z"/>
</svg>
