<?xml version="1.0" encoding="utf-8"?>
<!-- Generator: Adobe Illustrator 20.0.0, SVG Export Plug-In . SVG Version: 6.00 Build 0)  -->
<svg version="1.1" id="Layer_1" xmlns="http://www.w3.org/2000/svg" xmlns:xlink="http://www.w3.org/1999/xlink" x="0px" y="0px"
	 viewBox="0 0 610.3 453.4" style="enable-background:new 0 0 610.3 453.4;" xml:space="preserve">
<style type="text/css">
	.st0{fill:#FF4C29;}
	.st1{fill:#FFF549;}
	.st2{fill:#FFFFFF;}
</style>
<g>
	<g>
		<rect x="11.8" y="13.3" width="598.5" height="440.2"/>
	</g>
	<g>
		<rect x="3.5" y="3.5" class="st0" width="597.9" height="439.4"/>
		<path class="st1" d="M604.9,446.4H0V0h604.9V446.4z M7,439.4h590.8V7H7V439.4z"/>
	</g>
</g>
<g>
	<path class="st2" d="M57.4,71.7c0-5.2,2.5-10.9,9.2-10.9c6.8,0,9.2,5.7,9.2,10.9c0,5.2-2.4,10.9-9.2,10.9
		C59.8,82.5,57.4,76.9,57.4,71.7z M72.1,71.7c0-3.4-1.4-7.4-5.5-7.4c-4.1,0-5.5,4.2-5.5,7.4c0,3.4,1.4,7.4,5.5,7.4
		C70.6,79.1,72.1,74.9,72.1,71.7z"/>
	<path class="st2" d="M89.3,73.4c0-2.5-1.1-3.6-2.9-3.6c-1.9,0-3.1,1-3.1,3.5v8.8h-3.5V66.9h3.5v1.4c1-1.2,2.3-1.8,4-1.8
		c2.9,0,5.4,1.6,5.4,6.3v9.4h-3.5V73.4z"/>
	<path class="st2" d="M96.4,74.5c0-5,2.8-8,7.1-8c3.7,0,6.7,2.3,6.7,7.2c0,0.6,0,1.5-0.1,2.2H99.9c0.1,2.2,1.8,3.6,3.6,3.6
		c1.4,0,2.4-0.5,3.2-1.6l2.2,2.3c-1.2,1.4-3,2.4-5.5,2.4C99.1,82.5,96.4,79.5,96.4,74.5z M106.7,72.9c-0.1-2.3-1.6-3.4-3.2-3.4
		c-1.9,0-3.4,1-3.6,3.4H106.7z"/>
	<path class="st2" d="M120.4,74.5c0-5,2.7-8,7-8c4.3,0,7,3,7,8c0,5-2.7,8-7,8C123.1,82.5,120.4,79.6,120.4,74.5z M130.9,74.5
		c0-2.9-1.4-4.7-3.5-4.7c-2.1,0-3.5,1.8-3.5,4.7c0,2.9,1.4,4.6,3.5,4.6C129.6,79.2,130.9,77.4,130.9,74.5z"/>
	<path class="st2" d="M142.6,82.2h-3.5V69.9h-2.2v-3.1h2.2v-2.4c0-2.9,1.8-3.6,3.6-3.6c1.2,0,2.2,0.2,3.2,0.7v2.9
		c-1-0.4-1.7-0.5-2.2-0.5c-0.8,0-1.2,0.5-1.2,1.2v1.7h3.4v3.1h-3.4V82.2z"/>
	<path class="st2" d="M156.8,78.6v-8.7h-2.3v-3.1h2.3v-4.7l3.5-1.7v6.3h3.5v3.1h-3.5v8c0,0.9,0.4,1.5,1.3,1.5c0.8,0,1.6-0.2,2.4-0.7
		l-0.4,3.1c-0.9,0.5-1.9,0.7-3.2,0.7C157.9,82.5,156.8,81,156.8,78.6z"/>
	<path class="st2" d="M167.5,62.1l3.5-1.6v7.8c1-1.2,2.3-1.8,4-1.8c2.9,0,5.4,1.6,5.4,6.3v9.4H177v-8.8c0-2.5-1.1-3.5-2.9-3.5
		c-1.8,0-3.1,0.9-3.1,3.5v8.9h-3.5V62.1z"/>
	<path class="st2" d="M184.1,74.5c0-5,2.8-8,7.1-8c3.7,0,6.7,2.3,6.7,7.2c0,0.6,0,1.5-0.1,2.2h-10.2c0.1,2.2,1.8,3.6,3.6,3.6
		c1.4,0,2.4-0.5,3.2-1.6l2.2,2.3c-1.2,1.4-3,2.4-5.5,2.4C186.8,82.5,184.1,79.5,184.1,74.5z M194.4,72.9c-0.1-2.3-1.6-3.4-3.2-3.4
		c-1.9,0-3.4,1-3.6,3.4H194.4z"/>
	<path class="st2" d="M212.3,81v1.2h-3.5V62.1l3.5-1.6V68c0.8-0.9,1.9-1.5,3.4-1.5c3.7,0,6.4,3,6.4,8c0,5.2-2.5,8-6.4,8
		C214.1,82.5,213.1,81.9,212.3,81z M218.6,74.5c0-3-1.2-4.7-3.3-4.7c-1.5,0-2.5,0.8-3,1.5v6.4c0.6,1,1.6,1.5,3,1.5
		C217.5,79.2,218.6,77.4,218.6,74.5z"/>
	<path class="st2" d="M225.1,74.5c0-5,2.7-8,7-8c4.3,0,7,3,7,8c0,5-2.7,8-7,8C227.8,82.5,225.1,79.6,225.1,74.5z M235.7,74.5
		c0-2.9-1.4-4.7-3.5-4.7c-2.1,0-3.5,1.8-3.5,4.7c0,2.9,1.4,4.6,3.5,4.6C234.3,79.2,235.7,77.4,235.7,74.5z"/>
	<path class="st2" d="M260.9,73.4c0-2.4-0.8-3.6-2.6-3.6c-1.8,0-2.9,1.2-2.9,3.6v8.7h-3.5v-8.8c0-2.4-0.8-3.6-2.6-3.6
		c-1.7,0-2.9,1.2-2.9,3.6v8.7h-3.5V66.9h3.5v1.4c0.9-1.2,2.2-1.8,3.8-1.8c1.8,0,3.2,0.7,4,2.2c1-1.5,2.6-2.2,4.6-2.2
		c3.2,0,5.6,1.6,5.6,5.9v9.8h-3.5V73.4z"/>
	<path class="st2" d="M272.3,81v1.2h-3.5V62.1l3.5-1.6V68c0.8-0.9,1.9-1.5,3.4-1.5c3.7,0,6.4,3,6.4,8c0,5.2-2.5,8-6.4,8
		C274.1,82.5,273.1,81.9,272.3,81z M278.6,74.5c0-3-1.2-4.7-3.3-4.7c-1.5,0-2.5,0.8-3,1.5v6.4c0.6,1,1.6,1.5,3,1.5
		C277.5,79.2,278.6,77.4,278.6,74.5z"/>
	<path class="st2" d="M285.9,71.6h7.6V75h-7.6V71.6z"/>
	<path class="st2" d="M297.2,74.5c0-5,2.7-8,6.8-8c3,0,5.2,1.3,6.1,4.2l-3.3,1.1c-0.5-1.2-1.4-2-2.6-2c-2.1,0-3.4,1.8-3.4,4.7
		c0,2.8,1.3,4.6,3.3,4.6c1.4,0,2.4-0.8,2.8-2.2l3.4,1c-0.9,3-3,4.6-6.1,4.6C299.9,82.5,297.2,79.6,297.2,74.5z"/>
	<path class="st2" d="M322.5,81c-0.8,0.8-2,1.6-4.1,1.6c-3.1,0-5.5-1.7-5.5-5.1c0-3.5,3-5.1,6-5.1c1.4,0,2.7,0.3,3.6,0.8v-0.8
		c0-2-1-2.8-3-2.8c-1.9,0-3.3,0.5-4.6,1.4l-1.1-2.9c1.4-0.9,3.4-1.7,6-1.7c2.7,0,6.1,0.7,6.1,5.8v9.9h-3.4V81z M322.5,78v-2
		c-0.8-0.4-1.9-0.6-3.1-0.6c-1.7,0-3.2,0.6-3.2,2.1c0,1.2,1,2,2.8,2C320.5,79.5,321.7,78.8,322.5,78z"/>
	<path class="st2" d="M330.1,66.9h3.5v1.6c0.6-1.3,1.6-2,3.2-2c1.1,0,2.1,0.4,2.8,1l-0.5,3.2c-0.6-0.5-1.4-0.8-2.6-0.8
		c-1.4,0-2.9,0.8-2.9,3.7v8.6h-3.5V66.9z"/>
	<path class="st2" d="M342.2,66.9h3.5v1.6c0.6-1.3,1.6-2,3.2-2c1.1,0,2.1,0.4,2.8,1l-0.5,3.2c-0.6-0.5-1.4-0.8-2.6-0.8
		c-1.4,0-2.9,0.8-2.9,3.7v8.6h-3.5V66.9z"/>
	<path class="st2" d="M358.8,81.9L353,66.9h3.5l3.6,9.4c0.2,0.5,0.3,0.9,0.4,1.4c0.1-0.5,0.2-0.9,0.4-1.4l3.6-9.4h3.5L360,88h-3.6
		L358.8,81.9z"/>
	<path class="st2" d="M370.8,62.7c0-1.1,0.9-2.1,2.1-2.1s2.1,0.9,2.1,2.1c0,1.2-0.9,2.1-2.1,2.1S370.8,63.8,370.8,62.7z M371.2,66.9
		h3.5v15.3h-3.5V66.9z"/>
	<path class="st2" d="M388.7,73.4c0-2.5-1.1-3.6-2.8-3.6c-1.9,0-3.1,1-3.1,3.5v8.8h-3.5V66.9h3.5v1.4c1-1.2,2.3-1.8,4-1.8
		c2.9,0,5.4,1.6,5.4,6.3v9.4h-3.5V73.4z"/>
	<path class="st2" d="M400,85.4c4.3-0.3,5.6-1.3,5.6-3.3v-0.9c-0.9,1-2.1,1.4-3.5,1.4c-3.6,0-6.3-2.7-6.3-8c0-5,2.6-8,6.4-8
		c1.6,0,2.7,0.6,3.4,1.3v-0.9h3.5v13.8c0,5.1-1.9,7.1-7.2,7.5L400,85.4z M405.6,77.7v-6.4c-0.5-0.8-1.5-1.5-2.9-1.5
		c-2.2,0-3.4,1.6-3.4,4.7c0,2.8,1.2,4.7,3.4,4.7C404,79.2,405,78.6,405.6,77.7z"/>
	<path class="st2" d="M421,66.9h3.5v1.6c0.6-1.3,1.6-2,3.2-2c1.1,0,2.1,0.4,2.8,1l-0.5,3.2c-0.6-0.5-1.4-0.8-2.6-0.8
		c-1.3,0-2.9,0.8-2.9,3.7v8.6H421V66.9z"/>
	<path class="st2" d="M432.2,74.5c0-5,2.7-8,7-8c4.3,0,7,3,7,8c0,5-2.7,8-7,8C434.9,82.5,432.2,79.6,432.2,74.5z M442.8,74.5
		c0-2.9-1.3-4.7-3.5-4.7c-2.1,0-3.5,1.8-3.5,4.7c0,2.9,1.4,4.6,3.5,4.6C441.4,79.2,442.8,77.4,442.8,74.5z"/>
	<path class="st2" d="M453.5,81v1.2H450V62.1l3.5-1.6V68c0.8-0.9,1.9-1.5,3.5-1.5c3.7,0,6.4,3,6.4,8c0,5.2-2.5,8-6.4,8
		C455.3,82.5,454.3,81.9,453.5,81z M459.8,74.5c0-3-1.2-4.7-3.3-4.7c-1.5,0-2.5,0.8-3,1.5v6.4c0.6,1,1.6,1.5,3,1.5
		C458.7,79.2,459.8,77.4,459.8,74.5z"/>
	<path class="st2" d="M466.3,74.5c0-5,2.7-8,7-8c4.3,0,7,3,7,8c0,5-2.7,8-7,8C469.1,82.5,466.3,79.6,466.3,74.5z M476.9,74.5
		c0-2.9-1.3-4.7-3.5-4.7c-2.1,0-3.5,1.8-3.5,4.7c0,2.9,1.4,4.6,3.5,4.6C475.5,79.2,476.9,77.4,476.9,74.5z"/>
	<path class="st2" d="M485,78.6v-8.7h-2.3v-3.1h2.3v-4.7l3.5-1.7v6.3h3.5v3.1h-3.5v8c0,0.9,0.4,1.5,1.3,1.5c0.8,0,1.6-0.2,2.4-0.7
		l-0.4,3.1c-0.9,0.5-1.9,0.7-3.2,0.7C486,82.5,485,81,485,78.6z"/>
	<path class="st2" d="M494.5,79.9l2.4-2c0.6,0.6,1.9,1.6,3.6,1.6c1.4,0,2.5-0.4,2.5-1.5c0-1.1-1.2-1.6-3-2.2c-3.3-1.1-5.1-2.4-5.1-5
		c0-2.8,2.4-4.3,5.5-4.3c2.6,0,4.4,1.1,5.5,2.4l-2.4,2c-0.8-0.7-1.7-1.3-3.1-1.3c-1.3,0-2.1,0.5-2.1,1.3c0,0.9,1.4,1.5,3,2
		c3,1,5,2.2,5,5.2c0,3-2.3,4.6-5.9,4.6C498,82.5,495.6,81.5,494.5,79.9z"/>
	<path class="st2" d="M517.5,62.1l3.5-1.6v7.8c1-1.2,2.3-1.8,4.1-1.8c2.9,0,5.4,1.6,5.4,6.3v9.4h-3.5v-8.8c0-2.5-1.1-3.5-2.8-3.5
		c-1.8,0-3.1,0.9-3.1,3.5v8.9h-3.5V62.1z"/>
	<path class="st2" d="M534.5,62.7c0-1.1,0.9-2.1,2.1-2.1s2.1,0.9,2.1,2.1c0,1.2-0.9,2.1-2.1,2.1S534.5,63.8,534.5,62.7z M534.8,66.9
		h3.5v15.3h-3.5V66.9z"/>
	<path class="st2" d="M543.8,78.6v-8.7h-2.3v-3.1h2.3v-4.7l3.5-1.7v6.3h3.5v3.1h-3.5v8c0,0.9,0.4,1.5,1.3,1.5c0.8,0,1.6-0.2,2.4-0.7
		l-0.4,3.1c-0.9,0.5-2,0.7-3.2,0.7C544.8,82.5,543.8,81,543.8,78.6z"/>
	<path class="st2" d="M66.5,117c-0.8,0.8-2,1.6-4.1,1.6c-3.1,0-5.5-1.7-5.5-5.1c0-3.5,3-5.1,6-5.1c1.4,0,2.7,0.3,3.6,0.8v-0.8
		c0-2-1-2.8-3-2.8c-1.9,0-3.3,0.5-4.6,1.4l-1.1-2.9c1.4-0.9,3.4-1.7,6-1.7c2.7,0,6.1,0.7,6.1,5.8v9.9h-3.4V117z M66.5,114v-2
		c-0.8-0.4-1.9-0.6-3.1-0.6c-1.7,0-3.1,0.6-3.1,2.1c0,1.2,1,2,2.8,2C64.6,115.5,65.8,114.8,66.5,114z"/>
	<path class="st2" d="M80.3,102.9h3.5l2,8.5c0.2,0.6,0.3,1.3,0.4,1.8c0.1-0.5,0.2-1.2,0.4-1.8l2.2-8.5h3.2l2.2,8.5
		c0.2,0.6,0.3,1.3,0.4,1.8c0.1-0.5,0.2-1.2,0.4-1.8l2-8.5h3.4l-4.2,15.3h-3.1l-2.2-8.3c-0.1-0.6-0.4-1.6-0.5-2.1
		c-0.1,0.5-0.3,1.5-0.5,2.1l-2.2,8.3h-3.1L80.3,102.9z"/>
	<path class="st2" d="M112.1,117c-0.8,0.8-2,1.6-4.1,1.6c-3.1,0-5.5-1.7-5.5-5.1c0-3.5,3-5.1,6-5.1c1.4,0,2.7,0.3,3.6,0.8v-0.8
		c0-2-1-2.8-3-2.8c-1.9,0-3.3,0.5-4.6,1.4l-1.1-2.9c1.4-0.9,3.4-1.7,6-1.7c2.7,0,6.1,0.7,6.1,5.8v9.9h-3.4V117z M112.1,114v-2
		c-0.8-0.4-1.9-0.6-3.1-0.6c-1.7,0-3.1,0.6-3.1,2.1c0,1.2,1,2,2.8,2C110.2,115.5,111.3,114.8,112.1,114z"/>
	<path class="st2" d="M119.9,98.2l3.5-1.7v21.7h-3.5V98.2z"/>
	<path class="st2" d="M128.2,98.2l3.5-1.7v21.7h-3.5V98.2z"/>
	<path class="st2" d="M136,116.2c0-1.3,1-2.4,2.4-2.4c1.4,0,2.5,1.1,2.5,2.4c0,1.3-1.1,2.4-2.5,2.4C137,118.5,136,117.5,136,116.2z
		 M136.6,103.5v-6.7h3.5v6.7l-0.8,8.8h-1.8L136.6,103.5z"/>
	<path class="st2" d="M160.3,118.2h-3.6v-17.5h-6v-3.5h15.5v3.5h-6V118.2z"/>
	<path class="st2" d="M169.7,98.1l3.5-1.6v7.8c1-1.2,2.3-1.8,4-1.8c2.9,0,5.4,1.6,5.4,6.3v9.4h-3.5v-8.8c0-2.5-1.1-3.5-2.9-3.5
		c-1.8,0-3.1,0.9-3.1,3.5v8.9h-3.5V98.1z"/>
	<path class="st2" d="M186.3,110.5c0-5,2.8-8,7.1-8c3.7,0,6.7,2.3,6.7,7.2c0,0.6,0,1.5-0.1,2.2h-10.2c0.1,2.2,1.8,3.6,3.6,3.6
		c1.4,0,2.4-0.5,3.2-1.6l2.2,2.3c-1.2,1.4-3,2.4-5.5,2.4C189,118.5,186.3,115.5,186.3,110.5z M196.6,108.9c-0.1-2.3-1.6-3.4-3.2-3.4
		c-1.9,0-3.4,1-3.6,3.4H196.6z"/>
	<path class="st2" d="M214.5,117v1.2H211V98.1l3.5-1.6v7.5c0.8-0.9,1.9-1.5,3.4-1.5c3.7,0,6.4,3,6.4,8c0,5.2-2.5,8-6.4,8
		C216.3,118.5,215.2,117.9,214.5,117z M220.8,110.5c0-3-1.2-4.7-3.3-4.7c-1.5,0-2.5,0.8-3,1.5v6.4c0.6,1,1.6,1.5,3,1.5
		C219.7,115.2,220.8,113.4,220.8,110.5z"/>
	<path class="st2" d="M227.3,110.5c0-5,2.7-8,7-8c4.3,0,7,3,7,8c0,5-2.7,8-7,8C230,118.5,227.3,115.6,227.3,110.5z M237.9,110.5
		c0-2.9-1.4-4.7-3.5-4.7c-2.1,0-3.5,1.8-3.5,4.7c0,2.9,1.4,4.6,3.5,4.6C236.5,115.2,237.9,113.4,237.9,110.5z"/>
	<path class="st2" d="M263.1,109.4c0-2.4-0.8-3.6-2.6-3.6c-1.8,0-2.9,1.2-2.9,3.6v8.7h-3.5v-8.8c0-2.4-0.8-3.6-2.6-3.6
		c-1.7,0-2.9,1.2-2.9,3.6v8.7h-3.5v-15.3h3.5v1.4c0.9-1.2,2.2-1.8,3.8-1.8c1.8,0,3.2,0.7,4,2.2c1-1.5,2.6-2.2,4.6-2.2
		c3.2,0,5.6,1.6,5.6,5.9v9.8h-3.5V109.4z"/>
	<path class="st2" d="M274.5,117v1.2H271V98.1l3.5-1.6v7.5c0.8-0.9,1.9-1.5,3.4-1.5c3.7,0,6.4,3,6.4,8c0,5.2-2.5,8-6.4,8
		C276.3,118.5,275.2,117.9,274.5,117z M280.8,110.5c0-3-1.2-4.7-3.3-4.7c-1.5,0-2.5,0.8-3,1.5v6.4c0.6,1,1.6,1.5,3,1.5
		C279.7,115.2,280.8,113.4,280.8,110.5z"/>
	<path class="st2" d="M286.9,115.9l2.4-2c0.6,0.6,1.9,1.6,3.6,1.6c1.4,0,2.5-0.4,2.5-1.5c0-1.1-1.2-1.6-3-2.2
		c-3.3-1.1-5.1-2.4-5.1-5c0-2.8,2.4-4.3,5.5-4.3c2.6,0,4.4,1.1,5.5,2.4l-2.4,2c-0.8-0.7-1.6-1.3-3.1-1.3c-1.3,0-2.1,0.5-2.1,1.3
		c0,0.9,1.4,1.5,3,2c3,1,5,2.2,5,5.2c0,3-2.3,4.6-5.9,4.6C290.4,118.5,288.1,117.5,286.9,115.9z"/>
	<path class="st2" d="M309.6,98.7c0-1.1,0.9-2.1,2.1-2.1s2.1,0.9,2.1,2.1c0,1.2-0.9,2.1-2.1,2.1S309.6,99.8,309.6,98.7z
		 M309.9,102.9h3.5v15.3h-3.5V102.9z"/>
	<path class="st2" d="M327.4,109.4c0-2.5-1.1-3.6-2.8-3.6c-1.9,0-3.1,1-3.1,3.5v8.8h-3.5v-15.3h3.5v1.4c1-1.2,2.3-1.8,4-1.8
		c2.9,0,5.4,1.6,5.4,6.3v9.4h-3.5V109.4z"/>
	<path class="st2" d="M351.4,117c-0.8,0.8-2,1.6-4.1,1.6c-3.1,0-5.5-1.7-5.5-5.1c0-3.5,3-5.1,6-5.1c1.4,0,2.7,0.3,3.6,0.8v-0.8
		c0-2-1-2.8-3-2.8c-1.9,0-3.3,0.5-4.6,1.4l-1.1-2.9c1.4-0.9,3.4-1.7,6-1.7c2.7,0,6.1,0.7,6.1,5.8v9.9h-3.4V117z M351.4,114v-2
		c-0.8-0.4-1.9-0.6-3.1-0.6c-1.7,0-3.2,0.6-3.2,2.1c0,1.2,1,2,2.8,2C349.4,115.5,350.6,114.8,351.4,114z"/>
	<path class="st2" d="M359.1,98.2l3.5-1.7v21.7h-3.5V98.2z"/>
	<path class="st2" d="M367.4,98.2l3.5-1.7v21.7h-3.5V98.2z"/>
	<path class="st2" d="M381.9,115.9l2.4-2c0.6,0.6,1.9,1.6,3.6,1.6c1.4,0,2.5-0.4,2.5-1.5c0-1.1-1.2-1.6-3-2.2
		c-3.3-1.1-5.1-2.4-5.1-5c0-2.8,2.4-4.3,5.5-4.3c2.6,0,4.4,1.1,5.5,2.4l-2.4,2c-0.8-0.7-1.7-1.3-3.1-1.3c-1.3,0-2.1,0.5-2.1,1.3
		c0,0.9,1.4,1.5,3,2c3,1,5,2.2,5,5.2c0,3-2.3,4.6-5.9,4.6C385.4,118.5,383,117.5,381.9,115.9z"/>
	<path class="st2" d="M406.1,117c-0.8,0.8-2,1.6-4.1,1.6c-3.1,0-5.5-1.7-5.5-5.1c0-3.5,3-5.1,6-5.1c1.4,0,2.7,0.3,3.6,0.8v-0.8
		c0-2-1-2.8-3-2.8c-1.9,0-3.3,0.5-4.6,1.4l-1.1-2.9c1.4-0.9,3.4-1.7,6-1.7c2.7,0,6.1,0.7,6.1,5.8v9.9h-3.4V117z M406.1,114v-2
		c-0.8-0.4-1.9-0.6-3.1-0.6c-1.7,0-3.2,0.6-3.2,2.1c0,1.2,1,2,2.8,2C404.2,115.5,405.4,114.8,406.1,114z"/>
	<path class="st2" d="M417.3,117v1.2h-3.5V98.1l3.5-1.6v7.5c0.8-0.9,1.9-1.5,3.4-1.5c3.7,0,6.4,3,6.4,8c0,5.2-2.5,8-6.4,8
		C419,118.5,418,117.9,417.3,117z M423.6,110.5c0-3-1.2-4.7-3.3-4.7c-1.5,0-2.5,0.8-3,1.5v6.4c0.6,1,1.6,1.5,3,1.5
		C422.4,115.2,423.6,113.4,423.6,110.5z"/>
	<path class="st2" d="M430.1,110.5c0-5,2.7-8,7-8c4.3,0,7.1,3,7.1,8c0,5-2.7,8-7.1,8C432.8,118.5,430.1,115.6,430.1,110.5z
		 M440.6,110.5c0-2.9-1.3-4.7-3.5-4.7c-2.1,0-3.5,1.8-3.5,4.7c0,2.9,1.4,4.6,3.5,4.6C439.3,115.2,440.6,113.4,440.6,110.5z"/>
	<path class="st2" d="M448.7,114.6v-8.7h-2.3v-3.1h2.3v-4.7l3.5-1.7v6.3h3.5v3.1h-3.5v8c0,0.9,0.4,1.5,1.3,1.5
		c0.8,0,1.6-0.2,2.4-0.7l-0.4,3.1c-0.9,0.5-1.9,0.7-3.2,0.7C449.8,118.5,448.7,117,448.7,114.6z"/>
	<path class="st2" d="M467.9,117c-0.8,0.8-2,1.6-4.1,1.6c-3.1,0-5.5-1.7-5.5-5.1c0-3.5,3-5.1,6-5.1c1.4,0,2.7,0.3,3.6,0.8v-0.8
		c0-2-1-2.8-3-2.8c-1.9,0-3.3,0.5-4.6,1.4l-1.1-2.9c1.4-0.9,3.4-1.7,6-1.7c2.7,0,6.1,0.7,6.1,5.8v9.9h-3.4V117z M467.9,114v-2
		c-0.8-0.4-1.9-0.6-3.1-0.6c-1.7,0-3.2,0.6-3.2,2.1c0,1.2,1,2,2.8,2C466,115.5,467.1,114.8,467.9,114z"/>
	<path class="st2" d="M479,121.4c4.3-0.3,5.6-1.3,5.6-3.3v-0.9c-0.9,1-2.1,1.4-3.5,1.4c-3.6,0-6.3-2.7-6.3-8c0-5,2.6-8,6.4-8
		c1.6,0,2.7,0.6,3.4,1.3v-0.9h3.5v13.8c0,5.1-1.9,7.1-7.2,7.5L479,121.4z M484.5,113.7v-6.4c-0.5-0.8-1.5-1.5-2.9-1.5
		c-2.2,0-3.4,1.6-3.4,4.7c0,2.8,1.2,4.7,3.4,4.7C482.9,115.2,483.9,114.6,484.5,113.7z"/>
	<path class="st2" d="M491.8,110.5c0-5,2.8-8,7.1-8c3.7,0,6.7,2.3,6.7,7.2c0,0.6,0,1.5-0.1,2.2h-10.2c0.1,2.2,1.8,3.6,3.6,3.6
		c1.3,0,2.4-0.5,3.2-1.6l2.2,2.3c-1.2,1.4-3,2.4-5.5,2.4C494.5,118.5,491.8,115.5,491.8,110.5z M502.1,108.9
		c-0.1-2.3-1.6-3.4-3.2-3.4c-1.9,0-3.4,1-3.6,3.4H502.1z"/>
	<path class="st2" d="M508.4,110.5c0-5,2.7-8,6.4-8c1.6,0,2.7,0.6,3.5,1.4v-5.8l3.5-1.6v21.7h-3.5v-1.1c-0.7,0.9-1.8,1.5-3.5,1.5
		C510.9,118.5,508.4,115.6,508.4,110.5z M518.2,113.7v-6.4c-0.5-0.7-1.4-1.5-2.9-1.5c-2.2,0-3.4,1.6-3.4,4.7c0,2.8,1.2,4.7,3.4,4.7
		C516.6,115.2,517.6,114.7,518.2,113.7z"/>
	<path class="st2" d="M57.8,138.9h3.5v1.6c0.6-1.3,1.6-2,3.1-2c1.1,0,2.1,0.4,2.9,1l-0.5,3.2c-0.6-0.5-1.4-0.8-2.6-0.8
		c-1.4,0-2.9,0.8-2.9,3.7v8.6h-3.5V138.9z"/>
	<path class="st2" d="M69.1,146.5c0-5,2.7-8,7-8c4.3,0,7,3,7,8c0,5-2.7,8-7,8C71.8,154.5,69.1,151.6,69.1,146.5z M79.6,146.5
		c0-2.9-1.4-4.7-3.5-4.7c-2.1,0-3.5,1.8-3.5,4.7c0,2.9,1.4,4.6,3.5,4.6C78.3,151.2,79.6,149.4,79.6,146.5z"/>
	<path class="st2" d="M90.4,153v1.2h-3.5v-20.1l3.5-1.6v7.5c0.8-0.9,1.9-1.5,3.4-1.5c3.7,0,6.4,3,6.4,8c0,5.2-2.5,8-6.4,8
		C92.2,154.5,91.1,153.9,90.4,153z M96.7,146.5c0-3-1.2-4.7-3.3-4.7c-1.5,0-2.5,0.8-3,1.5v6.4c0.6,1,1.6,1.5,3,1.5
		C95.5,151.2,96.7,149.4,96.7,146.5z"/>
	<path class="st2" d="M103.2,146.5c0-5,2.7-8,7-8c4.3,0,7,3,7,8c0,5-2.7,8-7,8C105.9,154.5,103.2,151.6,103.2,146.5z M113.8,146.5
		c0-2.9-1.4-4.7-3.5-4.7c-2.1,0-3.5,1.8-3.5,4.7c0,2.9,1.4,4.6,3.5,4.6C112.4,151.2,113.8,149.4,113.8,146.5z"/>
	<path class="st2" d="M121.9,150.6v-8.7h-2.3v-3.1h2.3v-4.7l3.5-1.7v6.3h3.5v3.1h-3.5v8c0,0.9,0.4,1.5,1.3,1.5
		c0.8,0,1.6-0.2,2.4-0.7l-0.4,3.1c-0.9,0.5-1.9,0.7-3.2,0.7C122.9,154.5,121.9,153,121.9,150.6z"/>
	<path class="st2" d="M131.4,151.9l2.4-2c0.6,0.6,1.9,1.6,3.6,1.6c1.4,0,2.5-0.4,2.5-1.5c0-1.1-1.2-1.6-3-2.2
		c-3.3-1.1-5.1-2.4-5.1-5c0-2.8,2.4-4.3,5.5-4.3c2.6,0,4.4,1.1,5.5,2.4l-2.4,2c-0.8-0.7-1.6-1.3-3.1-1.3c-1.3,0-2.1,0.5-2.1,1.3
		c0,0.9,1.4,1.5,3,2c3,1,5,2.2,5,5.2c0,3-2.3,4.6-5.9,4.6C134.9,154.5,132.5,153.5,131.4,151.9z"/>
	<path class="st2" d="M154.3,134.1l3.5-1.6v7.8c1-1.2,2.3-1.8,4-1.8c2.9,0,5.4,1.6,5.4,6.3v9.4h-3.5v-8.8c0-2.5-1.1-3.5-2.9-3.5
		c-1.8,0-3.1,0.9-3.1,3.5v8.9h-3.5V134.1z"/>
	<path class="st2" d="M180.4,153c-0.8,0.8-2,1.6-4.1,1.6c-3.1,0-5.5-1.7-5.5-5.1c0-3.5,3-5.1,6-5.1c1.4,0,2.7,0.3,3.6,0.8v-0.8
		c0-2-1-2.8-3-2.8c-1.9,0-3.3,0.5-4.6,1.4l-1.1-2.9c1.4-0.9,3.4-1.7,6-1.7c2.7,0,6.1,0.7,6.1,5.8v9.9h-3.4V153z M180.4,150v-2
		c-0.8-0.4-1.9-0.6-3.1-0.6c-1.7,0-3.1,0.6-3.1,2.1c0,1.2,1,2,2.8,2C178.5,151.5,179.6,150.8,180.4,150z"/>
	<path class="st2" d="M186.2,138.9h3.6l3.4,9.6c0.2,0.5,0.3,0.9,0.4,1.4c0.1-0.5,0.2-0.9,0.4-1.4l3.3-9.6h3.6l-5.6,15.3h-3.5
		L186.2,138.9z"/>
	<path class="st2" d="M203,146.5c0-5,2.8-8,7.1-8c3.7,0,6.7,2.3,6.7,7.2c0,0.6,0,1.5-0.1,2.2h-10.2c0.1,2.2,1.8,3.6,3.6,3.6
		c1.4,0,2.4-0.5,3.2-1.6l2.2,2.3c-1.2,1.4-3,2.4-5.5,2.4C205.7,154.5,203,151.5,203,146.5z M213.3,144.9c-0.1-2.3-1.6-3.4-3.2-3.4
		c-1.9,0-3.4,1-3.6,3.4H213.3z"/>
	<path class="st2" d="M231.2,153v1.2h-3.5v-20.1l3.5-1.6v7.5c0.8-0.9,1.9-1.5,3.4-1.5c3.7,0,6.4,3,6.4,8c0,5.2-2.5,8-6.4,8
		C233,154.5,232,153.9,231.2,153z M237.5,146.5c0-3-1.2-4.7-3.3-4.7c-1.5,0-2.5,0.8-3,1.5v6.4c0.6,1,1.6,1.5,3,1.5
		C236.4,151.2,237.5,149.4,237.5,146.5z"/>
	<path class="st2" d="M244,146.5c0-5,2.8-8,7.1-8c3.7,0,6.7,2.3,6.7,7.2c0,0.6,0,1.5-0.1,2.2h-10.2c0.1,2.2,1.8,3.6,3.6,3.6
		c1.4,0,2.4-0.5,3.2-1.6l2.2,2.3c-1.2,1.4-3,2.4-5.5,2.4C246.8,154.5,244,151.5,244,146.5z M254.3,144.9c-0.1-2.3-1.6-3.4-3.2-3.4
		c-1.9,0-3.4,1-3.6,3.4H254.3z"/>
	<path class="st2" d="M260.7,146.5c0-5,2.8-8,7.1-8c3.7,0,6.7,2.3,6.7,7.2c0,0.6,0,1.5-0.1,2.2h-10.2c0.1,2.2,1.8,3.6,3.6,3.6
		c1.4,0,2.4-0.5,3.2-1.6l2.2,2.3c-1.2,1.4-3,2.4-5.5,2.4C263.4,154.5,260.7,151.5,260.7,146.5z M271,144.9c-0.1-2.3-1.6-3.4-3.2-3.4
		c-1.9,0-3.4,1-3.6,3.4H271z"/>
	<path class="st2" d="M287.5,145.4c0-2.5-1.1-3.6-2.9-3.6c-1.9,0-3.1,1-3.1,3.5v8.8H278v-15.3h3.5v1.4c1-1.2,2.3-1.8,4-1.8
		c2.9,0,5.4,1.6,5.4,6.3v9.4h-3.5V145.4z"/>
	<path class="st2" d="M311.5,153c-0.8,0.8-2,1.6-4.1,1.6c-3.2,0-5.6-1.7-5.6-5.1c0-3.5,3-5.1,6-5.1c1.4,0,2.7,0.3,3.6,0.8v-0.8
		c0-2-1-2.8-3-2.8c-1.9,0-3.3,0.5-4.6,1.4l-1.1-2.9c1.4-0.9,3.4-1.7,6-1.7c2.7,0,6.1,0.7,6.1,5.8v9.9h-3.4V153z M311.5,150v-2
		c-0.8-0.4-1.9-0.6-3.1-0.6c-1.7,0-3.1,0.6-3.1,2.1c0,1.2,1,2,2.8,2C309.5,151.5,310.7,150.8,311.5,150z"/>
	<path class="st2" d="M318.3,146.5c0-5,2.7-8,6.8-8c3,0,5.2,1.3,6.1,4.2l-3.3,1.1c-0.4-1.2-1.4-2-2.6-2c-2.1,0-3.4,1.8-3.4,4.7
		c0,2.8,1.3,4.6,3.3,4.6c1.4,0,2.4-0.8,2.8-2.2l3.4,1c-0.9,3-3,4.6-6.2,4.6C321,154.5,318.3,151.6,318.3,146.5z"/>
	<path class="st2" d="M335.8,150.6v-8.7h-2.3v-3.1h2.3v-4.7l3.5-1.7v6.3h3.5v3.1h-3.5v8c0,0.9,0.4,1.5,1.3,1.5
		c0.8,0,1.6-0.2,2.4-0.7l-0.4,3.1c-0.9,0.5-1.9,0.7-3.2,0.7C336.8,154.5,335.8,153,335.8,150.6z"/>
	<path class="st2" d="M346.1,134.7c0-1.1,0.9-2.1,2.1-2.1s2.1,0.9,2.1,2.1c0,1.2-0.9,2.1-2.1,2.1S346.1,135.8,346.1,134.7z
		 M346.4,138.9h3.5v15.3h-3.5V138.9z"/>
	<path class="st2" d="M353,138.9h3.6l3.4,9.6c0.2,0.5,0.3,0.9,0.4,1.4c0.1-0.5,0.2-0.9,0.4-1.4l3.3-9.6h3.6l-5.6,15.3h-3.5
		L353,138.9z"/>
	<path class="st2" d="M379.2,153c-0.8,0.8-2,1.6-4.1,1.6c-3.2,0-5.6-1.7-5.6-5.1c0-3.5,3-5.1,6-5.1c1.4,0,2.7,0.3,3.6,0.8v-0.8
		c0-2-1-2.8-3-2.8c-1.9,0-3.3,0.5-4.6,1.4l-1.1-2.9c1.4-0.9,3.4-1.7,6-1.7c2.7,0,6.1,0.7,6.1,5.8v9.9h-3.4V153z M379.2,150v-2
		c-0.8-0.4-1.9-0.6-3.1-0.6c-1.7,0-3.2,0.6-3.2,2.1c0,1.2,1,2,2.8,2C377.2,151.5,378.4,150.8,379.2,150z"/>
	<path class="st2" d="M387.7,150.6v-8.7h-2.3v-3.1h2.3v-4.7l3.5-1.7v6.3h3.5v3.1h-3.5v8c0,0.9,0.4,1.5,1.3,1.5
		c0.8,0,1.6-0.2,2.4-0.7l-0.4,3.1c-0.9,0.5-2,0.7-3.2,0.7C388.8,154.5,387.7,153,387.7,150.6z"/>
	<path class="st2" d="M397.4,146.5c0-5,2.8-8,7.1-8c3.7,0,6.7,2.3,6.7,7.2c0,0.6,0,1.5-0.1,2.2h-10.2c0.1,2.2,1.8,3.6,3.6,3.6
		c1.3,0,2.4-0.5,3.2-1.6l2.2,2.3c-1.2,1.4-3,2.4-5.5,2.4C400.1,154.5,397.4,151.5,397.4,146.5z M407.7,144.9
		c-0.1-2.3-1.6-3.4-3.2-3.4c-1.9,0-3.4,1-3.6,3.4H407.7z"/>
	<path class="st2" d="M414,146.5c0-5,2.7-8,6.4-8c1.6,0,2.7,0.6,3.5,1.4v-5.8l3.5-1.6v21.7h-3.5v-1.1c-0.7,0.9-1.8,1.5-3.5,1.5
		C416.5,154.5,414,151.6,414,146.5z M423.8,149.7v-6.4c-0.5-0.7-1.4-1.5-2.9-1.5c-2.2,0-3.4,1.6-3.4,4.7c0,2.8,1.2,4.7,3.4,4.7
		C422.2,151.2,423.2,150.7,423.8,149.7z"/>
	<path class="st2" d="M432.6,154.5c-1-0.2-1.9-1-1.9-2.2c0-1.4,1.1-2.4,2.4-2.4c1.3,0,2.5,1,2.5,2.8c0,2.3-1.6,4.6-3.5,5.7l-1.4-1
		C431.2,156.9,432.4,155.6,432.6,154.5z"/>
	<path class="st2" d="M454.9,153c-0.8,0.8-2,1.6-4.1,1.6c-3.2,0-5.6-1.7-5.6-5.1c0-3.5,3-5.1,6-5.1c1.4,0,2.7,0.3,3.6,0.8v-0.8
		c0-2-1-2.8-3-2.8c-1.9,0-3.3,0.5-4.6,1.4l-1.1-2.9c1.4-0.9,3.4-1.7,6-1.7c2.7,0,6.1,0.7,6.1,5.8v9.9h-3.4V153z M454.9,150v-2
		c-0.8-0.4-1.9-0.6-3.1-0.6c-1.7,0-3.2,0.6-3.2,2.1c0,1.2,1,2,2.8,2C453,151.5,454.2,150.8,454.9,150z"/>
	<path class="st2" d="M472,145.4c0-2.5-1.1-3.6-2.8-3.6c-1.9,0-3.1,1-3.1,3.5v8.8h-3.5v-15.3h3.5v1.4c1-1.2,2.3-1.8,4.1-1.8
		c2.9,0,5.4,1.6,5.4,6.3v9.4H472V145.4z"/>
	<path class="st2" d="M479.1,146.5c0-5,2.7-8,6.4-8c1.6,0,2.7,0.6,3.5,1.4v-5.8l3.5-1.6v21.7H489v-1.1c-0.7,0.9-1.8,1.5-3.5,1.5
		C481.6,154.5,479.1,151.6,479.1,146.5z M489,149.7v-6.4c-0.5-0.7-1.4-1.5-2.9-1.5c-2.2,0-3.4,1.6-3.4,4.7c0,2.8,1.2,4.7,3.4,4.7
		C487.4,151.2,488.3,150.7,489,149.7z"/>
	<path class="st2" d="M62.1,189.9l-5.8-15.1h3.5l3.6,9.4c0.2,0.5,0.3,0.9,0.4,1.4c0.1-0.5,0.2-0.9,0.4-1.4l3.6-9.4h3.5L63.3,196
		h-3.6L62.1,189.9z"/>
	<path class="st2" d="M73.5,182.5c0-5,2.7-8,7-8c4.3,0,7,3,7,8c0,5-2.7,8-7,8C76.3,190.5,73.5,187.6,73.5,182.5z M84.1,182.5
		c0-2.9-1.4-4.7-3.5-4.7c-2.1,0-3.5,1.8-3.5,4.7c0,2.9,1.4,4.6,3.5,4.6C82.7,187.2,84.1,185.4,84.1,182.5z"/>
	<path class="st2" d="M100.7,188.7c-1,1.2-2.3,1.8-4,1.8c-2.9,0-5.5-1.6-5.5-6.3v-9.4h3.5v8.8c0,2.5,1.1,3.6,2.9,3.6
		c1.9,0,3.1-1,3.1-3.5v-8.8h3.5v15.3h-3.5V188.7z"/>
	<path class="st2" d="M116,170.1l3.5-1.6v7.8c1-1.2,2.3-1.8,4-1.8c2.9,0,5.4,1.6,5.4,6.3v9.4h-3.5v-8.8c0-2.5-1.1-3.5-2.9-3.5
		c-1.8,0-3.1,0.9-3.1,3.5v8.9H116V170.1z"/>
	<path class="st2" d="M142.1,189c-0.8,0.8-2,1.6-4.1,1.6c-3.1,0-5.5-1.7-5.5-5.1c0-3.5,3-5.1,6-5.1c1.4,0,2.7,0.3,3.6,0.8v-0.8
		c0-2-1-2.8-3-2.8c-1.9,0-3.3,0.5-4.6,1.4l-1.1-2.9c1.4-0.9,3.4-1.7,6-1.7c2.7,0,6.1,0.7,6.1,5.8v9.9h-3.4V189z M142.1,186v-2
		c-0.8-0.4-1.9-0.6-3.1-0.6c-1.7,0-3.1,0.6-3.1,2.1c0,1.2,1,2,2.8,2C140.2,187.5,141.3,186.8,142.1,186z"/>
	<path class="st2" d="M147.9,174.9h3.6l3.4,9.6c0.2,0.5,0.3,0.9,0.4,1.4c0.1-0.5,0.2-0.9,0.4-1.4l3.3-9.6h3.6l-5.6,15.3h-3.5
		L147.9,174.9z"/>
	<path class="st2" d="M164.7,182.5c0-5,2.8-8,7.1-8c3.7,0,6.7,2.3,6.7,7.2c0,0.6,0,1.5-0.1,2.2h-10.2c0.1,2.2,1.8,3.6,3.6,3.6
		c1.4,0,2.4-0.5,3.2-1.6l2.2,2.3c-1.2,1.4-3,2.4-5.5,2.4C167.5,190.5,164.7,187.5,164.7,182.5z M175,180.9c-0.1-2.3-1.6-3.4-3.2-3.4
		c-1.9,0-3.4,1-3.6,3.4H175z"/>
	<path class="st2" d="M190.4,186.6v-8.7h-2.3v-3.1h2.3v-4.7l3.5-1.7v6.3h3.5v3.1h-3.5v8c0,0.9,0.4,1.5,1.3,1.5
		c0.8,0,1.6-0.2,2.4-0.7l-0.4,3.1c-0.9,0.5-1.9,0.7-3.2,0.7C191.4,190.5,190.4,189,190.4,186.6z"/>
	<path class="st2" d="M200,182.5c0-5,2.8-8,7.1-8c3.7,0,6.7,2.3,6.7,7.2c0,0.6,0,1.5-0.1,2.2h-10.2c0.1,2.2,1.8,3.6,3.6,3.6
		c1.4,0,2.4-0.5,3.2-1.6l2.2,2.3c-1.2,1.4-3,2.4-5.5,2.4C202.8,190.5,200,187.5,200,182.5z M210.3,180.9c-0.1-2.3-1.6-3.4-3.2-3.4
		c-1.9,0-3.4,1-3.6,3.4H210.3z"/>
	<path class="st2" d="M226.9,181.4c0-2.5-1.1-3.6-2.8-3.6c-1.9,0-3.1,1-3.1,3.5v8.8h-3.5v-15.3h3.5v1.4c1-1.2,2.3-1.8,4-1.8
		c2.9,0,5.4,1.6,5.4,6.3v9.4h-3.5V181.4z"/>
	<path class="st2" d="M241,187.9l2.4-2c0.6,0.6,1.9,1.6,3.6,1.6c1.4,0,2.5-0.4,2.5-1.5c0-1.1-1.2-1.6-3-2.2c-3.3-1.1-5.1-2.4-5.1-5
		c0-2.8,2.4-4.3,5.5-4.3c2.6,0,4.4,1.1,5.5,2.4l-2.4,2c-0.8-0.7-1.6-1.3-3.1-1.3c-1.3,0-2.1,0.5-2.1,1.3c0,0.9,1.4,1.5,3,2
		c3,1,5,2.2,5,5.2c0,3-2.3,4.6-5.9,4.6C244.6,190.5,242.2,189.5,241,187.9z"/>
	<path class="st2" d="M255.8,182.5c0-5,2.8-8,7.1-8c3.7,0,6.7,2.3,6.7,7.2c0,0.6,0,1.5-0.1,2.2h-10.2c0.1,2.2,1.8,3.6,3.6,3.6
		c1.4,0,2.4-0.5,3.2-1.6l2.2,2.3c-1.2,1.4-3,2.4-5.5,2.4C258.5,190.5,255.8,187.5,255.8,182.5z M266.1,180.9
		c-0.1-2.3-1.6-3.4-3.2-3.4c-1.9,0-3.4,1-3.6,3.4H266.1z"/>
	<path class="st2" d="M272.4,182.5c0-5,2.7-8,6.8-8c3,0,5.2,1.3,6.1,4.2l-3.3,1.1c-0.5-1.2-1.4-2-2.6-2c-2.1,0-3.4,1.8-3.4,4.7
		c0,2.8,1.3,4.6,3.3,4.6c1.4,0,2.4-0.8,2.8-2.2l3.4,1c-0.9,3-3,4.6-6.1,4.6C275.1,190.5,272.4,187.6,272.4,182.5z"/>
	<path class="st2" d="M288.3,182.5c0-5,2.7-8,7-8c4.3,0,7,3,7,8c0,5-2.7,8-7,8C291.1,190.5,288.3,187.6,288.3,182.5z M298.9,182.5
		c0-2.9-1.4-4.7-3.5-4.7c-2.1,0-3.5,1.8-3.5,4.7c0,2.9,1.4,4.6,3.5,4.6C297.5,187.2,298.9,185.4,298.9,182.5z"/>
	<path class="st2" d="M315.6,181.4c0-2.5-1.1-3.6-2.8-3.6c-1.9,0-3.1,1-3.1,3.5v8.8h-3.5v-15.3h3.5v1.4c1-1.2,2.3-1.8,4-1.8
		c2.9,0,5.4,1.6,5.4,6.3v9.4h-3.5V181.4z"/>
	<path class="st2" d="M322.7,182.5c0-5,2.7-8,6.4-8c1.6,0,2.7,0.6,3.4,1.4v-5.8l3.5-1.6v21.7h-3.5v-1.1c-0.7,0.9-1.8,1.5-3.4,1.5
		C325.2,190.5,322.7,187.6,322.7,182.5z M332.5,185.7v-6.4c-0.4-0.7-1.4-1.5-2.9-1.5c-2.2,0-3.4,1.6-3.4,4.7c0,2.8,1.2,4.7,3.4,4.7
		C331,187.2,331.9,186.7,332.5,185.7z"/>
	<path class="st2" d="M339.5,187.9l2.4-2c0.6,0.6,1.9,1.6,3.6,1.6c1.4,0,2.5-0.4,2.5-1.5c0-1.1-1.2-1.6-3-2.2
		c-3.3-1.1-5.1-2.4-5.1-5c0-2.8,2.4-4.3,5.5-4.3c2.6,0,4.4,1.1,5.5,2.4l-2.4,2c-0.8-0.7-1.7-1.3-3.1-1.3c-1.3,0-2.1,0.5-2.1,1.3
		c0,0.9,1.4,1.5,3,2c3,1,5,2.2,5,5.2c0,3-2.3,4.6-5.9,4.6C343,190.5,340.6,189.5,339.5,187.9z"/>
	<path class="st2" d="M363.4,186.6v-8.7h-2.3v-3.1h2.3v-4.7l3.5-1.7v6.3h3.5v3.1h-3.5v8c0,0.9,0.4,1.5,1.3,1.5
		c0.8,0,1.6-0.2,2.4-0.7l-0.4,3.1c-0.9,0.5-1.9,0.7-3.2,0.7C364.4,190.5,363.4,189,363.4,186.6z"/>
	<path class="st2" d="M373,182.5c0-5,2.7-8,7-8c4.3,0,7,3,7,8c0,5-2.7,8-7,8C375.8,190.5,373,187.6,373,182.5z M383.6,182.5
		c0-2.9-1.3-4.7-3.5-4.7c-2.1,0-3.5,1.8-3.5,4.7c0,2.9,1.4,4.6,3.5,4.6C382.3,187.2,383.6,185.4,383.6,182.5z"/>
	<path class="st2" d="M397.5,182.5c0-5,2.7-8,6.4-8c1.6,0,2.7,0.6,3.5,1.4v-5.8l3.5-1.6v21.7h-3.5v-1.1c-0.7,0.9-1.8,1.5-3.5,1.5
		C400,190.5,397.5,187.6,397.5,182.5z M407.3,185.7v-6.4c-0.5-0.7-1.4-1.5-2.9-1.5c-2.2,0-3.4,1.6-3.4,4.7c0,2.8,1.2,4.7,3.4,4.7
		C405.7,187.2,406.6,186.7,407.3,185.7z"/>
	<path class="st2" d="M414.5,182.5c0-5,2.8-8,7.1-8c3.7,0,6.7,2.3,6.7,7.2c0,0.6,0,1.5-0.1,2.2H418c0.1,2.2,1.8,3.6,3.6,3.6
		c1.3,0,2.4-0.5,3.2-1.6l2.2,2.3c-1.2,1.4-3,2.4-5.5,2.4C417.3,190.5,414.5,187.5,414.5,182.5z M424.8,180.9
		c-0.2-2.3-1.6-3.4-3.2-3.4c-1.9,0-3.4,1-3.6,3.4H424.8z"/>
	<path class="st2" d="M436.3,190.2h-3.5v-12.3h-2.2v-3.1h2.2v-2.4c0-2.9,1.8-3.6,3.6-3.6c1.2,0,2.2,0.2,3.2,0.7v2.9
		c-1-0.4-1.7-0.5-2.2-0.5c-0.8,0-1.2,0.5-1.2,1.2v1.7h3.4v3.1h-3.4V190.2z"/>
	<path class="st2" d="M451.6,188.7c-1,1.2-2.3,1.8-4,1.8c-2.9,0-5.5-1.6-5.5-6.3v-9.4h3.5v8.8c0,2.5,1.1,3.6,2.9,3.6
		c1.9,0,3.1-1,3.1-3.5v-8.8h3.5v15.3h-3.5V188.7z"/>
	<path class="st2" d="M458.5,187.9l2.4-2c0.6,0.6,1.9,1.6,3.6,1.6c1.4,0,2.5-0.4,2.5-1.5c0-1.1-1.2-1.6-3-2.2
		c-3.3-1.1-5.1-2.4-5.1-5c0-2.8,2.4-4.3,5.5-4.3c2.6,0,4.4,1.1,5.5,2.4l-2.4,2c-0.8-0.7-1.7-1.3-3.1-1.3c-1.3,0-2.1,0.5-2.1,1.3
		c0,0.9,1.4,1.5,3,2c3,1,5,2.2,5,5.2c0,3-2.3,4.6-5.9,4.6C462.1,190.5,459.7,189.5,458.5,187.9z"/>
	<path class="st2" d="M473.3,182.5c0-5,2.8-8,7.1-8c3.7,0,6.7,2.3,6.7,7.2c0,0.6,0,1.5-0.1,2.2h-10.2c0.1,2.2,1.8,3.6,3.6,3.6
		c1.3,0,2.4-0.5,3.2-1.6l2.2,2.3c-1.2,1.4-3,2.4-5.5,2.4C476,190.5,473.3,187.5,473.3,182.5z M483.6,180.9c-0.2-2.3-1.6-3.4-3.2-3.4
		c-1.9,0-3.4,1-3.6,3.4H483.6z"/>
	<path class="st2" d="M58.7,222.6v-8.7h-2.3v-3.1h2.3v-4.7l3.5-1.7v6.3h3.5v3.1h-3.5v8c0,0.9,0.4,1.5,1.3,1.5c0.8,0,1.6-0.2,2.4-0.7
		l-0.4,3.1c-0.9,0.5-1.9,0.7-3.2,0.7C59.8,226.5,58.7,225,58.7,222.6z"/>
	<path class="st2" d="M69.4,206.1l3.5-1.6v7.8c1-1.2,2.3-1.8,4-1.8c2.9,0,5.4,1.6,5.4,6.3v9.4h-3.5v-8.8c0-2.5-1.1-3.5-2.9-3.5
		c-1.8,0-3.1,0.9-3.1,3.5v8.9h-3.5V206.1z"/>
	<path class="st2" d="M86,218.5c0-5,2.8-8,7.1-8c3.7,0,6.7,2.3,6.7,7.2c0,0.6,0,1.5-0.1,2.2H89.5c0.1,2.2,1.8,3.6,3.6,3.6
		c1.4,0,2.4-0.5,3.2-1.6l2.2,2.3c-1.2,1.4-3,2.4-5.5,2.4C88.7,226.5,86,223.5,86,218.5z M96.3,216.9c-0.1-2.3-1.6-3.4-3.2-3.4
		c-1.9,0-3.4,1-3.6,3.4H96.3z"/>
	<path class="st2" d="M121.3,217.4c0-2.4-0.8-3.6-2.6-3.6c-1.8,0-2.9,1.2-2.9,3.6v8.7h-3.5v-8.8c0-2.4-0.8-3.6-2.6-3.6
		c-1.7,0-2.9,1.2-2.9,3.6v8.7h-3.5v-15.3h3.5v1.4c0.9-1.2,2.2-1.8,3.8-1.8c1.8,0,3.2,0.7,4,2.2c1-1.5,2.6-2.2,4.6-2.2
		c3.2,0,5.6,1.6,5.6,5.9v9.8h-3.5V217.4z"/>
	<path class="st2" d="M128,224.2c0-1.3,1-2.3,2.4-2.3c1.3,0,2.4,1.1,2.4,2.3c0,1.3-1.1,2.3-2.4,2.3C129.1,226.5,128,225.5,128,224.2
		z"/>
	<path class="st2" d="M143.1,215.7c0-4.8,2.3-10.9,8.8-10.9c4,0,6.4,2.2,7.3,4.5l-3.2,1.5c-1-1.6-2.1-2.5-4.1-2.5
		c-3.9,0-5.1,4.1-5.1,7.4c0,3.5,1.5,7.4,5.1,7.4c1.9,0,3.1-1.1,4-2.7l3.3,1.3c-1.3,2.9-3.6,4.9-7.4,4.9
		C145.3,226.5,143.1,220.9,143.1,215.7z"/>
	<path class="st2" d="M163,206.2l3.5-1.7v21.7H163V206.2z"/>
	<path class="st2" d="M170.9,206.7c0-1.1,0.9-2.1,2.1-2.1s2.1,0.9,2.1,2.1c0,1.2-0.9,2.1-2.1,2.1S170.9,207.8,170.9,206.7z
		 M171.2,210.9h3.5v15.3h-3.5V210.9z"/>
	<path class="st2" d="M178.5,218.5c0-5,2.7-8,6.8-8c3,0,5.2,1.3,6.1,4.2l-3.3,1.1c-0.5-1.2-1.4-2-2.6-2c-2.1,0-3.4,1.8-3.4,4.7
		c0,2.8,1.3,4.6,3.3,4.6c1.4,0,2.4-0.8,2.8-2.2l3.4,1c-0.9,3-3,4.6-6.1,4.6C181.2,226.5,178.5,223.6,178.5,218.5z"/>
	<path class="st2" d="M204.8,226.2l-4.4-8.5l-1.7,1.7v6.8h-3.5v-20l3.5-1.7v10.8l4.3-4.4h4.3l-4.3,4.3l5.7,11H204.8z"/>
	<path class="st2" d="M228.1,225c-0.8,0.8-2,1.6-4.1,1.6c-3.1,0-5.5-1.7-5.5-5.1c0-3.5,3-5.1,6-5.1c1.4,0,2.7,0.3,3.6,0.8v-0.8
		c0-2-1-2.8-3-2.8c-1.9,0-3.3,0.5-4.6,1.4l-1.1-2.9c1.4-0.9,3.4-1.7,6-1.7c2.7,0,6.1,0.7,6.1,5.8v9.9h-3.4V225z M228.1,222v-2
		c-0.8-0.4-1.9-0.6-3.1-0.6c-1.7,0-3.1,0.6-3.1,2.1c0,1.2,1,2,2.8,2C226.1,223.5,227.3,222.8,228.1,222z"/>
	<path class="st2" d="M235.8,206.2l3.5-1.7v21.7h-3.5V206.2z"/>
	<path class="st2" d="M244.1,206.2l3.5-1.7v21.7h-3.5V206.2z"/>
	<path class="st2" d="M260.6,222.6v-8.7h-2.3v-3.1h2.3v-4.7l3.5-1.7v6.3h3.5v3.1h-3.5v8c0,0.9,0.4,1.5,1.3,1.5
		c0.8,0,1.6-0.2,2.4-0.7l-0.4,3.1c-0.9,0.5-1.9,0.7-3.2,0.7C261.6,226.5,260.6,225,260.6,222.6z"/>
	<path class="st2" d="M271.2,206.1l3.5-1.6v7.8c1-1.2,2.3-1.8,4-1.8c2.9,0,5.4,1.6,5.4,6.3v9.4h-3.5v-8.8c0-2.5-1.1-3.5-2.9-3.5
		c-1.8,0-3.1,0.9-3.1,3.5v8.9h-3.5V206.1z"/>
	<path class="st2" d="M287.8,218.5c0-5,2.8-8,7.1-8c3.7,0,6.7,2.3,6.7,7.2c0,0.6,0,1.5-0.1,2.2h-10.2c0.1,2.2,1.8,3.6,3.6,3.6
		c1.4,0,2.4-0.5,3.2-1.6l2.2,2.3c-1.2,1.4-3,2.4-5.5,2.4C290.5,226.5,287.8,223.5,287.8,218.5z M298.1,216.9
		c-0.1-2.3-1.6-3.4-3.2-3.4c-1.9,0-3.4,1-3.6,3.4H298.1z"/>
	<path class="st2" d="M316,225v1.2h-3.5v-20.1l3.5-1.6v7.5c0.8-0.9,1.9-1.5,3.4-1.5c3.7,0,6.4,3,6.4,8c0,5.2-2.5,8-6.4,8
		C317.8,226.5,316.8,225.9,316,225z M322.3,218.5c0-3-1.2-4.7-3.3-4.7c-1.5,0-2.5,0.8-3,1.5v6.4c0.6,1,1.6,1.5,3,1.5
		C321.2,223.2,322.3,221.4,322.3,218.5z"/>
	<path class="st2" d="M328.9,218.5c0-5,2.7-8,7-8c4.3,0,7.1,3,7.1,8c0,5-2.7,8-7.1,8C331.6,226.5,328.9,223.6,328.9,218.5z
		 M339.4,218.5c0-2.9-1.4-4.7-3.5-4.7c-2.1,0-3.5,1.8-3.5,4.7c0,2.9,1.4,4.6,3.5,4.6C338.1,223.2,339.4,221.4,339.4,218.5z"/>
	<path class="st2" d="M364.7,217.4c0-2.4-0.8-3.6-2.6-3.6c-1.8,0-2.9,1.2-2.9,3.6v8.7h-3.5v-8.8c0-2.4-0.8-3.6-2.6-3.6
		c-1.7,0-2.9,1.2-2.9,3.6v8.7h-3.5v-15.3h3.5v1.4c0.9-1.2,2.2-1.8,3.8-1.8c1.8,0,3.2,0.7,4,2.2c1-1.5,2.6-2.2,4.6-2.2
		c3.2,0,5.6,1.6,5.6,5.9v9.8h-3.5V217.4z"/>
	<path class="st2" d="M376,225v1.2h-3.5v-20.1l3.5-1.6v7.5c0.8-0.9,1.9-1.5,3.4-1.5c3.7,0,6.4,3,6.4,8c0,5.2-2.5,8-6.4,8
		C377.8,226.5,376.8,225.9,376,225z M382.3,218.5c0-3-1.2-4.7-3.3-4.7c-1.5,0-2.5,0.8-3,1.5v6.4c0.6,1,1.6,1.5,3,1.5
		C381.2,223.2,382.3,221.4,382.3,218.5z"/>
	<path class="st2" d="M389.6,215.6h7.6v3.4h-7.6V215.6z"/>
	<path class="st2" d="M401,218.5c0-5,2.7-8,6.8-8c3,0,5.2,1.3,6.1,4.2l-3.3,1.1c-0.4-1.2-1.4-2-2.6-2c-2.1,0-3.4,1.8-3.4,4.7
		c0,2.8,1.3,4.6,3.3,4.6c1.4,0,2.4-0.8,2.8-2.2l3.4,1c-0.9,3-3,4.6-6.2,4.6C403.6,226.5,401,223.6,401,218.5z"/>
	<path class="st2" d="M426.2,225c-0.8,0.8-2,1.6-4.1,1.6c-3.1,0-5.5-1.7-5.5-5.1c0-3.5,3-5.1,6-5.1c1.4,0,2.7,0.3,3.6,0.8v-0.8
		c0-2-1-2.8-3-2.8c-1.9,0-3.3,0.5-4.6,1.4l-1.1-2.9c1.4-0.9,3.4-1.7,6-1.7c2.7,0,6.1,0.7,6.1,5.8v9.9h-3.4V225z M426.2,222v-2
		c-0.8-0.4-1.9-0.6-3.1-0.6c-1.7,0-3.2,0.6-3.2,2.1c0,1.2,1,2,2.8,2C424.3,223.5,425.4,222.8,426.2,222z"/>
	<path class="st2" d="M433.8,210.9h3.5v1.6c0.6-1.3,1.6-2,3.1-2c1.1,0,2.1,0.4,2.9,1l-0.5,3.2c-0.6-0.5-1.4-0.8-2.6-0.8
		c-1.3,0-2.9,0.8-2.9,3.7v8.6h-3.5V210.9z"/>
	<path class="st2" d="M445.9,210.9h3.5v1.6c0.6-1.3,1.6-2,3.1-2c1.1,0,2.1,0.4,2.9,1l-0.5,3.2c-0.6-0.5-1.4-0.8-2.6-0.8
		c-1.3,0-2.9,0.8-2.9,3.7v8.6h-3.5V210.9z"/>
	<path class="st2" d="M462.5,225.9l-5.8-15.1h3.5l3.6,9.4c0.2,0.5,0.3,0.9,0.5,1.4c0.1-0.5,0.2-0.9,0.4-1.4l3.6-9.4h3.5l-8.1,21.1
		h-3.6L462.5,225.9z"/>
	<path class="st2" d="M474.6,206.7c0-1.1,0.9-2.1,2.1-2.1s2.1,0.9,2.1,2.1c0,1.2-0.9,2.1-2.1,2.1S474.6,207.8,474.6,206.7z
		 M474.9,210.9h3.5v15.3h-3.5V210.9z"/>
	<path class="st2" d="M492.4,217.4c0-2.5-1.1-3.6-2.8-3.6c-1.9,0-3.1,1-3.1,3.5v8.8h-3.5v-15.3h3.5v1.4c1-1.2,2.3-1.8,4.1-1.8
		c2.9,0,5.4,1.6,5.4,6.3v9.4h-3.5V217.4z"/>
	<path class="st2" d="M503.7,229.4c4.3-0.3,5.6-1.3,5.6-3.3v-0.9c-0.9,1-2.1,1.4-3.5,1.4c-3.6,0-6.3-2.7-6.3-8c0-5,2.6-8,6.4-8
		c1.6,0,2.7,0.6,3.5,1.3v-0.9h3.5v13.8c0,5.1-2,7.1-7.2,7.5L503.7,229.4z M509.3,221.7v-6.4c-0.5-0.8-1.5-1.5-2.9-1.5
		c-2.2,0-3.4,1.6-3.4,4.7c0,2.8,1.2,4.7,3.4,4.7C507.7,223.2,508.7,222.6,509.3,221.7z"/>
	<path class="st2" d="M61.3,261v1.2h-3.5v-20.1l3.5-1.6v7.5c0.8-0.9,1.9-1.5,3.4-1.5c3.7,0,6.4,3,6.4,8c0,5.2-2.5,8-6.4,8
		C63.1,262.5,62.1,261.9,61.3,261z M67.6,254.5c0-3-1.2-4.7-3.3-4.7c-1.5,0-2.5,0.8-3,1.5v6.4c0.6,1,1.6,1.5,3,1.5
		C66.5,259.2,67.6,257.4,67.6,254.5z"/>
	<path class="st2" d="M74.1,254.5c0-5,2.7-8,7-8c4.3,0,7,3,7,8c0,5-2.7,8-7,8C76.9,262.5,74.1,259.6,74.1,254.5z M84.7,254.5
		c0-2.9-1.4-4.7-3.5-4.7c-2.1,0-3.5,1.8-3.5,4.7c0,2.9,1.4,4.6,3.5,4.6C83.3,259.2,84.7,257.4,84.7,254.5z"/>
	<path class="st2" d="M92.8,258.6v-8.7h-2.3v-3.1h2.3v-4.7l3.5-1.7v6.3h3.5v3.1h-3.5v8c0,0.9,0.4,1.5,1.3,1.5c0.8,0,1.6-0.2,2.4-0.7
		l-0.4,3.1c-0.9,0.5-1.9,0.7-3.2,0.7C93.8,262.5,92.8,261,92.8,258.6z"/>
	<path class="st2" d="M102.3,259.9l2.4-2c0.6,0.6,1.9,1.6,3.6,1.6c1.4,0,2.5-0.4,2.5-1.5c0-1.1-1.2-1.6-3-2.2
		c-3.3-1.1-5.1-2.4-5.1-5c0-2.8,2.4-4.3,5.5-4.3c2.6,0,4.4,1.1,5.5,2.4l-2.4,2c-0.8-0.7-1.6-1.3-3.1-1.3c-1.3,0-2.1,0.5-2.1,1.3
		c0,0.9,1.4,1.5,3,2c3,1,5,2.2,5,5.2c0,3-2.3,4.6-5.9,4.6C105.8,262.5,103.4,261.5,102.3,259.9z"/>
	<path class="st2" d="M126.2,258.6v-8.7h-2.3v-3.1h2.3v-4.7l3.5-1.7v6.3h3.5v3.1h-3.5v8c0,0.9,0.4,1.5,1.3,1.5
		c0.8,0,1.6-0.2,2.4-0.7l-0.4,3.1c-0.9,0.5-1.9,0.7-3.2,0.7C127.2,262.5,126.2,261,126.2,258.6z"/>
	<path class="st2" d="M135.8,254.5c0-5,2.7-8,7-8c4.3,0,7,3,7,8c0,5-2.7,8-7,8C138.6,262.5,135.8,259.6,135.8,254.5z M146.4,254.5
		c0-2.9-1.4-4.7-3.5-4.7c-2.1,0-3.5,1.8-3.5,4.7c0,2.9,1.4,4.6,3.5,4.6C145,259.2,146.4,257.4,146.4,254.5z"/>
	<path class="st2" d="M160.3,254.5c0-5,2.7-8,6.4-8c1.6,0,2.7,0.6,3.4,1.4v-5.8l3.5-1.6v21.7h-3.5v-1.1c-0.7,0.9-1.8,1.5-3.4,1.5
		C162.7,262.5,160.3,259.6,160.3,254.5z M170.1,257.7v-6.4c-0.5-0.7-1.4-1.5-2.9-1.5c-2.2,0-3.4,1.6-3.4,4.7c0,2.8,1.2,4.7,3.4,4.7
		C168.5,259.2,169.4,258.7,170.1,257.7z"/>
	<path class="st2" d="M177.3,254.5c0-5,2.8-8,7.1-8c3.7,0,6.7,2.3,6.7,7.2c0,0.6,0,1.5-0.1,2.2h-10.2c0.1,2.2,1.8,3.6,3.6,3.6
		c1.4,0,2.4-0.5,3.2-1.6l2.2,2.3c-1.2,1.4-3,2.4-5.5,2.4C180.1,262.5,177.3,259.5,177.3,254.5z M187.6,252.9
		c-0.1-2.3-1.6-3.4-3.2-3.4c-1.9,0-3.4,1-3.6,3.4H187.6z"/>
	<path class="st2" d="M199.1,262.2h-3.5v-12.3h-2.2v-3.1h2.2v-2.4c0-2.9,1.8-3.6,3.6-3.6c1.2,0,2.2,0.2,3.2,0.7v2.9
		c-1-0.4-1.7-0.5-2.2-0.5c-0.8,0-1.2,0.5-1.2,1.2v1.7h3.4v3.1h-3.4V262.2z"/>
	<path class="st2" d="M214.4,260.7c-1,1.2-2.3,1.8-4,1.8c-2.9,0-5.5-1.6-5.5-6.3v-9.4h3.5v8.8c0,2.5,1.1,3.6,2.9,3.6
		c1.9,0,3.1-1,3.1-3.5v-8.8h3.5v15.3h-3.5V260.7z"/>
	<path class="st2" d="M221.3,259.9l2.4-2c0.6,0.6,1.9,1.6,3.6,1.6c1.4,0,2.5-0.4,2.5-1.5c0-1.1-1.2-1.6-3-2.2
		c-3.3-1.1-5.1-2.4-5.1-5c0-2.8,2.4-4.3,5.5-4.3c2.6,0,4.4,1.1,5.5,2.4l-2.4,2c-0.8-0.7-1.6-1.3-3.1-1.3c-1.3,0-2.1,0.5-2.1,1.3
		c0,0.9,1.4,1.5,3,2c3,1,5,2.2,5,5.2c0,3-2.3,4.6-5.9,4.6C224.8,262.5,222.5,261.5,221.3,259.9z"/>
	<path class="st2" d="M236.1,254.5c0-5,2.8-8,7.1-8c3.7,0,6.7,2.3,6.7,7.2c0,0.6,0,1.5-0.1,2.2h-10.2c0.1,2.2,1.8,3.6,3.6,3.6
		c1.4,0,2.4-0.5,3.2-1.6l2.2,2.3c-1.2,1.4-3,2.4-5.5,2.4C238.8,262.5,236.1,259.5,236.1,254.5z M246.4,252.9
		c-0.1-2.3-1.6-3.4-3.2-3.4c-1.9,0-3.4,1-3.6,3.4H246.4z"/>
	<path class="st2" d="M261.7,258.6v-8.7h-2.3v-3.1h2.3v-4.7l3.5-1.7v6.3h3.5v3.1h-3.5v8c0,0.9,0.4,1.5,1.3,1.5
		c0.8,0,1.6-0.2,2.4-0.7l-0.4,3.1c-0.9,0.5-1.9,0.7-3.2,0.7C262.8,262.5,261.7,261,261.7,258.6z"/>
	<path class="st2" d="M272.4,242.1l3.5-1.6v7.8c1-1.2,2.3-1.8,4-1.8c2.9,0,5.4,1.6,5.4,6.3v9.4h-3.5v-8.8c0-2.5-1.1-3.5-2.9-3.5
		c-1.8,0-3.1,0.9-3.1,3.5v8.9h-3.5V242.1z"/>
	<path class="st2" d="M289,254.5c0-5,2.8-8,7.1-8c3.7,0,6.7,2.3,6.7,7.2c0,0.6,0,1.5-0.1,2.2h-10.2c0.1,2.2,1.8,3.6,3.6,3.6
		c1.4,0,2.4-0.5,3.2-1.6l2.2,2.3c-1.2,1.4-3,2.4-5.5,2.4C291.7,262.5,289,259.5,289,254.5z M299.3,252.9c-0.1-2.3-1.6-3.4-3.2-3.4
		c-1.9,0-3.4,1-3.6,3.4H299.3z"/>
	<path class="st2" d="M324.4,253.4c0-2.4-0.8-3.6-2.6-3.6c-1.8,0-2.9,1.2-2.9,3.6v8.7h-3.5v-8.8c0-2.4-0.8-3.6-2.6-3.6
		c-1.7,0-2.9,1.2-2.9,3.6v8.7h-3.5v-15.3h3.5v1.4c0.9-1.2,2.2-1.8,3.8-1.8c1.8,0,3.2,0.7,4,2.2c1-1.5,2.6-2.2,4.6-2.2
		c3.2,0,5.6,1.6,5.6,5.9v9.8h-3.5V253.4z"/>
	<path class="st2" d="M331,260.2c0-1.3,1-2.3,2.4-2.3c1.3,0,2.4,1.1,2.4,2.3c0,1.3-1.1,2.3-2.4,2.3C332.1,262.5,331,261.5,331,260.2
		z"/>
</g>
</svg>
