<?xml version="1.0" encoding="utf-8"?>
<!-- Generator: Adobe Illustrator 20.0.0, SVG Export Plug-In . SVG Version: 6.00 Build 0)  -->
<svg version="1.1" id="Layer_1" xmlns="http://www.w3.org/2000/svg" xmlns:xlink="http://www.w3.org/1999/xlink" x="0px" y="0px"
	 viewBox="0 0 1241.9 774" style="enable-background:new 0 0 1241.9 774;" xml:space="preserve">
<style type="text/css">
	.st0{fill:#696969;}
	.st1{fill:#FFF911;}
	.st2{fill:#2BFFCE;}
</style>
<rect x="0" class="st0" width="1241.9" height="774"/>
<g>
	<polygon class="st1" points="312.4,79.1 330.8,79.1 338,72.5 319.7,72.5 	"/>
	<polygon class="st1" points="349.4,79.1 367.7,79.1 374.9,72.5 356.6,72.5 	"/>
	<polygon class="st1" points="386.4,79.1 404.7,79.1 411.9,72.5 393.6,72.5 	"/>
	<polygon class="st1" points="423.5,79.1 441.9,79.1 449.1,72.5 430.7,72.5 	"/>
	<polygon class="st1" points="460.5,79.1 478.8,79.1 486,72.5 467.7,72.5 	"/>
	<polygon class="st1" points="497.7,79.1 516,79.1 523.2,72.5 504.9,72.5 	"/>
	<polygon class="st1" points="534.6,79.1 552.9,79.1 560.1,72.5 541.8,72.5 	"/>
	<polygon class="st1" points="571.8,79.1 590.1,79.1 597.3,72.5 579,72.5 	"/>
	<polygon class="st1" points="16.5,79.1 34.8,79.1 42,72.5 23.7,72.5 	"/>
	<polygon class="st1" points="53.5,79.1 71.8,79.1 79,72.5 60.7,72.5 	"/>
	<polygon class="st1" points="90.4,79.1 108.7,79.1 116,72.5 97.6,72.5 	"/>
	<polygon class="st1" points="127.6,79.1 145.9,79.1 153.1,72.5 134.8,72.5 	"/>
	<polygon class="st1" points="164.6,79.1 182.9,79.1 190.1,72.5 171.8,72.5 	"/>
	<polygon class="st1" points="201.7,79.1 220.1,79.1 227.3,72.5 208.9,72.5 	"/>
	<polygon class="st1" points="238.7,79.1 257,79.1 264.2,72.5 245.9,72.5 	"/>
	<polygon class="st1" points="275.9,79.1 294.2,79.1 301.4,72.5 283.1,72.5 	"/>
	<polygon class="st1" points="905.1,79.1 923.4,79.1 930.6,72.5 912.3,72.5 	"/>
	<polygon class="st1" points="942.1,79.1 960.4,79.1 967.6,72.5 949.3,72.5 	"/>
	<polygon class="st1" points="979,79.1 997.3,79.1 1004.5,72.5 986.2,72.5 	"/>
	<polygon class="st1" points="1016.2,79.1 1034.5,79.1 1041.7,72.5 1023.4,72.5 	"/>
	<polygon class="st1" points="1053.1,79.1 1071.5,79.1 1078.7,72.5 1060.3,72.5 	"/>
	<polygon class="st1" points="1090.3,79.1 1108.6,79.1 1115.8,72.5 1097.5,72.5 	"/>
	<polygon class="st1" points="1127.3,79.1 1145.6,79.1 1152.8,72.5 1134.5,72.5 	"/>
	<polygon class="st1" points="1164.5,79.1 1182.8,79.1 1190,72.5 1171.7,72.5 	"/>
	<polygon class="st1" points="1208.6,72.5 1201.4,79.1 1219.7,79.1 1226.9,72.5 	"/>
	<polygon class="st1" points="616.4,72.5 616,72.5 608.8,79.1 609.2,79.1 627.1,79.1 627.5,79.1 634.7,72.5 634.3,72.5 	"/>
	<polygon class="st1" points="646.1,79.1 664.4,79.1 671.6,72.5 653.3,72.5 	"/>
	<polygon class="st1" points="683.1,79.1 701.4,79.1 708.6,72.5 690.3,72.5 	"/>
	<polygon class="st1" points="720.3,79.1 738.6,79.1 745.8,72.5 727.5,72.5 	"/>
	<polygon class="st1" points="757.2,79.1 775.5,79.1 782.7,72.5 764.4,72.5 	"/>
	<polygon class="st1" points="794.4,79.1 812.7,79.1 819.9,72.5 801.6,72.5 	"/>
	<polygon class="st1" points="831.3,79.1 849.7,79.1 856.9,72.5 838.6,72.5 	"/>
	<polygon class="st1" points="868.5,79.1 886.8,79.1 894,72.5 875.7,72.5 	"/>
</g>
<g>
	<polygon class="st1" points="312.4,759.7 330.8,759.7 338,753 319.7,753 	"/>
	<polygon class="st1" points="349.4,759.7 367.7,759.7 374.9,753 356.6,753 	"/>
	<polygon class="st1" points="386.4,759.7 404.7,759.7 411.9,753 393.6,753 	"/>
	<polygon class="st1" points="423.5,759.7 441.9,759.7 449.1,753 430.7,753 	"/>
	<polygon class="st1" points="460.5,759.7 478.8,759.7 486,753 467.7,753 	"/>
	<polygon class="st1" points="497.7,759.7 516,759.7 523.2,753 504.9,753 	"/>
	<polygon class="st1" points="534.6,759.7 552.9,759.7 560.1,753 541.8,753 	"/>
	<polygon class="st1" points="571.8,759.7 590.1,759.7 597.3,753 579,753 	"/>
	<polygon class="st1" points="16.5,759.7 34.8,759.7 42,753 23.7,753 	"/>
	<polygon class="st1" points="53.5,759.7 71.8,759.7 79,753 60.7,753 	"/>
	<polygon class="st1" points="90.4,759.7 108.7,759.7 116,753 97.6,753 	"/>
	<polygon class="st1" points="127.6,759.7 145.9,759.7 153.1,753 134.8,753 	"/>
	<polygon class="st1" points="164.6,759.7 182.9,759.7 190.1,753 171.8,753 	"/>
	<polygon class="st1" points="201.7,759.7 220.1,759.7 227.3,753 208.9,753 	"/>
	<polygon class="st1" points="238.7,759.7 257,759.7 264.2,753 245.9,753 	"/>
	<polygon class="st1" points="275.9,759.7 294.2,759.7 301.4,753 283.1,753 	"/>
	<polygon class="st1" points="905.1,759.7 923.4,759.7 930.6,753 912.3,753 	"/>
	<polygon class="st1" points="942.1,759.7 960.4,759.7 967.6,753 949.3,753 	"/>
	<polygon class="st1" points="979,759.7 997.3,759.7 1004.5,753 986.2,753 	"/>
	<polygon class="st1" points="1016.2,759.7 1034.5,759.7 1041.7,753 1023.4,753 	"/>
	<polygon class="st1" points="1053.1,759.7 1071.5,759.7 1078.7,753 1060.3,753 	"/>
	<polygon class="st1" points="1090.3,759.7 1108.6,759.7 1115.8,753 1097.5,753 	"/>
	<polygon class="st1" points="1127.3,759.7 1145.6,759.7 1152.8,753 1134.5,753 	"/>
	<polygon class="st1" points="1164.5,759.7 1182.8,759.7 1190,753 1171.7,753 	"/>
	<polygon class="st1" points="1208.6,753 1201.4,759.7 1219.7,759.7 1226.9,753 	"/>
	<polygon class="st1" points="616.4,753 616,753 608.8,759.7 609.2,759.7 627.1,759.7 627.5,759.7 634.7,753 634.3,753 	"/>
	<polygon class="st1" points="646.1,759.7 664.4,759.7 671.6,753 653.3,753 	"/>
	<polygon class="st1" points="683.1,759.7 701.4,759.7 708.6,753 690.3,753 	"/>
	<polygon class="st1" points="720.3,759.7 738.6,759.7 745.8,753 727.5,753 	"/>
	<polygon class="st1" points="757.2,759.7 775.5,759.7 782.7,753 764.4,753 	"/>
	<polygon class="st1" points="794.4,759.7 812.7,759.7 819.9,753 801.6,753 	"/>
	<polygon class="st1" points="831.3,759.7 849.7,759.7 856.9,753 838.6,753 	"/>
	<polygon class="st1" points="868.5,759.7 886.8,759.7 894,753 875.7,753 	"/>
</g>
<g>
	<polygon class="st1" points="16.6,744.7 16.6,727.8 23.8,721.1 23.8,738 	"/>
	<polygon class="st1" points="16.6,710.6 16.6,693.7 23.8,687.1 23.8,704 	"/>
	<polygon class="st1" points="16.6,676.5 16.6,659.6 23.8,653 23.8,669.9 	"/>
	<polygon class="st1" points="16.6,642.3 16.6,625.4 23.8,618.7 23.8,635.6 	"/>
	<polygon class="st1" points="16.6,608.2 16.6,591.3 23.8,584.7 23.8,601.6 	"/>
	<polygon class="st1" points="16.6,573.9 16.6,557 23.8,550.4 23.8,567.3 	"/>
	<polygon class="st1" points="16.6,539.9 16.6,523 23.8,516.3 23.8,533.2 	"/>
	<polygon class="st1" points="16.6,505.6 16.6,488.7 23.8,482.1 23.8,499 	"/>
	<polygon class="st1" points="16.6,198.4 16.6,181.5 23.8,174.9 23.8,191.7 	"/>
	<polygon class="st1" points="16.6,164.3 16.6,147.4 23.8,140.8 23.8,157.7 	"/>
	<polygon class="st1" points="16.6,130.3 16.6,113.4 23.8,106.7 23.8,123.6 	"/>
	<polygon class="st1" points="16.6,96 16.6,79.1 23.8,72.5 23.8,89.3 	"/>
	<polygon class="st1" points="23.8,464.5 23.8,464.9 16.6,471.5 16.6,471.2 16.6,454.6 16.6,454.3 23.8,447.6 23.8,448 	"/>
	<polygon class="st1" points="16.6,437.1 16.6,420.2 23.8,413.6 23.8,430.5 	"/>
	<polygon class="st1" points="16.6,403 16.6,386.1 23.8,379.5 23.8,396.4 	"/>
	<polygon class="st1" points="16.6,368.8 16.6,351.9 23.8,345.2 23.8,362.1 	"/>
	<polygon class="st1" points="16.6,334.7 16.6,317.8 23.8,311.2 23.8,328.1 	"/>
	<polygon class="st1" points="16.6,300.4 16.6,283.5 23.8,276.9 23.8,293.8 	"/>
	<polygon class="st1" points="16.6,266.4 16.6,249.5 23.8,242.8 23.8,259.7 	"/>
	<polygon class="st1" points="16.6,232.1 16.6,215.2 23.8,208.6 23.8,225.5 	"/>
</g>
<g>
	<polygon class="st1" points="1219.1,744.7 1219.1,727.8 1226.3,721.1 1226.3,738 	"/>
	<polygon class="st1" points="1219.1,710.6 1219.1,693.7 1226.3,687.1 1226.3,704 	"/>
	<polygon class="st1" points="1219.1,676.5 1219.1,659.6 1226.3,653 1226.3,669.9 	"/>
	<polygon class="st1" points="1219.1,642.3 1219.1,625.4 1226.3,618.7 1226.3,635.6 	"/>
	<polygon class="st1" points="1219.1,608.2 1219.1,591.3 1226.3,584.7 1226.3,601.6 	"/>
	<polygon class="st1" points="1219.1,573.9 1219.1,557 1226.3,550.4 1226.3,567.3 	"/>
	<polygon class="st1" points="1219.1,539.9 1219.1,523 1226.3,516.3 1226.3,533.2 	"/>
	<polygon class="st1" points="1219.1,505.6 1219.1,488.7 1226.3,482.1 1226.3,499 	"/>
	<polygon class="st1" points="1219.1,198.4 1219.1,181.5 1226.3,174.9 1226.3,191.7 	"/>
	<polygon class="st1" points="1219.1,164.3 1219.1,147.4 1226.3,140.8 1226.3,157.7 	"/>
	<polygon class="st1" points="1219.1,130.3 1219.1,113.4 1226.3,106.7 1226.3,123.6 	"/>
	<polygon class="st1" points="1219.1,96 1219.1,79.1 1226.3,72.5 1226.3,89.3 	"/>
	<polygon class="st1" points="1226.3,464.5 1226.3,464.9 1219.1,471.5 1219.1,471.2 1219.1,454.6 1219.1,454.3 1226.3,447.6 
		1226.3,448 	"/>
	<polygon class="st1" points="1219.1,437.1 1219.1,420.2 1226.3,413.6 1226.3,430.5 	"/>
	<polygon class="st1" points="1219.1,403 1219.1,386.1 1226.3,379.5 1226.3,396.4 	"/>
	<polygon class="st1" points="1219.1,368.8 1219.1,351.9 1226.3,345.2 1226.3,362.1 	"/>
	<polygon class="st1" points="1219.1,334.7 1219.1,317.8 1226.3,311.2 1226.3,328.1 	"/>
	<polygon class="st1" points="1219.1,300.4 1219.1,283.5 1226.3,276.9 1226.3,293.8 	"/>
	<polygon class="st1" points="1219.1,266.4 1219.1,249.5 1226.3,242.8 1226.3,259.7 	"/>
	<polygon class="st1" points="1219.1,232.1 1219.1,215.2 1226.3,208.6 1226.3,225.5 	"/>
</g>
<polygon points="0,0.7 0,19.7 0,22.6 0,29.5 0,33.2 0,58.2 1241.5,58.2 1241.5,33.2 1241.5,29.5 1241.5,22.6 1241.5,19.7 
	1241.5,0.7 "/>
<g>
	<g>
		<path class="st2" d="M1086.7,45h-7.4V33.3l-1.2-1.2h-8.4V45h-7.4V11.8h19.4l5.1,5.1V26l-2.4,2.4l2.4,2.4V45z M1081.3,42.9h3.3
			V31.6l-3.2-3.2l3.2-3.2v-7.5l-3.9-3.9h-16.5v29.1h3.3V30h11.3l2.4,2.4V42.9z M1078.9,26.7h-11.3v-9.6h11.3l2.4,2.4v4.8
			L1078.9,26.7z M1069.6,24.7h8.4l1.2-1.2v-3.1l-1.2-1.2h-8.4V24.7z"/>
	</g>
	<g>
		<path class="st2" d="M1108.6,45h-14.3l-5.1-5.1V16.8l5.1-5.1h14.3l5.1,5.1v23.1L1108.6,45z M1095.1,42.9h12.6l3.9-3.9V17.7
			l-3.9-3.9h-12.6l-3.9,3.9V39L1095.1,42.9z M1105.9,39.6h-8.9l-2.4-2.4V19.5l2.4-2.4h8.9l2.4,2.4v17.7L1105.9,39.6z M1097.8,37.6
			h7.2l1.2-1.2v-16l-1.2-1.2h-7.2l-1.2,1.2v16L1097.8,37.6z"/>
	</g>
	<g>
		<path class="st2" d="M1135.6,45h-19.4V11.8h19.4l5.1,5.1V26l-2.4,2.4l2.4,2.4v9.2L1135.6,45z M1118.3,42.9h16.5l3.9-3.9v-7.5
			l-3.2-3.2l3.2-3.2v-7.5l-3.9-3.9h-16.5V42.9z M1132.9,39.6h-11.3V30h11.3l2.4,2.4v4.8L1132.9,39.6z M1123.6,37.6h8.4l1.2-1.2v-3.1
			l-1.2-1.2h-8.4V37.6z M1132.9,26.7h-11.3v-9.6h11.3l2.4,2.4v4.8L1132.9,26.7z M1123.6,24.7h8.4l1.2-1.2v-3.1l-1.2-1.2h-8.4V24.7z"
			/>
	</g>
	<g>
		<path class="st2" d="M1162.6,45h-14.3l-5.1-5.1V16.8l5.1-5.1h14.3l5.1,5.1v23.1L1162.6,45z M1149.1,42.9h12.6l3.9-3.9V17.7
			l-3.9-3.9h-12.6l-3.9,3.9V39L1149.1,42.9z M1159.9,39.6h-8.9l-2.4-2.4V19.5l2.4-2.4h8.9l2.4,2.4v17.7L1159.9,39.6z M1151.8,37.6
			h7.2l1.2-1.2v-16l-1.2-1.2h-7.2l-1.2,1.2v16L1151.8,37.6z"/>
	</g>
	<g>
		<path class="st2" d="M1202.2,45h-7.4V28.2l-5.5,16.8h-6.1l-5.5-16.8V45h-7.4V11.8h9.4l6.5,18.7l6.5-18.7h9.4L1202.2,45z
			 M1196.8,42.9h3.3l0-29.1h-5.9l-8,22.8l-8-22.8h-5.9v29.1h3.3V15.3l9,27.6h3.1l9-27.6V42.9z"/>
	</g>
	<g>
		<path class="st2" d="M1224.1,45h-19.4V11.8h19.4l5.1,5.1V26l-2.4,2.4l2.4,2.4v9.2L1224.1,45z M1206.8,42.9h16.5l3.9-3.9v-7.5
			l-3.2-3.2l3.2-3.2v-7.5l-3.9-3.9h-16.5V42.9z M1221.4,39.6h-11.3V30h11.3l2.4,2.4v4.8L1221.4,39.6z M1212.1,37.6h8.4l1.2-1.2v-3.1
			l-1.2-1.2h-8.4V37.6z M1221.4,26.7h-11.3v-9.6h11.3l2.4,2.4v4.8L1221.4,26.7z M1212.1,24.7h8.4l1.2-1.2v-3.1l-1.2-1.2h-8.4V24.7z"
			/>
	</g>
</g>
<rect x="371.4" y="12.1" class="st2" width="681.7" height="3.5"/>
<rect x="371.4" y="19.3" class="st2" width="681.7" height="3.5"/>
<rect x="371.4" y="26.6" class="st2" width="681.7" height="3.5"/>
<rect x="371.4" y="33.8" class="st2" width="681.7" height="3.5"/>
<rect x="371.4" y="41" class="st2" width="681.7" height="3.5"/>
</svg>
