<?xml version="1.0" encoding="utf-8"?>
<!-- Generator: Adobe Illustrator 20.0.0, SVG Export Plug-In . SVG Version: 6.00 Build 0)  -->
<svg version="1.1" id="Layer_1" xmlns="http://www.w3.org/2000/svg" xmlns:xlink="http://www.w3.org/1999/xlink" x="0px" y="0px"
	 viewBox="0 0 139.9 139.4" style="enable-background:new 0 0 139.9 139.4;" xml:space="preserve">
<style type="text/css">
	.st0{opacity:0.2;}
	.st1{fill:#A5C2CF;}
	.st2{fill:#6A93A6;}
	.st3{fill:#D4F2FF;}
	.st4{fill:#BEFFED;}
</style>
<circle class="st0" cx="98" cy="97.5" r="41.9"/>
<circle class="st1" cx="56.6" cy="56.4" r="56.4"/>
<circle class="st1" cx="57" cy="56" r="33.3"/>
<path class="st2" d="M93.9,19.8c20.4,20.4,20.4,53.7,0,74.2s-53.7,20.4-74.2,0l-3.1,3.1c22.2,22.2,58.2,22.2,80.4,0
	s22.2-58.2,0-80.4L93.9,19.8z"/>
<path class="st3" d="M19.7,94c-20.4-20.4-20.4-53.7,0-74.2s53.7-20.4,74.2,0l0,0l3.1-3.1l0,0c-22.2-22.2-58.2-22.2-80.4,0
	s-22.2,58.2,0,80.4l0,0L19.7,94L19.7,94z"/>
<path class="st2" d="M88,25.6c17.2,17.2,17.2,45.2,0,62.5s-45.2,17.2-62.5,0l-2.6,2.6c18.7,18.7,49,18.7,67.7,0s18.7-49,0-67.7
	L88,25.6z"/>
<path class="st3" d="M25.5,88.1c-17.2-17.2-17.2-45.2,0-62.5s45.2-17.2,62.5,0l0,0l2.6-2.6l0,0c-18.7-18.7-49-18.7-67.7,0
	s-18.7,49,0,67.7l0,0L25.5,88.1L25.5,88.1z"/>
<circle cx="56.6" cy="56.9" r="31"/>
<path class="st2" d="M35,78.7c-12-12-12-31.6,0-43.6s31.6-12,43.6,0l1.8-1.8c-13-13-34.2-13-47.2,0s-13,34.2,0,47.2L35,78.7z"/>
<path class="st3" d="M78.6,35.1c12,12,12,31.6,0,43.6s-31.6,12-43.6,0l0,0l-1.8,1.8l0,0c13,13,34.2,13,47.2,0s13-34.2,0-47.2l0,0
	L78.6,35.1L78.6,35.1z"/>
<ellipse class="st2" cx="106.6" cy="57" rx="16.1" ry="33.3"/>
<ellipse class="st3" cx="102.5" cy="57" rx="16.1" ry="33.3"/>
<ellipse cx="100.5" cy="57" rx="15" ry="31.1"/>
<path class="st2" d="M86.4,65.1L86.4,65.1c-0.9,0-1.7-0.8-1.7-1.7V51c0-0.9,0.8-1.7,1.7-1.7l0,0c0.9,0,1.7,0.8,1.7,1.7v12.4
	C88.2,64.3,87.4,65.1,86.4,65.1z"/>
<path class="st3" d="M85.9,64L85.9,64c-0.3,0-0.6-0.3-0.6-0.6V51.3c0-0.3,0.3-0.6,0.6-0.6l0,0c0.3,0,0.6,0.3,0.6,0.6v12.1
	C86.5,63.7,86.2,64,85.9,64z"/>
<g>
	<path class="st4" d="M105.6,78c-5,0-9-9.1-9-20.6s3.9-20.6,9-20.6s9,9.1,9,20.6S110.6,78,105.6,78z M105.6,37.7c-4.3,0-8,9-8,19.6
		s3.7,19.6,8,19.6s8-9,8-19.6S109.9,37.7,105.6,37.7z"/>
</g>
<g>
	<path class="st4" d="M108.2,71.6c-3.5,0-6.3-6.3-6.3-14.2s2.8-14.2,6.3-14.2s6.3,6.3,6.3,14.2S111.7,71.6,108.2,71.6z M108.2,44.1
		c-2.9,0-5.3,6.1-5.3,13.2s2.4,13.2,5.3,13.2s5.3-6.1,5.3-13.2S111.1,44.1,108.2,44.1z"/>
</g>
<g>
	<path class="st2" d="M57.2,75.2c-9.8,0-17.9-8-17.9-17.9c0-9.8,8-17.9,17.9-17.9c9.8,0,17.9,8,17.9,17.9C75,67.2,67,75.2,57.2,75.2
		z M57.2,40.4c-9.4,0-17,7.6-17,17c0,9.4,7.6,17,17,17c9.4,0,17-7.6,17-17C74.1,48,66.5,40.4,57.2,40.4z"/>
</g>
</svg>
