<?xml version="1.0" encoding="utf-8"?>
<!-- Generator: Adobe Illustrator 20.0.0, SVG Export Plug-In . SVG Version: 6.00 Build 0)  -->
<svg version="1.1" id="Layer_1" xmlns="http://www.w3.org/2000/svg" xmlns:xlink="http://www.w3.org/1999/xlink" x="0px" y="0px"
	 viewBox="0 0 139.9 139.4" style="enable-background:new 0 0 139.9 139.4;" xml:space="preserve">
<style type="text/css">
	.st0{opacity:0.2;}
	.st1{fill:#A5C2CF;}
	.st2{fill:#6A93A6;}
	.st3{fill:#D4F2FF;}
</style>
<g>
	<circle class="st0" cx="98" cy="97.5" r="41.9"/>
	<circle class="st1" cx="56.6" cy="56.4" r="56.4"/>
	<circle class="st1" cx="57" cy="56" r="33.3"/>
	<path class="st2" d="M93.9,19.8c20.4,20.4,20.4,53.7,0,74.2s-53.7,20.4-74.2,0l-3.1,3.1c22.2,22.2,58.2,22.2,80.4,0
		s22.2-58.2,0-80.4L93.9,19.8z"/>
	<path class="st3" d="M19.7,94c-20.4-20.4-20.4-53.7,0-74.2s53.7-20.4,74.2,0l0,0l3.1-3.1l0,0c-22.2-22.2-58.2-22.2-80.4,0
		s-22.2,58.2,0,80.4l0,0L19.7,94L19.7,94z"/>
	<path class="st2" d="M34,79.7c-12.6-12.6-12.6-33,0-45.6s33-12.6,45.6,0l1.9-1.9c-13.6-13.6-35.8-13.6-49.4,0s-13.6,35.8,0,49.4
		L34,79.7z"/>
	<path class="st3" d="M79.6,34.1c12.6,12.6,12.6,33,0,45.6s-33,12.6-45.6,0l0,0l-1.9,1.9l0,0c13.6,13.6,35.8,13.6,49.4,0
		s13.6-35.8,0-49.4l0,0L79.6,34.1L79.6,34.1z"/>
	<path class="st2" d="M77.8,35.9c11.6,11.6,11.6,30.4,0,42s-30.4,11.6-42,0L34,79.7c12.6,12.6,33,12.6,45.5,0s12.6-33,0-45.5
		L77.8,35.9z"/>
	<path class="st3" d="M35.8,77.9c-11.6-11.6-11.6-30.4,0-42s30.4-11.6,42,0l0,0l1.8-1.8l0,0c-12.6-12.6-33-12.6-45.5,0
		s-12.6,33,0,45.5l0,0L35.8,77.9L35.8,77.9z"/>
	<g>
		<path class="st2" d="M56.6,73.8c-0.2,0-0.5,0-0.7,0l0-1c0.2,0,0.5,0,0.7,0l0.2,0l0,1L56.6,73.8z M58.6,73.7l-0.1-1
			c0.3,0,0.6-0.1,0.8-0.1l0.2,1C59.2,73.6,58.9,73.7,58.6,73.7z M54.1,73.6c-0.3,0-0.6-0.1-0.9-0.2l0.2-1c0.3,0.1,0.6,0.1,0.8,0.2
			L54.1,73.6z M61.3,73.2l-0.3-1c0.3-0.1,0.5-0.2,0.8-0.3l0.3,0.9C61.9,73,61.6,73.1,61.3,73.2z M51.4,73c-0.3-0.1-0.6-0.2-0.9-0.3
			l0.4-0.9c0.3,0.1,0.5,0.2,0.8,0.3L51.4,73z M63.8,72.2l-0.4-0.9c0.3-0.1,0.5-0.3,0.8-0.4l0.5,0.9C64.4,71.9,64.1,72.1,63.8,72.2z
			 M48.9,72c-0.3-0.1-0.5-0.3-0.8-0.4l0.5-0.9c0.2,0.1,0.5,0.3,0.7,0.4L48.9,72z M66.2,70.8L65.6,70c0.2-0.2,0.5-0.3,0.7-0.5
			l0.6,0.8C66.7,70.5,66.4,70.7,66.2,70.8z M46.6,70.5c-0.2-0.2-0.5-0.4-0.7-0.6l0.6-0.8c0.2,0.2,0.4,0.4,0.7,0.5L46.6,70.5z
			 M68.3,69.1l-0.7-0.7c0.2-0.2,0.4-0.4,0.6-0.6l0.7,0.7C68.7,68.7,68.5,68.9,68.3,69.1z M44.6,68.7c-0.2-0.2-0.4-0.4-0.6-0.7
			l0.8-0.7c0.2,0.2,0.4,0.4,0.6,0.6L44.6,68.7z M70.1,67.1l-0.8-0.6c0.2-0.2,0.3-0.5,0.5-0.7l0.8,0.6C70.5,66.6,70.3,66.9,70.1,67.1
			z M42.8,66.7c-0.2-0.2-0.3-0.5-0.5-0.8l0.8-0.5c0.2,0.2,0.3,0.5,0.5,0.7L42.8,66.7z M71.6,64.8l-0.9-0.5c0.1-0.3,0.3-0.5,0.4-0.8
			L72,64C71.8,64.3,71.7,64.5,71.6,64.8z M41.4,64.3c-0.1-0.3-0.3-0.5-0.4-0.8l0.9-0.4c0.1,0.3,0.2,0.5,0.4,0.8L41.4,64.3z
			 M72.6,62.3L71.7,62c0.1-0.3,0.2-0.5,0.3-0.8l1,0.3C72.8,61.7,72.7,62,72.6,62.3z M40.4,61.8c-0.1-0.3-0.2-0.6-0.2-0.9l1-0.2
			c0.1,0.3,0.1,0.6,0.2,0.8L40.4,61.8z M73.3,59.7l-1-0.2c0-0.3,0.1-0.6,0.1-0.8l1,0.1C73.4,59.1,73.4,59.4,73.3,59.7z M39.9,59.1
			c0-0.3-0.1-0.6-0.1-0.9l1-0.1c0,0.3,0.1,0.6,0.1,0.8L39.9,59.1z M72.5,57L72.5,57c0-0.4,0-0.6,0-0.9l1-0.1c0,0.3,0,0.6,0,0.9
			L72.5,57z M40.7,56.4l-1,0c0-0.3,0-0.6,0.1-0.9l1,0.1C40.7,55.9,40.7,56.2,40.7,56.4z M72.3,54.3c0-0.3-0.1-0.6-0.2-0.8l1-0.2
			c0.1,0.3,0.1,0.6,0.2,0.9L72.3,54.3z M41,53.9l-1-0.2c0.1-0.3,0.1-0.6,0.2-0.9l1,0.2C41.1,53.3,41.1,53.6,41,53.9z M71.7,51.9
			c-0.1-0.3-0.2-0.5-0.3-0.8l0.9-0.4c0.1,0.3,0.2,0.6,0.3,0.9L71.7,51.9z M41.7,51.4l-0.9-0.3c0.1-0.3,0.2-0.6,0.3-0.8l0.9,0.4
			C41.9,50.9,41.8,51.2,41.7,51.4z M70.7,49.5c-0.1-0.3-0.3-0.5-0.4-0.7l0.9-0.5c0.2,0.3,0.3,0.5,0.4,0.8L70.7,49.5z M42.8,49.1
			l-0.9-0.5c0.1-0.3,0.3-0.5,0.5-0.8l0.8,0.5C43,48.6,42.9,48.9,42.8,49.1z M69.3,47.3c-0.2-0.2-0.3-0.5-0.5-0.7l0.8-0.6
			c0.2,0.2,0.4,0.5,0.6,0.7L69.3,47.3z M44.2,47l-0.8-0.6c0.2-0.2,0.4-0.5,0.6-0.7l0.7,0.7C44.5,46.5,44.4,46.8,44.2,47z M67.6,45.4
			c-0.2-0.2-0.4-0.4-0.6-0.6l0.7-0.8c0.2,0.2,0.5,0.4,0.7,0.6L67.6,45.4z M45.9,45.1l-0.7-0.7c0.2-0.2,0.5-0.4,0.7-0.6l0.6,0.8
			C46.4,44.7,46.1,44.9,45.9,45.1z M65.7,43.8c-0.2-0.2-0.5-0.3-0.7-0.5l0.5-0.9c0.3,0.2,0.5,0.3,0.8,0.5L65.7,43.8z M48,43.6
			l-0.5-0.8c0.3-0.2,0.5-0.3,0.8-0.5l0.5,0.9C48.4,43.3,48.2,43.4,48,43.6z M63.5,42.5c-0.3-0.1-0.5-0.2-0.8-0.3l0.4-0.9
			c0.3,0.1,0.6,0.2,0.8,0.4L63.5,42.5z M50.2,42.3l-0.4-0.9c0.3-0.1,0.6-0.2,0.8-0.3L51,42C50.7,42.1,50.5,42.2,50.2,42.3z
			 M61.1,41.6c-0.3-0.1-0.5-0.2-0.8-0.2l0.2-1c0.3,0.1,0.6,0.1,0.9,0.2L61.1,41.6z M52.6,41.5l-0.2-1c0.3-0.1,0.6-0.1,0.9-0.2l0.2,1
			C53.2,41.4,52.9,41.4,52.6,41.5z M58.6,41.1c-0.3,0-0.6-0.1-0.9-0.1l0.1-1c0.3,0,0.6,0,0.9,0.1L58.6,41.1z M55.1,41.1l-0.1-1
			c0.3,0,0.6,0,0.9-0.1l0,1C55.7,41,55.4,41,55.1,41.1z"/>
	</g>
	<g>
		<path class="st2" d="M56.6,81.6c-0.4,0-0.7,0-1.1,0l0.2-4.4c0.3,0,0.6,0,0.9,0l0.2,0l0.1,4.4L56.6,81.6z M59.5,81.4L59,77.1
			c0.4,0,0.7-0.1,1.1-0.2l0.7,4.3C60.4,81.3,59.9,81.4,59.5,81.4z M52.9,81.3c-0.4-0.1-0.9-0.1-1.3-0.2l0.9-4.3
			c0.4,0.1,0.7,0.1,1.1,0.2L52.9,81.3z M63.4,80.6l-1.2-4.2c0.4-0.1,0.7-0.2,1-0.3l1.4,4.1C64.2,80.4,63.8,80.5,63.4,80.6z M49,80.4
			c-0.4-0.1-0.8-0.3-1.3-0.4l1.6-4.1c0.3,0.1,0.7,0.2,1,0.4L49,80.4z M67.1,79.3l-1.9-3.9c0.3-0.2,0.7-0.3,1-0.5l2.1,3.8
			C67.9,78.9,67.5,79.1,67.1,79.3z M45.3,78.9c-0.4-0.2-0.8-0.4-1.2-0.6l2.2-3.8c0.3,0.2,0.6,0.4,1,0.5L45.3,78.9z M70.6,77.3
			l-2.5-3.6c0.3-0.2,0.6-0.4,0.9-0.6l2.7,3.5C71.3,76.8,70.9,77,70.6,77.3z M42,76.8c-0.4-0.3-0.7-0.5-1-0.8l2.8-3.4
			c0.3,0.2,0.6,0.5,0.9,0.7L42,76.8z M73.6,74.8l-3-3.2c0.3-0.3,0.5-0.5,0.8-0.8l3.2,3C74.3,74.1,74,74.5,73.6,74.8z M39,74.2
			c-0.3-0.3-0.6-0.6-0.9-1l3.3-2.9c0.2,0.3,0.5,0.5,0.7,0.8L39,74.2z M76.3,71.8l-3.5-2.6c0.2-0.3,0.4-0.6,0.6-0.9l3.6,2.4
			C76.8,71.1,76.6,71.5,76.3,71.8z M36.4,71.2c-0.3-0.4-0.5-0.7-0.7-1.1l3.7-2.3c0.2,0.3,0.4,0.6,0.6,0.9L36.4,71.2z M78.4,68.5
			l-3.8-2c0.2-0.3,0.3-0.6,0.5-1l4,1.8C78.8,67.7,78.6,68.1,78.4,68.5z M34.4,67.7c-0.2-0.4-0.4-0.8-0.5-1.2l4-1.7
			c0.1,0.3,0.3,0.7,0.5,1L34.4,67.7z M80,64.8l-4.1-1.4c0.1-0.3,0.2-0.7,0.3-1l4.2,1.2C80.3,64,80.1,64.4,80,64.8z M32.9,64
			c-0.1-0.4-0.2-0.9-0.4-1.3l4.2-1c0.1,0.4,0.2,0.7,0.3,1L32.9,64z M81,61l-4.3-0.7c0.1-0.4,0.1-0.7,0.1-1.1l4.3,0.5
			C81.1,60.1,81,60.5,81,61z M32.1,60.1C32,59.7,32,59.3,32,58.8l4.3-0.3c0,0.4,0.1,0.7,0.1,1.1L32.1,60.1z M76.9,57L76.9,57
			c0-0.5,0-0.8,0-1.2l4.4-0.2c0,0.4,0,0.9,0,1.3L76.9,57z M36.3,56.3l-4.4-0.1c0-0.4,0-0.9,0.1-1.3l4.3,0.3
			C36.3,55.6,36.3,55.9,36.3,56.3z M76.7,53.6c-0.1-0.4-0.1-0.7-0.2-1.1l4.3-0.9c0.1,0.4,0.2,0.9,0.2,1.3L76.7,53.6z M36.6,53.1
			l-4.3-0.8c0.1-0.4,0.2-0.9,0.3-1.3l4.2,1C36.8,52.3,36.7,52.7,36.6,53.1z M75.9,50.5c-0.1-0.3-0.2-0.7-0.4-1l4.1-1.6
			c0.2,0.4,0.3,0.8,0.5,1.3L75.9,50.5z M37.5,49.9l-4.1-1.5c0.2-0.4,0.3-0.8,0.5-1.2l4,1.7C37.7,49.2,37.6,49.6,37.5,49.9z
			 M74.6,47.4c-0.2-0.3-0.3-0.6-0.5-1l3.7-2.2c0.2,0.4,0.4,0.8,0.6,1.2L74.6,47.4z M38.9,46.9l-3.8-2.1c0.2-0.4,0.4-0.8,0.7-1.1
			l3.7,2.3C39.2,46.3,39,46.6,38.9,46.9z M72.9,44.7c-0.2-0.3-0.4-0.6-0.7-0.9l3.3-2.8c0.3,0.3,0.6,0.7,0.8,1L72.9,44.7z M40.7,44.2
			l-3.4-2.7c0.3-0.3,0.6-0.7,0.9-1l3.3,2.9C41.1,43.7,40.9,43.9,40.7,44.2z M70.7,42.2c-0.3-0.3-0.5-0.5-0.8-0.7l2.8-3.3
			c0.3,0.3,0.7,0.6,1,0.9L70.7,42.2z M42.9,41.8L40,38.6c0.3-0.3,0.7-0.6,1-0.9l2.8,3.4C43.5,41.3,43.2,41.6,42.9,41.8z M68.2,40.2
			c-0.3-0.2-0.6-0.4-0.9-0.6l2.3-3.7c0.4,0.2,0.7,0.5,1.1,0.7L68.2,40.2z M45.5,39.8l-2.4-3.7c0.4-0.2,0.7-0.5,1.1-0.7l2.2,3.8
			C46.1,39.4,45.8,39.6,45.5,39.8z M65.3,38.5c-0.3-0.2-0.7-0.3-1-0.4l1.7-4c0.4,0.2,0.8,0.3,1.2,0.5L65.3,38.5z M48.4,38.3l-1.8-4
			c0.4-0.2,0.8-0.3,1.2-0.5l1.5,4.1C49.1,38,48.7,38.1,48.4,38.3z M62.3,37.4c-0.3-0.1-0.7-0.2-1.1-0.3l1-4.2
			c0.4,0.1,0.9,0.2,1.3,0.3L62.3,37.4z M51.5,37.2L50.4,33c0.4-0.1,0.9-0.2,1.3-0.3l0.9,4.3C52.2,37,51.8,37.1,51.5,37.2z
			 M59.1,36.7c-0.4,0-0.7-0.1-1.1-0.1l0.3-4.3c0.4,0,0.9,0.1,1.3,0.1L59.1,36.7z M54.7,36.6l-0.4-4.3c0.4,0,0.9-0.1,1.3-0.1l0.2,4.4
			C55.4,36.6,55.1,36.6,54.7,36.6z"/>
	</g>
</g>
</svg>
