<?xml version="1.0" encoding="utf-8"?>
<!-- Generator: Adobe Illustrator 20.0.0, SVG Export Plug-In . SVG Version: 6.00 Build 0)  -->
<svg version="1.1" id="Layer_1" xmlns="http://www.w3.org/2000/svg" xmlns:xlink="http://www.w3.org/1999/xlink" x="0px" y="0px"
	 viewBox="0 0 139.9 139.4" style="enable-background:new 0 0 139.9 139.4;" xml:space="preserve">
<style type="text/css">
	.st0{opacity:0.2;}
	.st1{fill:#A5C2CF;}
	.st2{fill:#6A93A6;}
	.st3{fill:#D4F2FF;}
	.st4{fill:#BEFFED;}
	.st5{fill:#120AB5;}
	.st6{fill:#190EFF;}
</style>
<circle class="st0" cx="98" cy="97.5" r="41.9"/>
<circle class="st1" cx="56.6" cy="56.4" r="56.4"/>
<circle class="st1" cx="57" cy="56" r="33.3"/>
<path class="st2" d="M93.9,19.8c20.4,20.4,20.4,53.7,0,74.2s-53.7,20.4-74.2,0l-3.1,3.1c22.2,22.2,58.2,22.2,80.4,0
	s22.2-58.2,0-80.4L93.9,19.8z"/>
<path class="st3" d="M19.7,94c-20.4-20.4-20.4-53.7,0-74.2s53.7-20.4,74.2,0l0,0l3.1-3.1l0,0c-22.2-22.2-58.2-22.2-80.4,0
	s-22.2,58.2,0,80.4l0,0L19.7,94L19.7,94z"/>
<path class="st2" d="M88,25.6c17.2,17.2,17.2,45.2,0,62.5s-45.2,17.2-62.5,0l-2.6,2.6c18.7,18.7,49,18.7,67.7,0s18.7-49,0-67.7
	L88,25.6z"/>
<path class="st3" d="M25.5,88.1c-17.2-17.2-17.2-45.2,0-62.5s45.2-17.2,62.5,0l0,0l2.6-2.6l0,0c-18.7-18.7-49-18.7-67.7,0
	s-18.7,49,0,67.7l0,0L25.5,88.1L25.5,88.1z"/>
<g>
	<circle cx="56.6" cy="56.9" r="25.1"/>
	<circle class="st4" cx="46.3" cy="45.4" r="3.5"/>
	<path class="st5" d="M66.2,36.1c5.8,3.9,9.6,10.6,9.6,18.2c0,12.1-9.8,21.9-21.9,21.9c-7.6,0-14.2-3.8-18.2-9.6
		c3.7,7.6,11.5,12.8,20.5,12.8C68.8,79.4,79,69.2,79,56.6C79,47.6,73.8,39.8,66.2,36.1z"/>
	<path class="st6" d="M64.7,35.5c5.7,3.8,9.4,10.3,9.4,17.7c0,11.8-9.6,21.3-21.3,21.3c-7.4,0-13.8-3.7-17.7-9.4
		c3.6,7.4,11.2,12.5,19.9,12.5c12.3,0,22.2-9.9,22.2-22.2C77.2,46.7,72.1,39.1,64.7,35.5z"/>
</g>
<path class="st2" d="M76.5,37.2c10.9,10.9,10.9,28.6,0,39.5s-28.6,10.9-39.5,0l-1.7,1.7c11.8,11.8,31,11.8,42.8,0s11.8-31,0-42.8
	L76.5,37.2z"/>
<path class="st3" d="M37,76.6C26.2,65.7,26.2,48,37,37.2s28.6-10.9,39.5,0l0,0l1.7-1.7l0,0c-11.8-11.8-31-11.8-42.8,0
	s-11.8,31,0,42.8l0,0L37,76.6L37,76.6z"/>
<g>
	<g>
		<circle class="st2" cx="88.3" cy="57.4" r="2.3"/>
		<circle class="st3" cx="87.3" cy="56.4" r="1.7"/>
	</g>
	<g>
		<circle class="st2" cx="73" cy="30.4" r="2.3"/>
		<circle class="st3" cx="72" cy="29.4" r="1.7"/>
	</g>
	<g>
		<circle class="st2" cx="41.9" cy="30.4" r="2.3"/>
		<circle class="st3" cx="40.9" cy="29.4" r="1.7"/>
	</g>
	<g>
		<circle class="st2" cx="73" cy="84.2" r="2.3"/>
		<circle class="st3" cx="72" cy="83.2" r="1.7"/>
	</g>
	<g>
		<circle class="st2" cx="41.9" cy="84.2" r="2.3"/>
		<circle class="st3" cx="40.9" cy="83.2" r="1.7"/>
	</g>
	<g>
		<circle class="st2" cx="25.9" cy="57.4" r="2.3"/>
		<circle class="st3" cx="24.9" cy="56.4" r="1.7"/>
	</g>
</g>
</svg>
