<?xml version="1.0" encoding="utf-8"?>
<!-- Generator: Adobe Illustrator 20.0.0, SVG Export Plug-In . SVG Version: 6.00 Build 0)  -->
<svg version="1.1" id="Layer_1" xmlns="http://www.w3.org/2000/svg" xmlns:xlink="http://www.w3.org/1999/xlink" x="0px" y="0px"
	 viewBox="0 0 244 174.2" style="enable-background:new 0 0 244 174.2;" xml:space="preserve">
<style type="text/css">
	.st0{fill:#BEFFED;}
	.st1{fill:#2DF300;}
	.st2{fill:#F1FF1A;}
</style>
<path class="st0" d="M244,87.1c-0.1,0-0.2,0-0.4,0C243.8,87.1,243.9,87.1,244,87.1l-0.7,0C178.1,84.9,125.7,47.2,122,0v0
	c-3.7,47-55.6,84.6-120.5,87H0c0.3,0,0.5,0,0.8,0c-0.3,0-0.5,0-0.8,0h1.5c64.8,2.5,116.8,40,120.5,87v0
	c3.7-47.2,56.1-84.9,121.3-87.1H244z"/>
<path class="st1" d="M194.3,87.1c-0.1,0-0.1,0-0.2,0C194.1,87.1,194.2,87.1,194.3,87.1l-0.4,0C155.2,84.9,124.2,47.2,122,0v0
	c-2.2,47-32.9,84.6-71.3,87h-0.9c0.2,0,0.3,0,0.5,0c-0.2,0-0.3,0-0.5,0h0.9c38.4,2.5,69.1,40,71.3,87v0
	c2.2-47.2,33.2-84.9,71.8-87.1H194.3z"/>
<path class="st2" d="M158.8,87.1c0,0-0.1,0-0.1,0C158.8,87.1,158.8,87.1,158.8,87.1l-0.2,0C138.9,84.9,123.1,47.2,122,0v0
	c-1.1,47-16.8,84.6-36.4,87h-0.5c0.1,0,0.2,0,0.2,0c-0.1,0-0.2,0-0.2,0h0.5c19.6,2.5,35.3,40,36.4,87v0
	c1.1-47.2,16.9-84.9,36.6-87.1H158.8z"/>
</svg>
