<svg version="1.1" xmlns="http://www.w3.org/2000/svg" xmlns:xlink="http://www.w3.org/1999/xlink" style="" xml:space="preserve" width="1241.9" height="774"><rect id="backgroundrect" width="100%" height="100%" x="0" y="0" fill="none" stroke="none"/>
<style type="text/css">
	.st0{fill:#696969;}
	.st1{fill:#FFF911;}
	.st2{fill:#2BFFCE;}
</style>












<g class="currentLayer" style=""><title>Layer 1</title><polygon points="0,0.7 0,19.7 0,22.6 0,29.5 0,33.2 0,58.2 1241.5,58.2 1241.5,33.2 1241.5,29.5 1241.5,22.6 1241.5,19.7   1241.5,0.7 " id="svg_112" class=""/><g id="svg_113" class="">
	<g id="svg_114">
		<path class="st2" d="M1086.7,45h-7.4V33.3l-1.2-1.2h-8.4V45h-7.4V11.8h19.4l5.1,5.1V26l-2.4,2.4l2.4,2.4V45z M1081.3,42.9h3.3    V31.6l-3.2-3.2l3.2-3.2v-7.5l-3.9-3.9h-16.5v29.1h3.3V30h11.3l2.4,2.4V42.9z M1078.9,26.7h-11.3v-9.6h11.3l2.4,2.4v4.8    L1078.9,26.7z M1069.6,24.7h8.4l1.2-1.2v-3.1l-1.2-1.2h-8.4V24.7z" id="svg_115"/>
	</g>
	<g id="svg_116">
		<path class="st2" d="M1108.6,45h-14.3l-5.1-5.1V16.8l5.1-5.1h14.3l5.1,5.1v23.1L1108.6,45z M1095.1,42.9h12.6l3.9-3.9V17.7    l-3.9-3.9h-12.6l-3.9,3.9V39L1095.1,42.9z M1105.9,39.6h-8.9l-2.4-2.4V19.5l2.4-2.4h8.9l2.4,2.4v17.7L1105.9,39.6z M1097.8,37.6    h7.2l1.2-1.2v-16l-1.2-1.2h-7.2l-1.2,1.2v16L1097.8,37.6z" id="svg_117"/>
	</g>
	<g id="svg_118">
		<path class="st2" d="M1135.6,45h-19.4V11.8h19.4l5.1,5.1V26l-2.4,2.4l2.4,2.4v9.2L1135.6,45z M1118.3,42.9h16.5l3.9-3.9v-7.5    l-3.2-3.2l3.2-3.2v-7.5l-3.9-3.9h-16.5V42.9z M1132.9,39.6h-11.3V30h11.3l2.4,2.4v4.8L1132.9,39.6z M1123.6,37.6h8.4l1.2-1.2v-3.1    l-1.2-1.2h-8.4V37.6z M1132.9,26.7h-11.3v-9.6h11.3l2.4,2.4v4.8L1132.9,26.7z M1123.6,24.7h8.4l1.2-1.2v-3.1l-1.2-1.2h-8.4V24.7z" id="svg_119"/>
	</g>
	<g id="svg_120">
		<path class="st2" d="M1162.6,45h-14.3l-5.1-5.1V16.8l5.1-5.1h14.3l5.1,5.1v23.1L1162.6,45z M1149.1,42.9h12.6l3.9-3.9V17.7    l-3.9-3.9h-12.6l-3.9,3.9V39L1149.1,42.9z M1159.9,39.6h-8.9l-2.4-2.4V19.5l2.4-2.4h8.9l2.4,2.4v17.7L1159.9,39.6z M1151.8,37.6    h7.2l1.2-1.2v-16l-1.2-1.2h-7.2l-1.2,1.2v16L1151.8,37.6z" id="svg_121"/>
	</g>
	<g id="svg_122">
		<path class="st2" d="M1202.2,45h-7.4V28.2l-5.5,16.8h-6.1l-5.5-16.8V45h-7.4V11.8h9.4l6.5,18.7l6.5-18.7h9.4L1202.2,45z     M1196.8,42.9h3.3l0-29.1h-5.9l-8,22.8l-8-22.8h-5.9v29.1h3.3V15.3l9,27.6h3.1l9-27.6V42.9z" id="svg_123"/>
	</g>
	<g id="svg_124">
		<path class="st2" d="M1224.1,45h-19.4V11.8h19.4l5.1,5.1V26l-2.4,2.4l2.4,2.4v9.2L1224.1,45z M1206.8,42.9h16.5l3.9-3.9v-7.5    l-3.2-3.2l3.2-3.2v-7.5l-3.9-3.9h-16.5V42.9z M1221.4,39.6h-11.3V30h11.3l2.4,2.4v4.8L1221.4,39.6z M1212.1,37.6h8.4l1.2-1.2v-3.1    l-1.2-1.2h-8.4V37.6z M1221.4,26.7h-11.3v-9.6h11.3l2.4,2.4v4.8L1221.4,26.7z M1212.1,24.7h8.4l1.2-1.2v-3.1l-1.2-1.2h-8.4V24.7z" id="svg_125"/>
	</g>
</g><rect x="371.3999938964844" y="12.100000381469727" class="st2" width="681.7000122070312" height="3.5" id="svg_126"/><rect x="371.3999938964844" y="19.299999237060547" class="st2" width="681.7000122070312" height="3.5" id="svg_127"/><rect x="371.3999938964844" y="26.600000381469727" class="st2" width="681.7000122070312" height="3.5" id="svg_128"/><rect x="371.3999938964844" y="33.79999923706055" class="st2" width="681.7000122070312" height="3.5" id="svg_129"/><rect x="371.3999938964844" y="41" class="st2" width="681.7000122070312" height="3.5" id="svg_130"/></g></svg>